<?xml version="1.0" encoding="utf-8"?>
<svg contentScriptType="text/ecmascript" xmlns:xlink="http://www.w3.org/1999/xlink" zoomAndPan="magnify" contentStyleType="text/css" viewBox="210.0 68.0 754.0 285.0000000000001" xmlns:cacoo="http://cacoo.com/" preserveAspectRatio="xMidYMin meet" xmlns="http://www.w3.org/2000/svg" version="1.1"><defs><marker refX="14.0" refY="7.0" markerUnits="userSpaceOnUse" orient="auto" id="id6" markerHeight="14.0" viewBox="0 0 14.0 14.0" preserveAspectRatio="xMidYMid meet" markerWidth="14.0" overflow="visible"><path fill="none" d="M0 0 L14.0 7.0 L0 14.0" stroke-width="2.0" stroke-linejoin="round" stroke-linecap="round" stroke="#000000"/></marker><marker refX="0.0" refY="7.0" markerUnits="userSpaceOnUse" orient="auto" id="id8" markerHeight="14.0" viewBox="0 0 14.0 14.0" preserveAspectRatio="xMidYMid meet" markerWidth="14.0" overflow="visible"><path fill="none" d="M14.0 0 L0 7.0 L14.0 14.0" stroke-width="2.0" stroke-linejoin="round" stroke-linecap="round" stroke="#000000"/></marker><marker refX="14.0" refY="7.0" markerUnits="userSpaceOnUse" orient="auto" id="id10" markerHeight="14.0" viewBox="0 0 14.0 14.0" preserveAspectRatio="xMidYMid meet" markerWidth="14.0" overflow="visible"><path fill="none" d="M0 0 L14.0 7.0 L0 14.0" stroke-width="2.0" stroke-linejoin="round" stroke-linecap="round" stroke="#000000"/></marker></defs><g><g transform="translate(225.0 83.0)"><path fill="#999999" fill-opacity="1.0" d="M10.0 0.0 L249.0 0.0 Q259.0 0.0 259.0 10.0 L259.0 30.0 L0.0 30.0 L0.0 10.0 Q0.0 0.0 10.0 0.0 L10.0 0.0z" stroke-width="1.0" stroke-linejoin="round" stroke="#999999"/><g transform="translate(5.0 0.0)"><defs><clipPath id="id0"><path d="M0 0 L249.0 0 L249.0 30.0 L0 30.0z"/></clipPath></defs><text font-size="16" clip-path="url(#id0)" text-decoration="none" fill="#ffffff" font-family="Calibri" font-style="normal" font-weight="bold"><tspan x="2.0" xml:space="preserve" y="24.0" textLength="56.0">Browser</tspan></text></g><path fill="#ffffff" fill-opacity="1.0" d="M259.0 30.0 L259.0 245.0 Q259.0 255.0 249.0 255.0 L10.0 255.0 Q0.0 255.0 0.0 245.0 L0.0 30.0 L259.0 30.0z" stroke-width="1.0" stroke-linejoin="round" stroke="#999999"/><g transform="translate(5.0 35.0)"><defs><clipPath id="id1"><path d="M0 0 L249.0 0 L249.0 215.0 L0 215.0z"/></clipPath></defs><text font-size="16" clip-path="url(#id1)" text-decoration="none" fill="#000000" font-family="Calibri" font-style="normal" font-weight="normal"/></g></g><g transform="translate(240.0 160.0)"><path fill="#ffffff" fill-opacity="1.0" d="M145.0000000000001 102.00000000000004 Q145.0000000000001 107.00000000000004 140.0000000000001 107.00000000000004 L5.0 107.00000000000004 Q0.0 107.00000000000004 0.0 102.00000000000004 L0.0 5.0 Q0.0 0.0 5.0 0.0 L140.0000000000001 0.0 Q145.0000000000001 0.0 145.0000000000001 5.0 L145.0000000000001 102.00000000000004 L145.0000000000001 102.00000000000004z" stroke-width="1.0" stroke-linejoin="round" stroke="#000000"/><g transform="translate(1.0 1.0)"><defs><clipPath id="id2"><path d="M0 0 L143.0 0 L143.0 105.0 L0 105.0z"/></clipPath></defs><text font-size="16" clip-path="url(#id2)" text-decoration="none" fill="#000000" font-family="Calibri" font-style="normal" font-weight="normal"/></g></g><g transform="translate(243.0 161.0)"><defs><clipPath id="id3"><path d="M0 0 L113.0 0 L113.0 49.5 L0 49.5z"/></clipPath></defs><text font-size="16" clip-path="url(#id3)" text-decoration="none" fill="#000000" font-family="Calibri" font-style="normal" font-weight="normal"><tspan x="2.0" xml:space="preserve" y="17.0" textLength="72.0">Client side </tspan><tspan x="2.0" xml:space="preserve" y="36.0" textLength="73.0">Application</tspan></text></g><g transform="translate(802.0 83.0)"><path fill="#ffffff" fill-opacity="1.0" d="M146.99999999999994 250.0000000000001 Q146.99999999999994 255.0000000000001 141.99999999999994 255.0000000000001 L5.0 255.0000000000001 Q0.0 255.0000000000001 0.0 250.0000000000001 L0.0 5.0 Q0.0 0.0 5.0 0.0 L141.99999999999994 0.0 Q146.99999999999994 0.0 146.99999999999994 5.0 L146.99999999999994 250.0000000000001 L146.99999999999994 250.0000000000001z" stroke-width="1.0" stroke-linejoin="round" stroke="#000000"/><g transform="translate(1.0 1.0)"><defs><clipPath id="id4"><path d="M0 0 L145.0 0 L145.0 253.0 L0 253.0z"/></clipPath></defs><text font-size="16" clip-path="url(#id4)" text-decoration="none" fill="#000000" font-family="Calibri" font-style="normal" font-weight="normal"/></g></g><g transform="translate(808.0 93.0)"><defs><clipPath id="id5"><path d="M0 0 L136.0 0 L136.0 36.0 L0 36.0z"/></clipPath></defs><text font-size="16" clip-path="url(#id5)" text-decoration="none" fill="#000000" font-family="Calibri" font-style="normal" font-weight="normal"><tspan x="2.0" xml:space="preserve" y="17.0" textLength="123.0"> Server Application</tspan></text></g><path fill="none" marker-end="url(#id6)" d="M802.0 146.75000000000003 L483.99999999999994 146.75" stroke-width="2.0" stroke-linejoin="round" stroke="#000000"/><g transform="translate(569.0 119.0)"><defs><clipPath id="id7"><path d="M0 0 L40.0 0 L40.0 29.0 L0 29.0z"/></clipPath></defs><text font-size="16" clip-path="url(#id7)" text-decoration="none" fill="#000000" font-family="Calibri" font-style="normal" font-weight="normal"><tspan x="2.0" xml:space="preserve" y="17.0" textLength="28.0">Ping</tspan></text></g><path marker-start="url(#id8)" fill="none" d="M802.0 179.75000000000003 L484.0 179.75" stroke-width="2.0" stroke-linejoin="round" stroke="#000000"/><g transform="translate(569.0 152.0)"><defs><clipPath id="id9"><path d="M0 0 L40.0 0 L40.0 29.0 L0 29.0z"/></clipPath></defs><text font-size="16" clip-path="url(#id9)" text-decoration="none" fill="#000000" font-family="Calibri" font-style="normal" font-weight="normal"><tspan x="2.0" xml:space="preserve" y="17.0" textLength="32.0">Pong</tspan></text></g><path fill="none" marker-end="url(#id10)" d="M385.0000000000001 240.25000000000006 L806.1639377961983 240.25000000000006" stroke-width="2.0" stroke-linejoin="round" stroke="#000000"/><g transform="translate(570.0 218.0)"><defs><clipPath id="id11"><path d="M0 0 L94.0 0 L94.0 24.0 L0 24.0z"/></clipPath></defs><text font-size="16" clip-path="url(#id11)" text-decoration="none" fill="#000000" font-family="Calibri" font-style="normal" font-weight="normal"><tspan x="2.0" xml:space="preserve" y="17.0" textLength="66.0">Heartbeat</tspan></text></g></g></svg>