<?xml version="1.0" encoding="utf-8"?>
<svg contentScriptType="text/ecmascript" xmlns:xlink="http://www.w3.org/1999/xlink" zoomAndPan="magnify" contentStyleType="text/css" viewBox="66.0 23.0 739.9999999999992 266.0" xmlns:cacoo="http://cacoo.com/" preserveAspectRatio="xMidYMin meet" xmlns="http://www.w3.org/2000/svg" version="1.1"><defs><linearGradient x1="0%" xmlns:xlink="http://www.w3.org/1999/xlink" y1="0%" x2="0%" y2="100%" xlink:type="simple" xlink:actuate="onLoad" id="id1" xlink:show="other"><stop stop-opacity="1.0" stop-color="#e4e4e4" offset="0%"/><stop stop-opacity="1.0" stop-color="#bababa" offset="100%"/></linearGradient><linearGradient x1="0%" xmlns:xlink="http://www.w3.org/1999/xlink" y1="0%" x2="0%" y2="100%" xlink:type="simple" xlink:actuate="onLoad" id="id2" xlink:show="other"><stop stop-opacity="1.0" stop-color="#e4e4e4" offset="0%"/><stop stop-opacity="1.0" stop-color="#bababa" offset="100%"/></linearGradient><marker refX="0.0" refY="7.0" markerUnits="userSpaceOnUse" orient="auto" id="id3" markerHeight="14.0" viewBox="0 0 14.0 14.0" preserveAspectRatio="xMidYMid meet" markerWidth="14.0" overflow="visible"><path fill="none" d="M14.0 0 L0 7.0 L14.0 14.0" stroke-width="2.0" stroke-linejoin="round" stroke-linecap="round" stroke="#000000"/></marker><marker refX="14.0" refY="7.0" markerUnits="userSpaceOnUse" orient="auto" id="id4" markerHeight="14.0" viewBox="0 0 14.0 14.0" preserveAspectRatio="xMidYMid meet" markerWidth="14.0" overflow="visible"><path fill="none" d="M0 0 L14.0 7.0 L0 14.0" stroke-width="2.0" stroke-linejoin="round" stroke-linecap="round" stroke="#000000"/></marker><linearGradient x1="0%" xmlns:xlink="http://www.w3.org/1999/xlink" y1="0%" x2="0%" y2="100%" xlink:type="simple" xlink:actuate="onLoad" id="id6" xlink:show="other"><stop stop-opacity="1.0" stop-color="#e4e4e4" offset="0%"/><stop stop-opacity="1.0" stop-color="#bababa" offset="100%"/></linearGradient><linearGradient x1="0%" xmlns:xlink="http://www.w3.org/1999/xlink" y1="0%" x2="0%" y2="100%" xlink:type="simple" xlink:actuate="onLoad" id="id7" xlink:show="other"><stop stop-opacity="1.0" stop-color="#e4e4e4" offset="0%"/><stop stop-opacity="1.0" stop-color="#bababa" offset="100%"/></linearGradient><marker refX="0.0" refY="7.0" markerUnits="userSpaceOnUse" orient="auto" id="id8" markerHeight="14.0" viewBox="0 0 14.0 14.0" preserveAspectRatio="xMidYMid meet" markerWidth="14.0" overflow="visible"><path fill="none" d="M14.0 0 L0 7.0 L14.0 14.0" stroke-width="2.0" stroke-linejoin="round" stroke-linecap="round" stroke="#000000"/></marker><marker refX="14.0" refY="7.0" markerUnits="userSpaceOnUse" orient="auto" id="id9" markerHeight="14.0" viewBox="0 0 14.0 14.0" preserveAspectRatio="xMidYMid meet" markerWidth="14.0" overflow="visible"><path fill="none" d="M0 0 L14.0 7.0 L0 14.0" stroke-width="2.0" stroke-linejoin="round" stroke-linecap="round" stroke="#000000"/></marker><marker refX="0.0" refY="7.0" markerUnits="userSpaceOnUse" orient="auto" id="id10" markerHeight="14.0" viewBox="0 0 14.0 14.0" preserveAspectRatio="xMidYMid meet" markerWidth="14.0" overflow="visible"><path fill="none" d="M14.0 0 L0 7.0 L14.0 14.0" stroke-width="2.0" stroke-linejoin="round" stroke-linecap="round" stroke="#000000"/></marker><marker refX="14.0" refY="7.0" markerUnits="userSpaceOnUse" orient="auto" id="id11" markerHeight="14.0" viewBox="0 0 14.0 14.0" preserveAspectRatio="xMidYMid meet" markerWidth="14.0" overflow="visible"><path fill="none" d="M0 0 L14.0 7.0 L0 14.0" stroke-width="2.0" stroke-linejoin="round" stroke-linecap="round" stroke="#000000"/></marker><marker refX="0.0" refY="7.0" markerUnits="userSpaceOnUse" orient="auto" id="id12" markerHeight="14.0" viewBox="0 0 14.0 14.0" preserveAspectRatio="xMidYMid meet" markerWidth="14.0" overflow="visible"><path fill="none" d="M14.0 0 L0 7.0 L14.0 14.0" stroke-width="2.0" stroke-linejoin="round" stroke-linecap="round" stroke="#000000"/></marker><marker refX="14.0" refY="7.0" markerUnits="userSpaceOnUse" orient="auto" id="id13" markerHeight="14.0" viewBox="0 0 14.0 14.0" preserveAspectRatio="xMidYMid meet" markerWidth="14.0" overflow="visible"><path fill="none" d="M0 0 L14.0 7.0 L0 14.0" stroke-width="2.0" stroke-linejoin="round" stroke-linecap="round" stroke="#000000"/></marker><marker refX="0.0" refY="7.0" markerUnits="userSpaceOnUse" orient="auto" id="id14" markerHeight="14.0" viewBox="0 0 14.0 14.0" preserveAspectRatio="xMidYMid meet" markerWidth="14.0" overflow="visible"><path fill="none" d="M14.0 0 L0 7.0 L14.0 14.0" stroke-width="2.0" stroke-linejoin="round" stroke-linecap="round" stroke="#000000"/></marker><marker refX="14.0" refY="7.0" markerUnits="userSpaceOnUse" orient="auto" id="id15" markerHeight="14.0" viewBox="0 0 14.0 14.0" preserveAspectRatio="xMidYMid meet" markerWidth="14.0" overflow="visible"><path fill="none" d="M0 0 L14.0 7.0 L0 14.0" stroke-width="2.0" stroke-linejoin="round" stroke-linecap="round" stroke="#000000"/></marker><marker refX="0.0" refY="7.0" markerUnits="userSpaceOnUse" orient="auto" id="id16" markerHeight="14.0" viewBox="0 0 14.0 14.0" preserveAspectRatio="xMidYMid meet" markerWidth="14.0" overflow="visible"><path fill="none" d="M14.0 0 L0 7.0 L14.0 14.0" stroke-width="2.0" stroke-linejoin="round" stroke-linecap="round" stroke="#000000"/></marker><marker refX="14.0" refY="7.0" markerUnits="userSpaceOnUse" orient="auto" id="id17" markerHeight="14.0" viewBox="0 0 14.0 14.0" preserveAspectRatio="xMidYMid meet" markerWidth="14.0" overflow="visible"><path fill="none" d="M0 0 L14.0 7.0 L0 14.0" stroke-width="2.0" stroke-linejoin="round" stroke-linecap="round" stroke="#000000"/></marker><marker refX="0.0" refY="7.0" markerUnits="userSpaceOnUse" orient="auto" id="id18" markerHeight="14.0" viewBox="0 0 14.0 14.0" preserveAspectRatio="xMidYMid meet" markerWidth="14.0" overflow="visible"><path fill="none" d="M14.0 0 L0 7.0 L14.0 14.0" stroke-width="2.0" stroke-linejoin="round" stroke-linecap="round" stroke="#000000"/></marker><marker refX="14.0" refY="7.0" markerUnits="userSpaceOnUse" orient="auto" id="id19" markerHeight="14.0" viewBox="0 0 14.0 14.0" preserveAspectRatio="xMidYMid meet" markerWidth="14.0" overflow="visible"><path fill="none" d="M0 0 L14.0 7.0 L0 14.0" stroke-width="2.0" stroke-linejoin="round" stroke-linecap="round" stroke="#000000"/></marker></defs><g><g transform="translate(81.0 38.0)"><path fill="#ffffff" fill-opacity="1.0" d="M709.9999999999992 231.0 Q709.9999999999992 236.0 704.9999999999992 236.0 L5.0 236.0 Q0.0 236.0 0.0 231.0 L0.0 5.0 Q0.0 0.0 5.0 0.0 L704.9999999999992 0.0 Q709.9999999999992 0.0 709.9999999999992 5.0 L709.9999999999992 231.0 L709.9999999999992 231.0z" stroke-width="1.0" stroke-linejoin="round" stroke="#000000"/><g transform="translate(1.0 1.0)"><defs><clipPath id="id0"><path d="M0 0 L708.0 0 L708.0 234.0 L0 234.0z"/></clipPath></defs><text font-size="12" clip-path="url(#id0)" text-decoration="none" fill="#000000" font-family="Arial,Arial" font-style="normal" font-weight="normal"/></g></g><g transform="translate(106.00049999999999 113.00099999999998)"><path fill="#ffffff" fill-opacity="1.0" d="M50.0 25.0 Q50.0 35.356 42.678 42.678 Q35.356 50.0 25.0 50.0 Q14.644404 50.0 7.3223763 42.678375 Q0.0 35.356403 0.0 25.0 Q0.0 14.64475 7.3223753 7.3223763 Q14.64475 0.0 25.0 0.0 Q35.355827 0.0 42.678 7.3223753 Q50.0 14.644578 50.0 25.0 L50.0 25.0z" stroke-width="1.0" stroke-linejoin="round" stroke="#000000"/><path fill="#ffffff" fill-opacity="1.0" d="M18.5990005 16.9209997 Q18.5990005 20.643 16.168000799999998 20.643 Q13.737001 20.643 13.737001 16.9209997 Q13.737001 13.2 16.168000799999998 13.2 Q18.5990005 13.2 18.5990005 16.9209997 L18.5990005 16.9209997z" stroke-width="1.0" stroke-linejoin="round" stroke="#000000"/><path fill="#ffffff" fill-opacity="1.0" d="M36.263001 16.9209997 Q36.263001 20.643 33.8320012 20.643 Q31.400002 20.643 31.400002 16.9209997 Q31.400002 13.2 33.8320012 13.2 Q36.263001 13.2 36.263001 16.9209997 L36.263001 16.9209997z" stroke-width="1.0" stroke-linejoin="round" stroke="#000000"/><path fill="#ffffff" fill-opacity="1.0" d="M10.522 29.6729999 Q13.9963538 36.2239986 24.977001 36.2239986 Q35.95765 36.2239986 39.432 29.672998" stroke-width="1.0" stroke-linejoin="round" stroke="#000000"/><path fill="#ffffff" fill-opacity="1.0" d="M37.641 28.085 L41.808999299999996 30.963999700000002" stroke-width="1.0" stroke-linejoin="round" stroke="#000000"/><path fill="#ffffff" fill-opacity="1.0" d="M12.3580002 28.085 L8.19 30.9640016" stroke-width="1.0" stroke-linejoin="round" stroke="#000000"/></g><g transform="translate(679.6865 164.17849999999996)"><path fill="#949ba8" fill-opacity="1.0" d="M50.43800002 3.54 L23.33200102 74.999 L0.07700002 19.603 L25.70900002 0.0 L50.43800002 3.54 L50.43800002 3.54z" stroke="none"/><path fill="#757a8a" fill-opacity="1.0" d="M50.764999 3.54 L24.238000399999997 23.802001 L23.586 74.86500000000001 L50.633003 54.427997 L50.764999 3.54 L50.764999 3.54z" stroke="none"/><path fill="#8e9098" fill-opacity="1.0" d="M0.21200001 19.902 L23.58600001 23.849000500000002 L23.40100101 75.031997 L0.2149999714 71.196 L0.21200001 19.902 L0.21200001 19.902z" stroke="none"/><path fill="#9ea4ad" fill-opacity="1.0" d="M24.61 24.0280001 L50.662 4.032 L50.424 3.3960001 L24.629 22.4390001 Q23.188 22.8540001 22.623 22.7459981 Q22.4982 22.7222771 18.935015 22.227045099999998 Q16.085445 21.8309961 11.175375 21.1526261 Q7.67229 20.6686441 3.483797 20.091140099999997 Q2.1758516 19.9108071 0.9571934 19.7428781 Q0.34781253 19.6589071 0.0 19.6110001 Q0.35281253 20.1950931 0.97079694 20.298655099999998 Q2.2067657 20.5057761 3.5326252 20.728110100000002 Q7.7753754 21.4395771 11.326 22.0363751 Q16.296791 22.8718761 19.173374 23.358704099999997 Q22.768997 23.967218099999997 22.868 23.993000100000003 Q23.156 24.0680001 23.225 24.444000099999997 L23.225 74.8110001 L23.786001 75.2560001 Q24.293001 74.46900009999999 24.293001 73.36200009999999 Q24.293001 72.2938001 24.293411 69.44609009999999 Q24.29358 68.2787441 24.293858 66.5154201 Q24.293999 65.6230101 24.294407 63.0877421 Q24.294786 60.7286571 24.295015 59.2766721 Q24.295362 57.0617751 24.295637 55.1958101 Q24.296335 50.4557951 24.296751 46.6791341 Q24.29726 42.0504601 24.297396 38.4465701 Q24.297552 34.3032071 24.29722 31.4069601 Q24.296446 24.6512191 24.293001 24.542008099999997 Q24.281002 24.186007099999998 24.61 24.027008100000003 L24.61 24.0280001z" stroke="none"/><path fill="none" d="M26.486 21.332 L26.486 21.332z" stroke-width="1.0" stroke-linejoin="round" stroke="#aaaaaa"/><path fill="none" d="M26.486 40.663 L26.486 40.663z" stroke-width="1.0" stroke-linejoin="round" stroke="#757575"/><path fill="none" d="M26.036 0.0 L0.0 19.611 L0.0 71.359 L23.708 75.118004 L50.821 54.436005 L50.821 3.477 L26.036 0.0 L26.036 0.0z" stroke-width="1.0" stroke-linejoin="round" stroke="#757575"/><path fill="url(#id1)" d="M3.3709999920000002 42.981 L3.338 50.611001 L19.747 53.166001 L19.781000000000002 45.536000300000005 L3.37100023 42.981 L3.3709999920000002 42.981z" stroke="none"/><path fill="#757a8a" fill-opacity="1.0" d="M3.25399999 63.809998 L19.664 66.3659978 L19.653 68.2449956 L3.244 65.6890034 L3.25399999 63.8100056293945 L3.25399999 63.809998z" stroke="none"/><path fill="#757a8a" fill-opacity="1.0" d="M3.25399999 67.672 L19.664 70.2270003 L19.653 72.105998 L3.244 69.5510054 L3.25399999 67.6720076293945 L3.25399999 67.672z" stroke="none"/><path fill="#757a8a" fill-opacity="1.0" d="M3.2770000629999996 59.9480018146973 L19.687 62.504001599999995 L19.676000000000002 64.3820037 L3.268 61.8269996 L3.2779999899999996 59.947998 L3.2770000629999996 59.9480018146973z" stroke="none"/><path fill="#757a8a" fill-opacity="1.0" d="M3.301000229 56.086 L19.711000000000002 58.6410003 L19.7 60.520002 L3.291 57.9650016 L3.3009999899999998 56.086 L3.301000229 56.086z" stroke="none"/><path fill="#757a8a" fill-opacity="1.0" d="M3.323999906 52.224 L19.733999200000003 54.7799998 L19.7239992 56.657998 L3.3139992 54.1019984 L3.32399919 52.224 L3.323999906 52.224z" stroke="none"/><path fill="#757a8a" fill-opacity="1.0" d="M3.394999952 39.489 L19.805000200000002 42.0440003 L19.7950002 43.923002 L3.3850002 41.3680016 L3.3950001899999998 39.489 L3.394999952 39.489z" stroke="none"/><path fill="#757a8a" fill-opacity="1.0" d="M3.418999964 35.626 L19.828001 38.180000899999996 L19.818001 40.0590025 L3.408001 37.504002199999995 L3.419000918 35.6260038146973 L3.418999964 35.626z" stroke="none"/><path fill="#757a8a" fill-opacity="1.0" d="M3.441999956 31.765 L19.8509998 34.320000300000004 L19.8409998 36.196999 L3.4309998 33.6419989 L3.441999718 31.765 L3.441999956 31.765z" stroke="none"/><path fill="#757a8a" fill-opacity="1.0" d="M3.466000156 27.902 L19.875 30.4570003 L19.865000000000002 32.336002 L3.455 29.7810016 L3.465999918 27.902001907348602 L3.466000156 27.902z" stroke="none"/><path fill="#757a8a" fill-opacity="1.0" d="M3.466000156 24.04 L19.875 26.5950003 L19.865000000000002 28.474 L3.455 25.9189997 L3.465999918 24.04 L3.466000156 24.04z" stroke="none"/><path fill="#9ccc29" fill-opacity="1.0" d="M4.70399997683716 47.7820018 L8.6009998 48.390003500000006 L8.6009998 46.509003 L4.7039995 45.903004 L4.7039995 47.782005600000005 L4.70399997683716 47.7820018z" stroke-width="1.0" stroke-linejoin="round" stroke="#6d7384"/><path fill="#949ba8" fill-opacity="1.0" d="M78.344 8.0649995 L51.236999999999995 79.524 L27.982 24.128 L53.615001 4.525 L78.344 8.0650004 L78.344 8.0649995z" stroke="none"/><path fill="#757a8a" fill-opacity="1.0" d="M78.66999799999999 8.065 L52.144999899999995 28.328000000000003 L51.492 79.39 L78.539 58.952999999999996 L78.66999799999999 8.065 L78.66999799999999 8.065z" stroke="none"/><path fill="#8e9098" fill-opacity="1.0" d="M28.117 24.427 L51.492000000000004 28.3740005 L51.306 79.555998 L28.1200002594 75.72 L28.117 24.4270019073486 L28.117 24.427z" stroke="none"/><path fill="#9ea4ad" fill-opacity="1.0" d="M52.515999 28.553000500000003 L78.568001 8.5570002 L78.329003 7.9210005 L52.534001 26.964000499999997 Q51.093002999999996 27.379000499999997 50.528999 27.270998499999997 Q50.403874 27.2472835 46.840439 26.751890500000002 Q43.989533 26.3555555 39.080498 25.6771235 Q35.574814 25.192637499999996 31.3888132 24.6152985 Q30.0819304 24.435050500000003 28.8621943 24.266920499999998 Q28.25281165 24.1829205 27.904999 24.135000499999997 L27.904999 24.660998499999998 Q28.2578108 24.720091500000002 28.8757956 24.8236535 Q30.1117651 25.0307765 31.437624200000002 25.253108500000003 Q35.6803744 25.964575500000002 39.230999 26.561373500000002 Q44.20179 27.396876499999998 47.078373 27.883700500000003 Q50.673996 28.492217500000002 50.772999 28.5180005 Q51.062 28.593000500000002 51.129997 28.9690005 L51.129997 79.33600050000001 L51.690999000000005 79.7810005 Q52.198998 78.9940005 52.198998 77.8870005 Q52.198998 76.81880050000001 52.199409 73.9710905 Q52.199578 72.80374450000001 52.199856 71.04041050000001 Q52.199996999999996 70.1480005 52.200405 67.6127405 Q52.200783 65.2536455 52.201012 63.8016655 Q52.201359 61.5867685 52.201634 59.720800499999996 Q52.202332 54.980788499999996 52.202748 51.2041275 Q52.203255 46.575453499999995 52.203392 42.9715645 Q52.203548999999995 38.8282005 52.203216999999995 35.9319525 Q52.202442000000005 29.176210500000003 52.198998 29.0670005 Q52.185997 28.711000499999997 52.514999 28.551001499999998 L52.515999 28.553000500000003z" stroke="none"/><path fill="none" d="M54.393 25.857 L54.393 25.857z" stroke-width="1.0" stroke-linejoin="round" stroke="#aaaaaa"/><path fill="none" d="M54.393 45.188 L54.393 45.188z" stroke-width="1.0" stroke-linejoin="round" stroke="#757575"/><path fill="none" d="M53.941003 4.525 L27.905003 24.134999999999998 L27.905003 75.88300000000001 L51.613003 79.643004 L78.726006 58.961005 L78.726006 8.001000300000001 L53.941003 4.525 L53.941003 4.525z" stroke-width="1.0" stroke-linejoin="round" stroke="#757575"/><path fill="url(#id2)" d="M31.277000946 47.506 L31.244 55.1350016 L47.652 57.691001 L47.687 50.0610003 L31.277000946 47.506 L31.277000946 47.506z" stroke="none"/><path fill="#757a8a" fill-opacity="1.0" d="M31.159999586999998 68.335 L47.569 70.8900003 L47.557998 72.768998 L31.148998 70.21399779999999 L31.15999768 68.335 L31.159999586999998 68.335z" stroke="none"/><path fill="#757a8a" fill-opacity="1.0" d="M31.159999586999998 72.198 L47.569 74.7530003 L47.557998 76.631998 L31.148998 74.07699779999999 L31.15999768 72.198 L31.159999586999998 72.198z" stroke="none"/><path fill="#757a8a" fill-opacity="1.0" d="M31.18399968 64.473 L47.593002 67.0289998 L47.581999999999994 68.906998 L31.173 66.35199779999999 L31.18399968 64.473 L31.18399968 64.473z" stroke="none"/><path fill="#757a8a" fill-opacity="1.0" d="M31.207001136000002 60.6119998146973 L47.616002 63.167000099999996 L47.60499900000001 65.045998 L31.196999 62.4909976 L31.206999229 60.611996 L31.207001136000002 60.6119998146973z" stroke="none"/><path fill="#757a8a" fill-opacity="1.0" d="M31.229999136 56.75 L47.639999 59.3059998 L47.628997 61.1829987 L31.219997 58.6279984 L31.229997229 56.75 L31.229999136 56.75z" stroke="none"/><path fill="#757a8a" fill-opacity="1.0" d="M31.301000229 44.014 L47.710998000000004 46.569000300000006 L47.7 48.448002 L31.291 45.8920022 L31.301000229 44.014003814697304 L31.301000229 44.014z" stroke="none"/><path fill="#757a8a" fill-opacity="1.0" d="M31.324000229 40.152 L47.734002000000004 42.7060009 L47.723 44.5850025 L31.314 42.029998400000004 L31.324000229 40.152 L31.324000229 40.152z" stroke="none"/><path fill="#757a8a" fill-opacity="1.0" d="M31.347999136000002 36.29 L47.757999 38.8450003 L47.746997 40.7229987 L31.337997 38.166998899999996 L31.347997229 36.29 L31.347999136000002 36.29z" stroke="none"/><path fill="#757a8a" fill-opacity="1.0" d="M31.371000044 32.428 L47.780998 34.9830003 L47.769996 36.862002 L31.360996 34.3070016 L31.370996229 32.428 L31.371000044 32.428z" stroke="none"/><path fill="#757a8a" fill-opacity="1.0" d="M31.371000778 28.565 L47.780998999999994 31.1200003 L47.771 32.9999995 L31.362 30.4449992 L31.372000228999998 28.5659994507 L31.371000778 28.565z" stroke="none"/><path fill="#9ccc29" fill-opacity="1.0" d="M32.609 52.306999600000005 L36.506998800000005 52.913998 L36.506998800000005 51.033997 L32.609 50.427998 L32.609 52.306999600000005 L32.609 52.306999600000005z" stroke-width="1.0" stroke-linejoin="round" stroke="#6d7384"/></g><path fill="none" stroke-linejoin="round" d="M156.5005 138.50099999999998 L282.9999999999999 109.309" stroke="#000000" marker-start="url(#id3)" stroke-width="2.0" marker-end="url(#id4)"/><g transform="translate(82.99999999999989 85.0)"><defs><clipPath id="id5"><path d="M0 0 L172.0 0 L172.0 22.0 L0 22.0z"/></clipPath></defs><text font-size="16" clip-path="url(#id5)" text-decoration="none" fill="#000000" font-family="Calibri" font-style="normal" font-weight="normal"><tspan x="2.0" xml:space="preserve" y="17.0" textLength="103.0">Closer to reality</tspan></text></g><g transform="translate(282.9999999999999 85.0)"><path fill="#dcdde2" fill-opacity="1.0" d="M88.54599501000001 12.654 L56.85100301 36.235 L0.09200001 23.141 L33.02100001 0.0 L88.54600001 12.654 L88.54599501000001 12.654z" stroke="none"/><path fill="#cbccd1" fill-opacity="1.0" d="M-0.15200001 23.494 L56.85099999 36.703 L56.85099999 48.584 L-0.15200001 35.178002 L-0.15200001 23.494 L-0.15200001 23.494z" stroke="none"/><path fill="#e3e3e5" fill-opacity="1.0" d="M12.905 28.934 L54.409 38.829002 L54.409 46.059002 L12.905 36.0320015 L12.905 28.934001907348602 L12.905 28.934z" stroke="none"/><path fill="#bec0c6" fill-opacity="1.0" d="M88.93100000000001 12.654 L56.222 35.754002 L56.851001600000004 48.318 L88.998 24.345001 L88.93100000000001 12.6540009536743 L88.93100000000001 12.654z" stroke="none"/><path fill="#f4f4f4" fill-opacity="1.0" d="M58.06 36.835999 L88.812004 13.233999 L88.53001 12.483999 L56.812 35.126999 Q56.38 35.448997000000006 55.714 35.323997000000006 Q55.56663 35.296177 46.8277 33.387329 Q43.107456 32.574714 37.897217 31.435844 Q33.32002 30.435349000000002 27.696125 29.205625 Q22.903204 28.157604 17.515142 26.979204000000003 Q13.235386 26.043195 8.644984 25.039108 Q5.362713 24.321155 2.3763654 23.6678655 Q0.8638282 23.336986000000003 0.0 23.148000000000003 L0.0 23.771 Q0.8697343 23.973125000000003 2.3924334 24.3270185 Q5.437832 25.034809000000003 8.702656 25.793655 Q13.284103 26.858528 17.63005 27.868778 Q23.075314 29.134569 27.873999 30.250249 Q33.555195 31.571109 38.13389 32.635940000000005 Q43.378277 33.855587 47.109093 34.723715999999996 Q55.886135 36.766063 56.003 36.797001 Q56.343998 36.885002 56.425 37.327999000000005 L56.425 48.424001000000004 L56.850998 48.318999000000005 Q57.685997 48.161001 57.685997 46.855999 Q57.685997 37.477249 57.684998 37.445999 Q57.670998 37.023998000000006 58.059998 36.836998 L58.06 36.835999z" stroke="none"/><path fill="none" d="M33.405 0.0 L0.0 23.148 L0.0 34.953003 L56.994 48.617004 L88.998 24.345005 L88.998 12.578 L33.405 0.0 L33.405 0.0z" stroke-width="1.0" stroke-linejoin="round" stroke="#757575"/><path fill="none" d="M60.274 33.657 L60.274 33.657z" stroke-width="1.0" stroke-linejoin="round" stroke="#aaaaaa"/><path fill="#757575" fill-opacity="1.0" d="M25.736999599999997 33.4199999 L20.83 32.281 L20.83 35.983999 L21.842001 36.6009997 L24.533001 37.923002 L24.533001 37.2750033 L25.735999999999997 37.1390017 L25.735999999999997 33.4199999 L25.736999599999997 33.4199999z" stroke="none"/><path fill="#757575" fill-opacity="1.0" d="M18.9389996 31.730999100000002 L14.032 30.594 L14.032 34.297001 L14.6019997 34.430000400000004 L14.6019997 34.8030015 L15.0449995 35.625 L17.734999000000002 36.236000000000004 L18.0499996 35.2420007 L18.938 35.4510004 L18.938 31.7299997 L18.9389996 31.730999100000002z" stroke="none"/><path fill="#757575" fill-opacity="1.0" d="M32.534001 34.917001 L27.626 33.78 L27.626 37.482999 L28.1959997 37.6159985 L28.6399999 38.0999997 L28.6399999 38.810998 L31.331000000000003 39.4219983 L31.647000000000002 38.8519986 L31.647000000000002 38.427999 L32.534001 38.6369984 L32.534001 34.9159978 L32.534001 34.917001z" stroke="none"/><path fill="#757575" fill-opacity="1.0" d="M39.331001 36.5079999 L34.425003 35.369 L34.425003 39.071999 L34.99400324 39.2069974 L34.99400324 39.5799985 L38.12700649999999 41.011002 L38.12700649999999 40.3630033 L39.330009399999994 40.226006 L39.330009399999994 36.5070043 L39.331001 36.5079999z" stroke="none"/><path fill="#757575" fill-opacity="1.0" d="M46.127998000000005 38.098001 L41.222 36.961 L41.222 40.663999 L41.7900008 40.7969985 L42.234001 41.991997999999995 L44.9239997 42.602998299999996 L44.9239997 41.9549995 L46.127002600000004 41.8190017 L46.127002600000004 38.098001 L46.127998000000005 38.098001z" stroke="none"/><path fill="#757575" fill-opacity="1.0" d="M52.924999 39.689999900000004 L48.018997 38.551 L48.018997 42.253999 L48.588996699999996 42.3889974 L48.588996699999996 42.759996 L49.031997499999996 43.583997000000004 L51.721996 44.1929983 L52.0369947 43.200002000000005 L52.923996 43.409001700000005 L52.923996 39.689999900000004 L52.924999 39.689999900000004z" stroke="none"/><path fill="#757575" fill-opacity="1.0" d="M1.911 28.0919983 L10.661 30.1489975 L10.661 28.7269966 L1.911 26.7 L1.911 28.0929996 L1.911 28.0919983z" stroke="none"/><path fill="#757575" fill-opacity="1.0" d="M1.911 30.573000200000003 L10.661 32.6300013 L10.661 31.2080004 L1.91100023841858 29.181 L1.91100023841858 30.5739996 L1.911 30.573000200000003z" stroke="none"/><path fill="#757575" fill-opacity="1.0" d="M1.911 32.9630012 L10.661 35.0220031 L10.661 33.5999984 L1.91100023841858 31.572998 L1.91100023841858 32.9639968 L1.911 32.9630012z" stroke="none"/></g><g transform="translate(282.9999999999999 179.69099999999997)"><path fill="#949ba8" fill-opacity="1.0" d="M88.54699498000001 12.654 L56.85199598 36.234 L0.09399998 23.14 L33.02099998 0.0 L88.54599998 12.654 L88.54699498000001 12.654z" stroke="none"/><path fill="#828999" fill-opacity="1.0" d="M-0.15 23.494 L56.852000000000004 36.703 L56.852000000000004 48.584 L-0.15 35.175999 L-0.15 23.494 L-0.15 23.494z" stroke="none"/><path fill="#757a8a" fill-opacity="1.0" d="M88.932 12.6540004044 L56.223 35.754002 L56.8520016 48.318 L88.99799999999999 24.344 L88.932 12.653 L88.932 12.6540004044z" stroke="none"/><path fill="#a8acb2" fill-opacity="1.0" d="M58.061 36.835 L88.813 13.2339994 L88.532005 12.482999 L56.813 35.126999999999995 Q56.38 35.448999 55.714 35.322998999999996 Q55.56655 35.295503 46.8277 33.386903000000004 Q43.09157 32.570916 37.897217 31.435598 Q33.358913 30.443669 27.696125 29.205499 Q22.93373 28.164201 17.515142 26.979153 Q13.231842 26.042392999999997 8.644984 25.039093 Q5.446259 24.339424 2.3763654 23.667866 Q0.8638282 23.336987 0.0 23.148001 L0.0 23.771 Q0.8697343 23.973141 2.3924356 24.327061 Q5.4395065 25.035288 8.702672 25.793796999999998 Q13.274599 26.856522 17.630104 27.869042 Q23.061964 29.131778999999998 27.874125 30.250626999999998 Q33.54539 31.569215 38.134132 32.636384 Q43.37783 33.855867 47.109516 34.724141 Q55.886784 36.766408999999996 56.004 36.797002 Q56.344 36.885003 56.425003 37.328 L56.425003 48.424999 L56.852 48.319999 Q57.686 48.160001 57.686 46.856999 Q57.686 37.446 57.686 37.446 Q57.671 37.024999 58.061 36.836999 L58.061 36.835z" stroke="none"/><path fill="none" d="M33.404 0.0 L0.0 23.148 L0.0 34.954002 L56.996 48.618004 L88.998 24.345003 L88.998 12.578 L33.404 0.0 L33.404 0.0z" stroke-width="1.0" stroke-linejoin="round" stroke="#757575"/><path fill="none" d="M60.275 33.655 L60.275 33.655z" stroke-width="1.0" stroke-linejoin="round" stroke="#aaaaaa"/><path fill="#9ccc29" fill-opacity="1.0" d="M43.961 36.44 L43.961 39.3779997 L53.788999 41.6909995 L53.788999 38.717999899999995 L43.961 36.4409994507 L43.961 36.44z" stroke-width="1.0" stroke-linejoin="round" stroke="#6d7384"/><path fill="#6d7384" fill-opacity="1.0" d="M1.938 32.4339985 L54.215 44.730999 L54.215 42.897 L1.938 30.782 L1.938 32.4339985 L1.938 32.4339985z" stroke="none"/><path fill="#6d7384" fill-opacity="1.0" d="M42.086000000000006 37.091999 L1.938 27.788 L1.938 29.4400004 L42.086000000000006 38.885002 L42.086000000000006 37.092003 L42.086000000000006 37.091999z" stroke="none"/></g><g transform="translate(436.0 179.69099999999997)"><path fill="#949ba8" fill-opacity="1.0" d="M88.54699498000001 12.654 L56.85199598 36.234 L0.09399998 23.14 L33.02099998 0.0 L88.54599998 12.654 L88.54699498000001 12.654z" stroke="none"/><path fill="#828999" fill-opacity="1.0" d="M-0.15 23.494 L56.852000000000004 36.703 L56.852000000000004 48.584 L-0.15 35.175999 L-0.15 23.494 L-0.15 23.494z" stroke="none"/><path fill="#757a8a" fill-opacity="1.0" d="M88.932 12.6540004044 L56.223 35.754002 L56.8520016 48.318 L88.99799999999999 24.344 L88.932 12.653 L88.932 12.6540004044z" stroke="none"/><path fill="#a8acb2" fill-opacity="1.0" d="M58.061 36.835 L88.813 13.2339994 L88.532005 12.482999 L56.813 35.126999999999995 Q56.38 35.448999 55.714 35.322998999999996 Q55.56655 35.295503 46.8277 33.386903000000004 Q43.09157 32.570916 37.897217 31.435598 Q33.358913 30.443669 27.696125 29.205499 Q22.93373 28.164201 17.515142 26.979153 Q13.231842 26.042392999999997 8.644984 25.039093 Q5.446259 24.339424 2.3763654 23.667866 Q0.8638282 23.336987 0.0 23.148001 L0.0 23.771 Q0.8697343 23.973141 2.3924356 24.327061 Q5.4395065 25.035288 8.702672 25.793796999999998 Q13.274599 26.856522 17.630104 27.869042 Q23.061964 29.131778999999998 27.874125 30.250626999999998 Q33.54539 31.569215 38.134132 32.636384 Q43.37783 33.855867 47.109516 34.724141 Q55.886784 36.766408999999996 56.004 36.797002 Q56.344 36.885003 56.425003 37.328 L56.425003 48.424999 L56.852 48.319999 Q57.686 48.160001 57.686 46.856999 Q57.686 37.446 57.686 37.446 Q57.671 37.024999 58.061 36.836999 L58.061 36.835z" stroke="none"/><path fill="none" d="M33.404 0.0 L0.0 23.148 L0.0 34.954002 L56.996 48.618004 L88.998 24.345003 L88.998 12.578 L33.404 0.0 L33.404 0.0z" stroke-width="1.0" stroke-linejoin="round" stroke="#757575"/><path fill="none" d="M60.275 33.655 L60.275 33.655z" stroke-width="1.0" stroke-linejoin="round" stroke="#aaaaaa"/><path fill="#9ccc29" fill-opacity="1.0" d="M43.961 36.44 L43.961 39.3779997 L53.788999 41.6909995 L53.788999 38.717999899999995 L43.961 36.4409994507 L43.961 36.44z" stroke-width="1.0" stroke-linejoin="round" stroke="#6d7384"/><path fill="#6d7384" fill-opacity="1.0" d="M1.938 32.4339985 L54.215 44.730999 L54.215 42.897 L1.938 30.782 L1.938 32.4339985 L1.938 32.4339985z" stroke="none"/><path fill="#6d7384" fill-opacity="1.0" d="M42.086000000000006 37.091999 L1.938 27.788 L1.938 29.4400004 L42.086000000000006 38.885002 L42.086000000000006 37.092003 L42.086000000000006 37.091999z" stroke="none"/></g><g transform="translate(441.13550000000004 53.974999999999994)"><path fill="#949ba8" fill-opacity="1.0" d="M50.43800002 3.54 L23.33200102 74.999 L0.07700002 19.603 L25.70900002 0.0 L50.43800002 3.54 L50.43800002 3.54z" stroke="none"/><path fill="#757a8a" fill-opacity="1.0" d="M50.764999 3.54 L24.238000399999997 23.802001 L23.586 74.86500000000001 L50.633003 54.427997 L50.764999 3.54 L50.764999 3.54z" stroke="none"/><path fill="#8e9098" fill-opacity="1.0" d="M0.21200001 19.902 L23.58600001 23.849000500000002 L23.40100101 75.031997 L0.2149999714 71.196 L0.21200001 19.902 L0.21200001 19.902z" stroke="none"/><path fill="#9ea4ad" fill-opacity="1.0" d="M24.61 24.0280001 L50.662 4.032 L50.424 3.3960001 L24.629 22.4390001 Q23.188 22.8540001 22.623 22.7459981 Q22.4982 22.7222771 18.935015 22.227045099999998 Q16.085445 21.8309961 11.175375 21.1526261 Q7.67229 20.6686441 3.483797 20.091140099999997 Q2.1758516 19.9108071 0.9571934 19.7428781 Q0.34781253 19.6589071 0.0 19.6110001 Q0.35281253 20.1950931 0.97079694 20.298655099999998 Q2.2067657 20.5057761 3.5326252 20.728110100000002 Q7.7753754 21.4395771 11.326 22.0363751 Q16.296791 22.8718761 19.173374 23.358704099999997 Q22.768997 23.967218099999997 22.868 23.993000100000003 Q23.156 24.0680001 23.225 24.444000099999997 L23.225 74.8110001 L23.786001 75.2560001 Q24.293001 74.46900009999999 24.293001 73.36200009999999 Q24.293001 72.2938001 24.293411 69.44609009999999 Q24.29358 68.2787441 24.293858 66.5154201 Q24.293999 65.6230101 24.294407 63.0877421 Q24.294786 60.7286571 24.295015 59.2766721 Q24.295362 57.0617751 24.295637 55.1958101 Q24.296335 50.4557951 24.296751 46.6791341 Q24.29726 42.0504601 24.297396 38.4465701 Q24.297552 34.3032071 24.29722 31.4069601 Q24.296446 24.6512191 24.293001 24.542008099999997 Q24.281002 24.186007099999998 24.61 24.027008100000003 L24.61 24.0280001z" stroke="none"/><path fill="none" d="M26.486 21.332 L26.486 21.332z" stroke-width="1.0" stroke-linejoin="round" stroke="#aaaaaa"/><path fill="none" d="M26.486 40.663 L26.486 40.663z" stroke-width="1.0" stroke-linejoin="round" stroke="#757575"/><path fill="none" d="M26.036 0.0 L0.0 19.611 L0.0 71.359 L23.708 75.118004 L50.821 54.436005 L50.821 3.477 L26.036 0.0 L26.036 0.0z" stroke-width="1.0" stroke-linejoin="round" stroke="#757575"/><path fill="url(#id6)" d="M3.3709999920000002 42.981 L3.338 50.611001 L19.747 53.166001 L19.781000000000002 45.536000300000005 L3.37100023 42.981 L3.3709999920000002 42.981z" stroke="none"/><path fill="#757a8a" fill-opacity="1.0" d="M3.25399999 63.809998 L19.664 66.3659978 L19.653 68.2449956 L3.244 65.6890034 L3.25399999 63.8100056293945 L3.25399999 63.809998z" stroke="none"/><path fill="#757a8a" fill-opacity="1.0" d="M3.25399999 67.672 L19.664 70.2270003 L19.653 72.105998 L3.244 69.5510054 L3.25399999 67.6720076293945 L3.25399999 67.672z" stroke="none"/><path fill="#757a8a" fill-opacity="1.0" d="M3.2770000629999996 59.9480018146973 L19.687 62.504001599999995 L19.676000000000002 64.3820037 L3.268 61.8269996 L3.2779999899999996 59.947998 L3.2770000629999996 59.9480018146973z" stroke="none"/><path fill="#757a8a" fill-opacity="1.0" d="M3.301000229 56.086 L19.711000000000002 58.6410003 L19.7 60.520002 L3.291 57.9650016 L3.3009999899999998 56.086 L3.301000229 56.086z" stroke="none"/><path fill="#757a8a" fill-opacity="1.0" d="M3.323999906 52.224 L19.733999200000003 54.7799998 L19.7239992 56.657998 L3.3139992 54.1019984 L3.32399919 52.224 L3.323999906 52.224z" stroke="none"/><path fill="#757a8a" fill-opacity="1.0" d="M3.394999952 39.489 L19.805000200000002 42.0440003 L19.7950002 43.923002 L3.3850002 41.3680016 L3.3950001899999998 39.489 L3.394999952 39.489z" stroke="none"/><path fill="#757a8a" fill-opacity="1.0" d="M3.418999964 35.626 L19.828001 38.180000899999996 L19.818001 40.0590025 L3.408001 37.504002199999995 L3.419000918 35.6260038146973 L3.418999964 35.626z" stroke="none"/><path fill="#757a8a" fill-opacity="1.0" d="M3.441999956 31.765 L19.8509998 34.320000300000004 L19.8409998 36.196999 L3.4309998 33.6419989 L3.441999718 31.765 L3.441999956 31.765z" stroke="none"/><path fill="#757a8a" fill-opacity="1.0" d="M3.466000156 27.902 L19.875 30.4570003 L19.865000000000002 32.336002 L3.455 29.7810016 L3.465999918 27.902001907348602 L3.466000156 27.902z" stroke="none"/><path fill="#757a8a" fill-opacity="1.0" d="M3.466000156 24.04 L19.875 26.5950003 L19.865000000000002 28.474 L3.455 25.9189997 L3.465999918 24.04 L3.466000156 24.04z" stroke="none"/><path fill="#9ccc29" fill-opacity="1.0" d="M4.70399997683716 47.7820018 L8.6009998 48.390003500000006 L8.6009998 46.509003 L4.7039995 45.903004 L4.7039995 47.782005600000005 L4.70399997683716 47.7820018z" stroke-width="1.0" stroke-linejoin="round" stroke="#6d7384"/><path fill="#949ba8" fill-opacity="1.0" d="M78.344 8.0649995 L51.236999999999995 79.524 L27.982 24.128 L53.615001 4.525 L78.344 8.0650004 L78.344 8.0649995z" stroke="none"/><path fill="#757a8a" fill-opacity="1.0" d="M78.66999799999999 8.065 L52.144999899999995 28.328000000000003 L51.492 79.39 L78.539 58.952999999999996 L78.66999799999999 8.065 L78.66999799999999 8.065z" stroke="none"/><path fill="#8e9098" fill-opacity="1.0" d="M28.117 24.427 L51.492000000000004 28.3740005 L51.306 79.555998 L28.1200002594 75.72 L28.117 24.4270019073486 L28.117 24.427z" stroke="none"/><path fill="#9ea4ad" fill-opacity="1.0" d="M52.515999 28.553000500000003 L78.568001 8.5570002 L78.329003 7.9210005 L52.534001 26.964000499999997 Q51.093002999999996 27.379000499999997 50.528999 27.270998499999997 Q50.403874 27.2472835 46.840439 26.751890500000002 Q43.989533 26.3555555 39.080498 25.6771235 Q35.574814 25.192637499999996 31.3888132 24.6152985 Q30.0819304 24.435050500000003 28.8621943 24.266920499999998 Q28.25281165 24.1829205 27.904999 24.135000499999997 L27.904999 24.660998499999998 Q28.2578108 24.720091500000002 28.8757956 24.8236535 Q30.1117651 25.0307765 31.437624200000002 25.253108500000003 Q35.6803744 25.964575500000002 39.230999 26.561373500000002 Q44.20179 27.396876499999998 47.078373 27.883700500000003 Q50.673996 28.492217500000002 50.772999 28.5180005 Q51.062 28.593000500000002 51.129997 28.9690005 L51.129997 79.33600050000001 L51.690999000000005 79.7810005 Q52.198998 78.9940005 52.198998 77.8870005 Q52.198998 76.81880050000001 52.199409 73.9710905 Q52.199578 72.80374450000001 52.199856 71.04041050000001 Q52.199996999999996 70.1480005 52.200405 67.6127405 Q52.200783 65.2536455 52.201012 63.8016655 Q52.201359 61.5867685 52.201634 59.720800499999996 Q52.202332 54.980788499999996 52.202748 51.2041275 Q52.203255 46.575453499999995 52.203392 42.9715645 Q52.203548999999995 38.8282005 52.203216999999995 35.9319525 Q52.202442000000005 29.176210500000003 52.198998 29.0670005 Q52.185997 28.711000499999997 52.514999 28.551001499999998 L52.515999 28.553000500000003z" stroke="none"/><path fill="none" d="M54.393 25.857 L54.393 25.857z" stroke-width="1.0" stroke-linejoin="round" stroke="#aaaaaa"/><path fill="none" d="M54.393 45.188 L54.393 45.188z" stroke-width="1.0" stroke-linejoin="round" stroke="#757575"/><path fill="none" d="M53.941003 4.525 L27.905003 24.134999999999998 L27.905003 75.88300000000001 L51.613003 79.643004 L78.726006 58.961005 L78.726006 8.001000300000001 L53.941003 4.525 L53.941003 4.525z" stroke-width="1.0" stroke-linejoin="round" stroke="#757575"/><path fill="url(#id7)" d="M31.277000946 47.506 L31.244 55.1350016 L47.652 57.691001 L47.687 50.0610003 L31.277000946 47.506 L31.277000946 47.506z" stroke="none"/><path fill="#757a8a" fill-opacity="1.0" d="M31.159999586999998 68.335 L47.569 70.8900003 L47.557998 72.768998 L31.148998 70.21399779999999 L31.15999768 68.335 L31.159999586999998 68.335z" stroke="none"/><path fill="#757a8a" fill-opacity="1.0" d="M31.159999586999998 72.198 L47.569 74.7530003 L47.557998 76.631998 L31.148998 74.07699779999999 L31.15999768 72.198 L31.159999586999998 72.198z" stroke="none"/><path fill="#757a8a" fill-opacity="1.0" d="M31.18399968 64.473 L47.593002 67.0289998 L47.581999999999994 68.906998 L31.173 66.35199779999999 L31.18399968 64.473 L31.18399968 64.473z" stroke="none"/><path fill="#757a8a" fill-opacity="1.0" d="M31.207001136000002 60.6119998146973 L47.616002 63.167000099999996 L47.60499900000001 65.045998 L31.196999 62.4909976 L31.206999229 60.611996 L31.207001136000002 60.6119998146973z" stroke="none"/><path fill="#757a8a" fill-opacity="1.0" d="M31.229999136 56.75 L47.639999 59.3059998 L47.628997 61.1829987 L31.219997 58.6279984 L31.229997229 56.75 L31.229999136 56.75z" stroke="none"/><path fill="#757a8a" fill-opacity="1.0" d="M31.301000229 44.014 L47.710998000000004 46.569000300000006 L47.7 48.448002 L31.291 45.8920022 L31.301000229 44.014003814697304 L31.301000229 44.014z" stroke="none"/><path fill="#757a8a" fill-opacity="1.0" d="M31.324000229 40.152 L47.734002000000004 42.7060009 L47.723 44.5850025 L31.314 42.029998400000004 L31.324000229 40.152 L31.324000229 40.152z" stroke="none"/><path fill="#757a8a" fill-opacity="1.0" d="M31.347999136000002 36.29 L47.757999 38.8450003 L47.746997 40.7229987 L31.337997 38.166998899999996 L31.347997229 36.29 L31.347999136000002 36.29z" stroke="none"/><path fill="#757a8a" fill-opacity="1.0" d="M31.371000044 32.428 L47.780998 34.9830003 L47.769996 36.862002 L31.360996 34.3070016 L31.370996229 32.428 L31.371000044 32.428z" stroke="none"/><path fill="#757a8a" fill-opacity="1.0" d="M31.371000778 28.565 L47.780998999999994 31.1200003 L47.771 32.9999995 L31.362 30.4449992 L31.372000228999998 28.5659994507 L31.371000778 28.565z" stroke="none"/><path fill="#9ccc29" fill-opacity="1.0" d="M32.609 52.306999600000005 L36.506998800000005 52.913998 L36.506998800000005 51.033997 L32.609 50.427998 L32.609 52.306999600000005 L32.609 52.306999600000005z" stroke-width="1.0" stroke-linejoin="round" stroke="#6d7384"/></g><g transform="translate(669.4155000000001 69.48749999999998)"><path fill="#dcdde2" fill-opacity="1.0" d="M88.54599501000001 12.654 L56.85100301 36.235 L0.09200001 23.141 L33.02100001 0.0 L88.54600001 12.654 L88.54599501000001 12.654z" stroke="none"/><path fill="#cbccd1" fill-opacity="1.0" d="M-0.15200001 23.494 L56.85099999 36.703 L56.85099999 48.584 L-0.15200001 35.178002 L-0.15200001 23.494 L-0.15200001 23.494z" stroke="none"/><path fill="#e3e3e5" fill-opacity="1.0" d="M12.905 28.934 L54.409 38.829002 L54.409 46.059002 L12.905 36.0320015 L12.905 28.934001907348602 L12.905 28.934z" stroke="none"/><path fill="#bec0c6" fill-opacity="1.0" d="M88.93100000000001 12.654 L56.222 35.754002 L56.851001600000004 48.318 L88.998 24.345001 L88.93100000000001 12.6540009536743 L88.93100000000001 12.654z" stroke="none"/><path fill="#f4f4f4" fill-opacity="1.0" d="M58.06 36.835999 L88.812004 13.233999 L88.53001 12.483999 L56.812 35.126999 Q56.38 35.448997000000006 55.714 35.323997000000006 Q55.56663 35.296177 46.8277 33.387329 Q43.107456 32.574714 37.897217 31.435844 Q33.32002 30.435349000000002 27.696125 29.205625 Q22.903204 28.157604 17.515142 26.979204000000003 Q13.235386 26.043195 8.644984 25.039108 Q5.362713 24.321155 2.3763654 23.6678655 Q0.8638282 23.336986000000003 0.0 23.148000000000003 L0.0 23.771 Q0.8697343 23.973125000000003 2.3924334 24.3270185 Q5.437832 25.034809000000003 8.702656 25.793655 Q13.284103 26.858528 17.63005 27.868778 Q23.075314 29.134569 27.873999 30.250249 Q33.555195 31.571109 38.13389 32.635940000000005 Q43.378277 33.855587 47.109093 34.723715999999996 Q55.886135 36.766063 56.003 36.797001 Q56.343998 36.885002 56.425 37.327999000000005 L56.425 48.424001000000004 L56.850998 48.318999000000005 Q57.685997 48.161001 57.685997 46.855999 Q57.685997 37.477249 57.684998 37.445999 Q57.670998 37.023998000000006 58.059998 36.836998 L58.06 36.835999z" stroke="none"/><path fill="none" d="M33.405 0.0 L0.0 23.148 L0.0 34.953003 L56.994 48.617004 L88.998 24.345005 L88.998 12.578 L33.405 0.0 L33.405 0.0z" stroke-width="1.0" stroke-linejoin="round" stroke="#757575"/><path fill="none" d="M60.274 33.657 L60.274 33.657z" stroke-width="1.0" stroke-linejoin="round" stroke="#aaaaaa"/><path fill="#757575" fill-opacity="1.0" d="M25.736999599999997 33.4199999 L20.83 32.281 L20.83 35.983999 L21.842001 36.6009997 L24.533001 37.923002 L24.533001 37.2750033 L25.735999999999997 37.1390017 L25.735999999999997 33.4199999 L25.736999599999997 33.4199999z" stroke="none"/><path fill="#757575" fill-opacity="1.0" d="M18.9389996 31.730999100000002 L14.032 30.594 L14.032 34.297001 L14.6019997 34.430000400000004 L14.6019997 34.8030015 L15.0449995 35.625 L17.734999000000002 36.236000000000004 L18.0499996 35.2420007 L18.938 35.4510004 L18.938 31.7299997 L18.9389996 31.730999100000002z" stroke="none"/><path fill="#757575" fill-opacity="1.0" d="M32.534001 34.917001 L27.626 33.78 L27.626 37.482999 L28.1959997 37.6159985 L28.6399999 38.0999997 L28.6399999 38.810998 L31.331000000000003 39.4219983 L31.647000000000002 38.8519986 L31.647000000000002 38.427999 L32.534001 38.6369984 L32.534001 34.9159978 L32.534001 34.917001z" stroke="none"/><path fill="#757575" fill-opacity="1.0" d="M39.331001 36.5079999 L34.425003 35.369 L34.425003 39.071999 L34.99400324 39.2069974 L34.99400324 39.5799985 L38.12700649999999 41.011002 L38.12700649999999 40.3630033 L39.330009399999994 40.226006 L39.330009399999994 36.5070043 L39.331001 36.5079999z" stroke="none"/><path fill="#757575" fill-opacity="1.0" d="M46.127998000000005 38.098001 L41.222 36.961 L41.222 40.663999 L41.7900008 40.7969985 L42.234001 41.991997999999995 L44.9239997 42.602998299999996 L44.9239997 41.9549995 L46.127002600000004 41.8190017 L46.127002600000004 38.098001 L46.127998000000005 38.098001z" stroke="none"/><path fill="#757575" fill-opacity="1.0" d="M52.924999 39.689999900000004 L48.018997 38.551 L48.018997 42.253999 L48.588996699999996 42.3889974 L48.588996699999996 42.759996 L49.031997499999996 43.583997000000004 L51.721996 44.1929983 L52.0369947 43.200002000000005 L52.923996 43.409001700000005 L52.923996 39.689999900000004 L52.924999 39.689999900000004z" stroke="none"/><path fill="#757575" fill-opacity="1.0" d="M1.911 28.0919983 L10.661 30.1489975 L10.661 28.7269966 L1.911 26.7 L1.911 28.0929996 L1.911 28.0919983z" stroke="none"/><path fill="#757575" fill-opacity="1.0" d="M1.911 30.573000200000003 L10.661 32.6300013 L10.661 31.2080004 L1.91100023841858 29.181 L1.91100023841858 30.5739996 L1.911 30.573000200000003z" stroke="none"/><path fill="#757575" fill-opacity="1.0" d="M1.911 32.9630012 L10.661 35.0220031 L10.661 33.5999984 L1.91100023841858 31.572998 L1.91100023841858 32.9639968 L1.911 32.9630012z" stroke="none"/></g><g transform="translate(563.001 179.69099999999995)"><path fill="#dcdde2" fill-opacity="1.0" d="M88.54599501000001 12.654 L56.85100301 36.235 L0.09200001 23.141 L33.02100001 0.0 L88.54600001 12.654 L88.54599501000001 12.654z" stroke="none"/><path fill="#cbccd1" fill-opacity="1.0" d="M-0.15200001 23.494 L56.85099999 36.703 L56.85099999 48.584 L-0.15200001 35.178002 L-0.15200001 23.494 L-0.15200001 23.494z" stroke="none"/><path fill="#e3e3e5" fill-opacity="1.0" d="M12.905 28.934 L54.409 38.829002 L54.409 46.059002 L12.905 36.0320015 L12.905 28.934001907348602 L12.905 28.934z" stroke="none"/><path fill="#bec0c6" fill-opacity="1.0" d="M88.93100000000001 12.654 L56.222 35.754002 L56.851001600000004 48.318 L88.998 24.345001 L88.93100000000001 12.6540009536743 L88.93100000000001 12.654z" stroke="none"/><path fill="#f4f4f4" fill-opacity="1.0" d="M58.06 36.835999 L88.812004 13.233999 L88.53001 12.483999 L56.812 35.126999 Q56.38 35.448997000000006 55.714 35.323997000000006 Q55.56663 35.296177 46.8277 33.387329 Q43.107456 32.574714 37.897217 31.435844 Q33.32002 30.435349000000002 27.696125 29.205625 Q22.903204 28.157604 17.515142 26.979204000000003 Q13.235386 26.043195 8.644984 25.039108 Q5.362713 24.321155 2.3763654 23.6678655 Q0.8638282 23.336986000000003 0.0 23.148000000000003 L0.0 23.771 Q0.8697343 23.973125000000003 2.3924334 24.3270185 Q5.437832 25.034809000000003 8.702656 25.793655 Q13.284103 26.858528 17.63005 27.868778 Q23.075314 29.134569 27.873999 30.250249 Q33.555195 31.571109 38.13389 32.635940000000005 Q43.378277 33.855587 47.109093 34.723715999999996 Q55.886135 36.766063 56.003 36.797001 Q56.343998 36.885002 56.425 37.327999000000005 L56.425 48.424001000000004 L56.850998 48.318999000000005 Q57.685997 48.161001 57.685997 46.855999 Q57.685997 37.477249 57.684998 37.445999 Q57.670998 37.023998000000006 58.059998 36.836998 L58.06 36.835999z" stroke="none"/><path fill="none" d="M33.405 0.0 L0.0 23.148 L0.0 34.953003 L56.994 48.617004 L88.998 24.345005 L88.998 12.578 L33.405 0.0 L33.405 0.0z" stroke-width="1.0" stroke-linejoin="round" stroke="#757575"/><path fill="none" d="M60.274 33.657 L60.274 33.657z" stroke-width="1.0" stroke-linejoin="round" stroke="#aaaaaa"/><path fill="#757575" fill-opacity="1.0" d="M25.736999599999997 33.4199999 L20.83 32.281 L20.83 35.983999 L21.842001 36.6009997 L24.533001 37.923002 L24.533001 37.2750033 L25.735999999999997 37.1390017 L25.735999999999997 33.4199999 L25.736999599999997 33.4199999z" stroke="none"/><path fill="#757575" fill-opacity="1.0" d="M18.9389996 31.730999100000002 L14.032 30.594 L14.032 34.297001 L14.6019997 34.430000400000004 L14.6019997 34.8030015 L15.0449995 35.625 L17.734999000000002 36.236000000000004 L18.0499996 35.2420007 L18.938 35.4510004 L18.938 31.7299997 L18.9389996 31.730999100000002z" stroke="none"/><path fill="#757575" fill-opacity="1.0" d="M32.534001 34.917001 L27.626 33.78 L27.626 37.482999 L28.1959997 37.6159985 L28.6399999 38.0999997 L28.6399999 38.810998 L31.331000000000003 39.4219983 L31.647000000000002 38.8519986 L31.647000000000002 38.427999 L32.534001 38.6369984 L32.534001 34.9159978 L32.534001 34.917001z" stroke="none"/><path fill="#757575" fill-opacity="1.0" d="M39.331001 36.5079999 L34.425003 35.369 L34.425003 39.071999 L34.99400324 39.2069974 L34.99400324 39.5799985 L38.12700649999999 41.011002 L38.12700649999999 40.3630033 L39.330009399999994 40.226006 L39.330009399999994 36.5070043 L39.331001 36.5079999z" stroke="none"/><path fill="#757575" fill-opacity="1.0" d="M46.127998000000005 38.098001 L41.222 36.961 L41.222 40.663999 L41.7900008 40.7969985 L42.234001 41.991997999999995 L44.9239997 42.602998299999996 L44.9239997 41.9549995 L46.127002600000004 41.8190017 L46.127002600000004 38.098001 L46.127998000000005 38.098001z" stroke="none"/><path fill="#757575" fill-opacity="1.0" d="M52.924999 39.689999900000004 L48.018997 38.551 L48.018997 42.253999 L48.588996699999996 42.3889974 L48.588996699999996 42.759996 L49.031997499999996 43.583997000000004 L51.721996 44.1929983 L52.0369947 43.200002000000005 L52.923996 43.409001700000005 L52.923996 39.689999900000004 L52.924999 39.689999900000004z" stroke="none"/><path fill="#757575" fill-opacity="1.0" d="M1.911 28.0919983 L10.661 30.1489975 L10.661 28.7269966 L1.911 26.7 L1.911 28.0929996 L1.911 28.0919983z" stroke="none"/><path fill="#757575" fill-opacity="1.0" d="M1.911 30.573000200000003 L10.661 32.6300013 L10.661 31.2080004 L1.91100023841858 29.181 L1.91100023841858 30.5739996 L1.911 30.573000200000003z" stroke="none"/><path fill="#757575" fill-opacity="1.0" d="M1.911 32.9630012 L10.661 35.0220031 L10.661 33.5999984 L1.91100023841858 31.572998 L1.91100023841858 32.9639968 L1.911 32.9630012z" stroke="none"/></g><path fill="none" stroke-linejoin="round" d="M327.4989999999999 133.618 L327.4989999999999 179.69099999999997" stroke="#000000" marker-start="url(#id8)" stroke-width="2.0" marker-end="url(#id9)"/><path fill="none" stroke-linejoin="round" d="M371.99799999999993 191.84549999999996 L441.13550000000004 113.70724999999999" stroke="#000000" marker-start="url(#id10)" stroke-width="2.0" marker-end="url(#id11)"/><path fill="none" stroke-linejoin="round" d="M480.499 133.618 L480.499 179.69099999999997" stroke="#000000" marker-start="url(#id12)" stroke-width="2.0" marker-end="url(#id13)"/><path fill="none" stroke-linejoin="round" d="M524.998 203.99999999999997 L563.001 203.99999999999994" stroke="#000000" marker-start="url(#id14)" stroke-width="2.0" marker-end="url(#id15)"/><path fill="none" stroke-linejoin="round" d="M607.5 179.69099999999995 L691.6650000000001 118.10549999999999" stroke="#000000" marker-start="url(#id16)" stroke-width="2.0" marker-end="url(#id17)"/><path fill="none" stroke-linejoin="round" d="M736.1640000000001 118.10549999999999 L719.05 164.17849999999996" stroke="#000000" marker-start="url(#id18)" stroke-width="2.0" marker-end="url(#id19)"/></g></svg>