<svg xmlns="http://www.w3.org/2000/svg" xmlns:xlink="http://www.w3.org/1999/xlink" xmlns:lucid="lucid" width="985" height="708"><g transform="translate(-1261 -212)" lucid:page-tab-id="jNKfm1jp4hve"><path d="M0 0h3456v1360H0z" fill="#fff"/><path d="M1729.75 579.75c0 10.9-8.84 19.75-19.75 19.75-10.9 0-19.75-8.84-19.75-19.75 0-10.9 8.84-19.75 19.75-19.75 10.9 0 19.75 8.84 19.75 19.75z" stroke="#5e5e5e" stroke-width="3" fill="#fff"/><path d="M1710 599.5v49.3c0 3.3 1.44 8.27 3.2 11.07L1750 718m-40-63.2l-40 63.2m0-98.75h80" stroke="#5e5e5e" stroke-width="3" fill="none"/><path d="M1670 566c0-3.3 2.7-6 6-6h68c3.3 0 6 2.7 6 6v168c0 3.3-2.7 6-6 6h-68c-3.3 0-6-2.7-6-6z" fill="none"/><path d="M1619.75 579.75c0 10.9-8.84 19.75-19.75 19.75-10.9 0-19.75-8.84-19.75-19.75 0-10.9 8.84-19.75 19.75-19.75 10.9 0 19.75 8.84 19.75 19.75z" stroke="#5e5e5e" stroke-width="3" fill="#fff"/><path d="M1600 599.5v49.3c0 3.3 1.44 8.27 3.2 11.07L1640 718m-40-63.2l-40 63.2m0-98.75h80" stroke="#5e5e5e" stroke-width="3" fill="none"/><path d="M1560 566c0-3.3 2.7-6 6-6h68c3.3 0 6 2.7 6 6v168c0 3.3-2.7 6-6 6h-68c-3.3 0-6-2.7-6-6z" fill="none"/><path d="M1919.75 579.75c0 10.9-8.84 19.75-19.75 19.75-10.9 0-19.75-8.84-19.75-19.75 0-10.9 8.84-19.75 19.75-19.75 10.9 0 19.75 8.84 19.75 19.75z" stroke="#5e5e5e" stroke-width="3" fill="#fff"/><path d="M1900 599.5v49.3c0 3.3 1.44 8.27 3.2 11.07L1940 718m-40-63.2l-40 63.2m0-98.75h80" stroke="#5e5e5e" stroke-width="3" fill="none"/><path d="M1860 566c0-3.3 2.7-6 6-6h68c3.3 0 6 2.7 6 6v168c0 3.3-2.7 6-6 6h-68c-3.3 0-6-2.7-6-6z" fill="none"/><path d="M2119.75 579.75c0 10.9-8.84 19.75-19.75 19.75-10.9 0-19.75-8.84-19.75-19.75 0-10.9 8.84-19.75 19.75-19.75 10.9 0 19.75 8.84 19.75 19.75z" stroke="#5e5e5e" stroke-width="3" fill="#fff"/><path d="M2100 599.5v49.3c0 3.3 1.44 8.27 3.2 11.07L2140 718m-40-63.2l-40 63.2m0-98.75h80" stroke="#5e5e5e" stroke-width="3" fill="none"/><path d="M2060 566c0-3.3 2.7-6 6-6h68c3.3 0 6 2.7 6 6v168c0 3.3-2.7 6-6 6h-68c-3.3 0-6-2.7-6-6z" fill="none"/><path d="M1320 327.5c0-3.3 2.7-6 6-6h132c3.3 0 6 2.7 6 6v96c-24.05-17.03-39.02-17.03-48.1-17.03-14.4 0-33.55 17.03-47.95 17.03-8.93 0-24.05 0-47.95-17.03z" stroke="#5e5e5e" stroke-width="3" fill="#fff"/><path d="M1328 336.5c0-3.3 2.7-6 6-6h132c3.3 0 6 2.7 6 6v96c-24.05-17.03-39.02-17.03-48.1-17.03-14.4 0-33.55 17.03-47.95 17.03-8.93 0-24.05 0-47.95-17.03z" stroke="#5e5e5e" stroke-width="3" fill="#fff"/><path d="M1336 345.5c0-3.3 2.7-6 6-6h132c3.3 0 6 2.7 6 6v96c-24.05-17.03-39.02-17.03-48.1-17.03-14.4 0-33.55 17.03-47.95 17.03-8.93 0-24.05 0-47.95-17.03z" stroke="#5e5e5e" stroke-width="3" fill="#fff"/><use xlink:href="#a" transform="matrix(1,0,0,1,1341,344.5) translate(11.00617283950617 17.77777777777778)"/><use xlink:href="#b" transform="matrix(1,0,0,1,1341,344.5) translate(63.96913580246914 17.77777777777778)"/><use xlink:href="#c" transform="matrix(1,0,0,1,1341,344.5) translate(19.030864197530867 44.44444444444444)"/><use xlink:href="#d" transform="matrix(1,0,0,1,1341,344.5) translate(91.62345679012344 44.44444444444444)"/><path d="M1300 467.5c0-3.3 2.7-6 6-6h188c3.3 0 6 2.7 6 6v388c0 3.3-2.7 6-6 6h-188c-3.3 0-6-2.7-6-6z" stroke="#5e5e5e" stroke-width="3" fill="#fff"/><path d="M1320 487.5c0-3.3 2.7-6 6-6h132c3.3 0 6 2.7 6 6v96c-24.05-17.03-39.02-17.03-48.1-17.03-14.4 0-33.55 17.03-47.95 17.03-8.93 0-24.05 0-47.95-17.03z" stroke="#5e5e5e" stroke-width="3" fill="#fff"/><path d="M1328 496.5c0-3.3 2.7-6 6-6h132c3.3 0 6 2.7 6 6v96c-24.05-17.03-39.02-17.03-48.1-17.03-14.4 0-33.55 17.03-47.95 17.03-8.93 0-24.05 0-47.95-17.03z" stroke="#5e5e5e" stroke-width="3" fill="#fff"/><path d="M1336 505.5c0-3.3 2.7-6 6-6h132c3.3 0 6 2.7 6 6v96c-24.05-17.03-39.02-17.03-48.1-17.03-14.4 0-33.55 17.03-47.95 17.03-8.93 0-24.05 0-47.95-17.03z" stroke="#5e5e5e" stroke-width="3" fill="#fff"/><use xlink:href="#a" transform="matrix(1,0,0,1,1341,504.5) translate(11.00617283950617 17.77777777777778)"/><use xlink:href="#b" transform="matrix(1,0,0,1,1341,504.5) translate(63.96913580246914 17.77777777777778)"/><use xlink:href="#c" transform="matrix(1,0,0,1,1341,504.5) translate(19.030864197530867 44.44444444444444)"/><use xlink:href="#e" transform="matrix(1,0,0,1,1341,504.5) translate(91.62345679012344 44.44444444444444)"/><path d="M1800 327.5c0-3.3 2.7-6 6-6h388c3.3 0 6 2.7 6 6v208c0 3.3-2.7 6-6 6h-388c-3.3 0-6-2.7-6-6z" stroke="#5e5e5e" stroke-width="3" fill="#fff"/><path d="M1820 367.5c0-3.3 2.7-6 6-6h148c3.3 0 6 2.7 6 6v114c-26.72-20.04-43.36-20.04-53.44-20.04-16 0-37.28 20.04-53.28 20.04-9.92 0-26.72 0-53.28-20.04z" stroke="#5e5e5e" stroke-width="3" fill="#fff"/><use xlink:href="#f" transform="matrix(1,0,0,1,1825,366.5) translate(20.154320987654316 37.46527777777778)"/><use xlink:href="#g" transform="matrix(1,0,0,1,1825,366.5) translate(43.54938271604938 37.46527777777778)"/><use xlink:href="#h" transform="matrix(1,0,0,1,1825,366.5) translate(2.962962962962962 64.13194444444446)"/><use xlink:href="#c" transform="matrix(1,0,0,1,1825,366.5) translate(62.09876543209877 64.13194444444446)"/><use xlink:href="#i" transform="matrix(1,0,0,1,1825,366.5) translate(134.69135802469137 64.13194444444446)"/><path d="M1400 319v-33c0-3.3 2.7-6 6-6h486.67c3.3 0 6 2.7 6 6v55.5" stroke="#5e5e5e" stroke-width="2" fill="none"/><path d="M1401 320h-2v-1.03h2z" fill="#5e5e5e"/><path d="M1898.67 356.76l-4.64-14.26h9.27z" stroke="#5e5e5e" stroke-width="2" fill="#5e5e5e"/><path d="M1400 319v-33c0-3.3 2.7-6 6-6h686.67c3.3 0 6 2.7 6 6v55.5" stroke="#5e5e5e" stroke-width="2" fill="none"/><path d="M1401 320h-2v-1.03h2z" fill="#5e5e5e"/><path d="M2098.67 356.76l-4.64-14.26h9.27z" stroke="#5e5e5e" stroke-width="2" fill="#5e5e5e"/><path d="M1320 647.5c0-3.3 2.7-6 6-6h132c3.3 0 6 2.7 6 6v96c-24.05-17.03-39.02-17.03-48.1-17.03-14.4 0-33.55 17.03-47.95 17.03-8.93 0-24.05 0-47.95-17.03z" stroke="#5e5e5e" stroke-width="3" fill="#fff"/><path d="M1328 656.5c0-3.3 2.7-6 6-6h132c3.3 0 6 2.7 6 6v96c-24.05-17.03-39.02-17.03-48.1-17.03-14.4 0-33.55 17.03-47.95 17.03-8.93 0-24.05 0-47.95-17.03z" stroke="#5e5e5e" stroke-width="3" fill="#fff"/><path d="M1336 665.5c0-3.3 2.7-6 6-6h132c3.3 0 6 2.7 6 6v96c-24.05-17.03-39.02-17.03-48.1-17.03-14.4 0-33.55 17.03-47.95 17.03-8.93 0-24.05 0-47.95-17.03z" stroke="#5e5e5e" stroke-width="3" fill="#fff"/><use xlink:href="#a" transform="matrix(1,0,0,1,1341,664.5) translate(11.00617283950617 17.77777777777778)"/><use xlink:href="#b" transform="matrix(1,0,0,1,1341,664.5) translate(63.96913580246914 17.77777777777778)"/><use xlink:href="#c" transform="matrix(1,0,0,1,1341,664.5) translate(19.030864197530867 44.44444444444444)"/><use xlink:href="#j" transform="matrix(1,0,0,1,1341,664.5) translate(91.62345679012344 44.44444444444444)"/><path d="M1540 329c0-3.3 2.7-6 6-6h188c3.3 0 6 2.7 6 6v208c0 3.3-2.7 6-6 6h-188c-3.3 0-6-2.7-6-6z" stroke="#5e5e5e" stroke-width="3" fill="#fff"/><use xlink:href="#k" transform="matrix(1,0,0,1,1545,328) translate(74.6604938271605 109.65277777777777)"/><path d="M1400 319v-33c0-3.3 2.7-6 6-6h228c3.3 0 6 2.7 6 6v57" stroke="#5e5e5e" stroke-width="2" fill="none"/><path d="M1401 320h-2v-1.03h2z" fill="#5e5e5e"/><path d="M1640 358.26l-4.64-14.26h9.28z" stroke="#5e5e5e" stroke-width="2" fill="#5e5e5e"/><path d="M2020 367.5c0-3.3 2.7-6 6-6h148c3.3 0 6 2.7 6 6v114c-26.72-20.04-43.36-20.04-53.44-20.04-16 0-37.28 20.04-53.28 20.04-9.92 0-26.72 0-53.28-20.04z" stroke="#5e5e5e" stroke-width="3" fill="#fff"/><g><use xlink:href="#f" transform="matrix(1,0,0,1,2025,366.5) translate(20.154320987654316 37.46527777777778)"/><use xlink:href="#g" transform="matrix(1,0,0,1,2025,366.5) translate(43.54938271604938 37.46527777777778)"/><use xlink:href="#h" transform="matrix(1,0,0,1,2025,366.5) translate(2.962962962962962 64.13194444444446)"/><use xlink:href="#c" transform="matrix(1,0,0,1,2025,366.5) translate(62.09876543209877 64.13194444444446)"/><use xlink:href="#l" transform="matrix(1,0,0,1,2025,366.5) translate(134.69135802469137 64.13194444444446)"/></g><path d="M2000 487.5c0-3.3 2.7-6 6-6h228c3.3 0 6 2.7 6 6v48c0 3.3-2.7 6-6 6h-228c-3.3 0-6-2.7-6-6z" stroke="#000" stroke-opacity="0" stroke-width="3" fill="#fff" fill-opacity="0"/><g><use xlink:href="#a" transform="matrix(1,0,0,1,2005,486.5) translate(57.06790123456789 30.27777777777778)"/><use xlink:href="#m" transform="matrix(1,0,0,1,2005,486.5) translate(110.03086419753086 30.27777777777778)"/><use xlink:href="#l" transform="matrix(1,0,0,1,2005,486.5) translate(160.58641975308643 30.27777777777778)"/></g><path d="M1280 807.5c0-3.3 2.7-6 6-6h228c3.3 0 6 2.7 6 6v48c0 3.3-2.7 6-6 6h-228c-3.3 0-6-2.7-6-6z" stroke="#000" stroke-opacity="0" stroke-width="3" fill="#fff" fill-opacity="0"/><g><use xlink:href="#a" transform="matrix(1,0,0,1,1285,806.5) translate(57.06790123456789 30.27777777777778)"/><use xlink:href="#m" transform="matrix(1,0,0,1,1285,806.5) translate(110.03086419753086 30.27777777777778)"/><use xlink:href="#i" transform="matrix(1,0,0,1,1285,806.5) translate(160.58641975308643 30.27777777777778)"/></g><path d="M1560 369c0-3.3 2.7-6 6-6h148c3.3 0 6 2.7 6 6v114c-26.72-20.04-43.36-20.04-53.44-20.04-16 0-37.28 20.04-53.28 20.04-9.92 0-26.72 0-53.28-20.04z" stroke="#5e5e5e" stroke-width="3" fill="#fff"/><g><use xlink:href="#f" transform="matrix(1,0,0,1,1565,368) translate(20.154320987654316 37.46527777777778)"/><use xlink:href="#g" transform="matrix(1,0,0,1,1565,368) translate(43.54938271604938 37.46527777777778)"/><use xlink:href="#h" transform="matrix(1,0,0,1,1565,368) translate(2.962962962962962 64.13194444444446)"/><use xlink:href="#c" transform="matrix(1,0,0,1,1565,368) translate(62.09876543209877 64.13194444444446)"/><use xlink:href="#d" transform="matrix(1,0,0,1,1565,368) translate(134.69135802469137 64.13194444444446)"/></g><path d="M1520 489c0-3.3 2.7-6 6-6h228c3.3 0 6 2.7 6 6v48c0 3.3-2.7 6-6 6h-228c-3.3 0-6-2.7-6-6z" stroke="#000" stroke-opacity="0" stroke-width="3" fill="#fff" fill-opacity="0"/><g><use xlink:href="#a" transform="matrix(1,0,0,1,1525,488) translate(57.06790123456789 30.27777777777778)"/><use xlink:href="#m" transform="matrix(1,0,0,1,1525,488) translate(110.03086419753086 30.27777777777778)"/><use xlink:href="#d" transform="matrix(1,0,0,1,1525,488) translate(160.58641975308643 30.27777777777778)"/></g><defs><path fill="#333" d="M206 0h-36l-40-164L89 0H53L-1-190h32L70-26l43-164h34l41 164 42-164h31" id="n"/><path fill="#333" d="M100-194c62-1 85 37 85 99 1 63-27 99-86 99S16-35 15-95c0-66 28-99 85-99zM99-20c44 1 53-31 53-75 0-43-8-75-51-75s-53 32-53 75 10 74 51 75" id="o"/><path fill="#333" d="M114-163C36-179 61-72 57 0H25l-1-190h30c1 12-1 29 2 39 6-27 23-49 58-41v29" id="p"/><path fill="#333" d="M143 0L79-87 56-68V0H24v-261h32v163l83-92h37l-77 82L181 0h-38" id="q"/><g id="a"><use transform="matrix(0.06172839506172839,0,0,0.06172839506172839,0,0)" xlink:href="#n"/><use transform="matrix(0.06172839506172839,0,0,0.06172839506172839,15.987654320987653,0)" xlink:href="#o"/><use transform="matrix(0.06172839506172839,0,0,0.06172839506172839,28.333333333333332,0)" xlink:href="#p"/><use transform="matrix(0.06172839506172839,0,0,0.06172839506172839,35.67901234567901,0)" xlink:href="#q"/></g><path fill="#333" d="M24-231v-30h32v30H24zM24 0v-190h32V0H24" id="r"/><path fill="#333" d="M59-47c-2 24 18 29 38 22v24C64 9 27 4 27-40v-127H5v-23h24l9-43h21v43h35v23H59v120" id="s"/><path fill="#333" d="M100-194c63 0 86 42 84 106H49c0 40 14 67 53 68 26 1 43-12 49-29l28 8c-11 28-37 45-77 45C44 4 14-33 15-96c1-61 26-98 85-98zm52 81c6-60-76-77-97-28-3 7-6 17-6 28h103" id="t"/><path fill="#333" d="M210-169c-67 3-38 105-44 169h-31v-121c0-29-5-50-35-48C34-165 62-65 56 0H25l-1-190h30c1 10-1 24 2 32 10-44 99-50 107 0 11-21 27-35 58-36 85-2 47 119 55 194h-31v-121c0-29-5-49-35-48" id="u"/><path fill="#333" d="M68-38c1 34 0 65-14 84H32c9-13 17-26 17-46H33v-38h35" id="v"/><g id="b"><use transform="matrix(0.06172839506172839,0,0,0.06172839506172839,0,0)" xlink:href="#r"/><use transform="matrix(0.06172839506172839,0,0,0.06172839506172839,4.876543209876543,0)" xlink:href="#s"/><use transform="matrix(0.06172839506172839,0,0,0.06172839506172839,11.049382716049383,0)" xlink:href="#t"/><use transform="matrix(0.06172839506172839,0,0,0.06172839506172839,23.395061728395063,0)" xlink:href="#u"/><use transform="matrix(0.06172839506172839,0,0,0.06172839506172839,41.85185185185185,0)" xlink:href="#v"/></g><path fill="#333" d="M115-194c55 1 70 41 70 98S169 2 115 4C84 4 66-9 55-30l1 105H24l-1-265h31l2 30c10-21 28-34 59-34zm-8 174c40 0 45-34 45-75s-6-73-45-74c-42 0-51 32-51 76 0 43 10 73 51 73" id="w"/><path fill="#333" d="M179-190L93 31C79 59 56 82 12 73V49c39 6 53-20 64-50L1-190h34L92-34l54-156h33" id="x"/><g id="c"><use transform="matrix(0.06172839506172839,0,0,0.06172839506172839,0,0)" xlink:href="#w"/><use transform="matrix(0.06172839506172839,0,0,0.06172839506172839,12.345679012345679,0)" xlink:href="#p"/><use transform="matrix(0.06172839506172839,0,0,0.06172839506172839,19.691358024691358,0)" xlink:href="#r"/><use transform="matrix(0.06172839506172839,0,0,0.06172839506172839,24.5679012345679,0)" xlink:href="#o"/><use transform="matrix(0.06172839506172839,0,0,0.06172839506172839,36.913580246913575,0)" xlink:href="#p"/><use transform="matrix(0.06172839506172839,0,0,0.06172839506172839,44.25925925925925,0)" xlink:href="#r"/><use transform="matrix(0.06172839506172839,0,0,0.06172839506172839,49.1358024691358,0)" xlink:href="#s"/><use transform="matrix(0.06172839506172839,0,0,0.06172839506172839,55.30864197530864,0)" xlink:href="#x"/></g><path fill="#333" d="M126-127c33 6 58 20 58 59 0 88-139 92-164 29-3-8-5-16-6-25l32-3c6 27 21 44 54 44 32 0 52-15 52-46 0-38-36-46-79-43v-28c39 1 72-4 72-42 0-27-17-43-46-43-28 0-47 15-49 41l-32-3c6-42 35-63 81-64 48-1 79 21 79 65 0 36-21 52-52 59" id="y"/><use transform="matrix(0.06172839506172839,0,0,0.06172839506172839,0,0)" xlink:href="#y" id="d"/><path fill="#333" d="M155-56V0h-30v-56H8v-25l114-167h33v167h35v25h-35zm-30-156c-27 46-58 90-88 131h88v-131" id="z"/><use transform="matrix(0.06172839506172839,0,0,0.06172839506172839,0,0)" xlink:href="#z" id="e"/><path fill="#333" d="M117-194c89-4 53 116 60 194h-32v-121c0-31-8-49-39-48C34-167 62-67 57 0H25l-1-190h30c1 10-1 24 2 32 11-22 29-35 61-36" id="A"/><g id="f"><use transform="matrix(0.06172839506172839,0,0,0.06172839506172839,0,0)" xlink:href="#r"/><use transform="matrix(0.06172839506172839,0,0,0.06172839506172839,4.876543209876543,0)" xlink:href="#A"/></g><path fill="#333" d="M177-190C167-65 218 103 67 71c-23-6-38-20-44-43l32-5c15 47 100 32 89-28v-30C133-14 115 1 83 1 29 1 15-40 15-95c0-56 16-97 71-98 29-1 48 16 59 35 1-10 0-23 2-32h30zM94-22c36 0 50-32 50-73 0-42-14-75-50-75-39 0-46 34-46 75s6 73 46 73" id="B"/><path fill="#333" d="M135-143c-3-34-86-38-87 0 15 53 115 12 119 90S17 21 10-45l28-5c4 36 97 45 98 0-10-56-113-15-118-90-4-57 82-63 122-42 12 7 21 19 24 35" id="C"/><g id="g"><use transform="matrix(0.06172839506172839,0,0,0.06172839506172839,0,0)" xlink:href="#w"/><use transform="matrix(0.06172839506172839,0,0,0.06172839506172839,12.345679012345679,0)" xlink:href="#p"/><use transform="matrix(0.06172839506172839,0,0,0.06172839506172839,19.691358024691358,0)" xlink:href="#o"/><use transform="matrix(0.06172839506172839,0,0,0.06172839506172839,32.03703703703704,0)" xlink:href="#B"/><use transform="matrix(0.06172839506172839,0,0,0.06172839506172839,44.382716049382715,0)" xlink:href="#p"/><use transform="matrix(0.06172839506172839,0,0,0.06172839506172839,51.72839506172839,0)" xlink:href="#t"/><use transform="matrix(0.06172839506172839,0,0,0.06172839506172839,64.07407407407408,0)" xlink:href="#C"/><use transform="matrix(0.06172839506172839,0,0,0.06172839506172839,75.18518518518519,0)" xlink:href="#C"/></g><g id="h"><use transform="matrix(0.06172839506172839,0,0,0.06172839506172839,0,0)" xlink:href="#n"/><use transform="matrix(0.06172839506172839,0,0,0.06172839506172839,15.987654320987653,0)" xlink:href="#o"/><use transform="matrix(0.06172839506172839,0,0,0.06172839506172839,28.333333333333332,0)" xlink:href="#p"/><use transform="matrix(0.06172839506172839,0,0,0.06172839506172839,35.67901234567901,0)" xlink:href="#q"/><use transform="matrix(0.06172839506172839,0,0,0.06172839506172839,46.79012345679013,0)" xlink:href="#v"/></g><path fill="#333" d="M101-251c82-7 93 87 43 132L82-64C71-53 59-42 53-27h129V0H18c2-99 128-94 128-182 0-28-16-43-45-43s-46 15-49 41l-32-3c6-41 34-60 81-64" id="D"/><use transform="matrix(0.06172839506172839,0,0,0.06172839506172839,0,0)" xlink:href="#D" id="i"/><path fill="#333" d="M54-142c48-35 137-8 131 61C196 18 31 33 14-55l32-4c7 23 22 37 52 37 35-1 51-22 54-58 4-55-73-65-99-34H22l8-134h141v27H59" id="E"/><use transform="matrix(0.06172839506172839,0,0,0.06172839506172839,0,0)" xlink:href="#E" id="j"/><path fill="#333" d="M127-220V0H93v-220H8v-28h204v28h-85" id="F"/><path fill="#333" d="M141 0L90-78 38 0H4l68-98-65-92h35l48 74 47-74h35l-64 92 68 98h-35" id="G"/><g id="k"><use transform="matrix(0.06172839506172839,0,0,0.06172839506172839,0,0)" xlink:href="#F"/><use transform="matrix(0.06172839506172839,0,0,0.06172839506172839,11.049382716049381,0)" xlink:href="#t"/><use transform="matrix(0.06172839506172839,0,0,0.06172839506172839,23.39506172839506,0)" xlink:href="#G"/><use transform="matrix(0.06172839506172839,0,0,0.06172839506172839,34.50617283950617,0)" xlink:href="#s"/></g><path fill="#333" d="M27 0v-27h64v-190l-56 39v-29l58-41h29v221h61V0H27" id="H"/><use transform="matrix(0.06172839506172839,0,0,0.06172839506172839,0,0)" xlink:href="#H" id="l"/><path fill="#333" d="M141-36C126-15 110 5 73 4 37 3 15-17 15-53c-1-64 63-63 125-63 3-35-9-54-41-54-24 1-41 7-42 31l-33-3c5-37 33-52 76-52 45 0 72 20 72 64v82c-1 20 7 32 28 27v20c-31 9-61-2-59-35zM48-53c0 20 12 33 32 33 41-3 63-29 60-74-43 2-92-5-92 41" id="I"/><g id="m"><use transform="matrix(0.06172839506172839,0,0,0.06172839506172839,0,0)" xlink:href="#I"/><use transform="matrix(0.06172839506172839,0,0,0.06172839506172839,12.345679012345679,0)" xlink:href="#p"/><use transform="matrix(0.06172839506172839,0,0,0.06172839506172839,19.691358024691358,0)" xlink:href="#t"/><use transform="matrix(0.06172839506172839,0,0,0.06172839506172839,32.03703703703704,0)" xlink:href="#I"/></g></defs></g></svg>