<svg version="1.1" viewBox="0.0 0.0 600.0 371.0" fill="none" stroke="none" stroke-linecap="square" stroke-miterlimit="10" width="600" height="371" xmlns:xlink="http://www.w3.org/1999/xlink" xmlns="http://www.w3.org/2000/svg"><path fill="#ffffff" d="M0 0L600.0 0L600.0 371.0L0 371.0L0 0Z" fill-rule="nonzero"/><path stroke="#333333" stroke-width="1.0" stroke-linecap="butt" d="M55.5 332.5L581.5 332.5" fill-rule="nonzero"/><path stroke="#cccccc" stroke-width="1.0" stroke-linecap="butt" d="M55.5 264.5L581.5 264.5" fill-rule="nonzero"/><path stroke="#cccccc" stroke-width="1.0" stroke-linecap="butt" d="M55.5 197.5L581.5 197.5" fill-rule="nonzero"/><path stroke="#cccccc" stroke-width="1.0" stroke-linecap="butt" d="M55.5 129.5L581.5 129.5" fill-rule="nonzero"/><path stroke="#cccccc" stroke-width="1.0" stroke-linecap="butt" d="M55.5 61.5L581.5 61.5" fill-rule="nonzero"/><clipPath id="id_0"><path d="M55.55 61.916668L581.45 61.916668L581.45 332.45L55.55 332.45L55.55 61.916668Z" clip-rule="nonzero"/></clipPath><path stroke="#000000" stroke-width="2.0" stroke-linecap="butt" stroke-opacity="0.0" clip-path="url(#id_0)" d="M138.0 332.0L84.0 332.0L84.0 97.0C84.0 95.89543 84.89543 95.0 86.0 95.0L136.0 95.0C137.10457 95.0 138.0 95.89543 138.0 97.0Z" fill-rule="nonzero"/><path fill="#4285f4" clip-path="url(#id_0)" d="M138.0 332.0L84.0 332.0L84.0 97.0C84.0 95.89543 84.89543 95.0 86.0 95.0L136.0 95.0C137.10457 95.0 138.0 95.89543 138.0 97.0Z" fill-rule="nonzero"/><path stroke="#000000" stroke-width="2.0" stroke-linecap="butt" stroke-opacity="0.0" clip-path="url(#id_0)" d="M221.0 332.0L167.0 332.0L167.0 136.0C167.0 134.89543 167.89543 134.0 169.0 134.0L219.0 134.0C220.10457 134.0 221.0 134.89543 221.0 136.0Z" fill-rule="nonzero"/><path fill="#4285f4" clip-path="url(#id_0)" d="M221.0 332.0L167.0 332.0L167.0 136.0C167.0 134.89543 167.89543 134.0 169.0 134.0L219.0 134.0C220.10457 134.0 221.0 134.89543 221.0 136.0Z" fill-rule="nonzero"/><path stroke="#000000" stroke-width="2.0" stroke-linecap="butt" stroke-opacity="0.0" clip-path="url(#id_0)" d="M304.0 332.0L250.0 332.0L250.0 175.0C250.0 173.89543 250.89543 173.0 252.0 173.0L302.0 173.0C303.10458 173.0 304.0 173.89543 304.0 175.0Z" fill-rule="nonzero"/><path fill="#4285f4" clip-path="url(#id_0)" d="M304.0 332.0L250.0 332.0L250.0 175.0C250.0 173.89543 250.89543 173.0 252.0 173.0L302.0 173.0C303.10458 173.0 304.0 173.89543 304.0 175.0Z" fill-rule="nonzero"/><path stroke="#000000" stroke-width="2.0" stroke-linecap="butt" stroke-opacity="0.0" clip-path="url(#id_0)" d="M387.0 332.0L333.0 332.0L333.0 214.0C333.0 212.89543 333.89542 212.0 335.0 212.0L385.0 212.0C386.10458 212.0 387.0 212.89543 387.0 214.0Z" fill-rule="nonzero"/><path fill="#4285f4" clip-path="url(#id_0)" d="M387.0 332.0L333.0 332.0L333.0 214.0C333.0 212.89543 333.89542 212.0 335.0 212.0L385.0 212.0C386.10458 212.0 387.0 212.89543 387.0 214.0Z" fill-rule="nonzero"/><path stroke="#000000" stroke-width="2.0" stroke-linecap="butt" stroke-opacity="0.0" clip-path="url(#id_0)" d="M470.0 332.0L416.0 332.0L416.0 253.0C416.0 251.89543 416.89542 251.0 418.0 251.0L468.0 251.0C469.10458 251.0 470.0 251.89543 470.0 253.0Z" fill-rule="nonzero"/><path fill="#4285f4" clip-path="url(#id_0)" d="M470.0 332.0L416.0 332.0L416.0 253.0C416.0 251.89543 416.89542 251.0 418.0 251.0L468.0 251.0C469.10458 251.0 470.0 251.89543 470.0 253.0Z" fill-rule="nonzero"/><path stroke="#000000" stroke-width="2.0" stroke-linecap="butt" stroke-opacity="0.0" clip-path="url(#id_0)" d="M553.0 332.0L499.0 332.0L499.0 293.0C499.0 291.89542 499.89542 291.0 501.0 291.0L551.0 291.0C552.10455 291.0 553.0 291.89542 553.0 293.0Z" fill-rule="nonzero"/><path fill="#4285f4" clip-path="url(#id_0)" d="M553.0 332.0L499.0 332.0L499.0 293.0C499.0 291.89542 499.89542 291.0 501.0 291.0L551.0 291.0C552.10455 291.0 553.0 291.89542 553.0 293.0Z" fill-rule="nonzero"/><path stroke="#4285f4" stroke-width="3.0" stroke-linejoin="round" stroke-linecap="round" d="M99.453125 101.85092L99.453125 103.6478L98.578125 103.6478L98.578125 101.85092L99.453125 101.85092ZM99.34375 111.42905L99.34375 112.99155L98.46875 112.99155L98.46875 111.42905L99.34375 111.42905ZM100.515625 109.56967Q100.515625 109.22592 100.359375 108.94467Q100.203125 108.66342 99.828125 108.42905Q99.46875 108.19467 98.859375 107.99155Q98.125 107.75717 97.578125 107.42905Q97.046875 107.10092 96.75 106.61655Q96.46875 106.13217 96.46875 105.44467Q96.46875 104.72592 96.78125 104.2103Q97.09375 103.67905 97.65625 103.3978Q98.234375 103.11655 99.0 103.11655Q99.59375 103.11655 100.0625 103.30405Q100.53125 103.47592 100.859375 103.8353Q101.1875 104.17905 101.359375 104.69467Q101.53125 105.19467 101.53125 105.86655L100.453125 105.86655Q100.453125 105.47592 100.359375 105.1478Q100.265625 104.81967 100.078125 104.5853Q99.890625 104.3353 99.609375 104.2103Q99.34375 104.06967 99.0 104.06967Q98.5 104.06967 98.1875 104.24155Q97.875 104.41342 97.71875 104.72592Q97.5625 105.0228 97.5625 105.42905Q97.5625 105.80405 97.71875 106.0853Q97.875 106.36655 98.234375 106.60092Q98.59375 106.81967 99.25 107.03842Q100.0 107.2728 100.53125 107.60092Q101.0625 107.92905 101.328125 108.3978Q101.609375 108.86655 101.609375 109.56967Q101.609375 110.31967 101.265625 110.8353Q100.921875 111.35092 100.3125 111.63217Q99.703125 111.8978 98.875 111.8978Q98.375 111.8978 97.890625 111.7728Q97.40625 111.63217 97.0 111.31967Q96.609375 111.00717 96.375 110.50717Q96.140625 109.99155 96.140625 109.25717L97.234375 109.25717Q97.234375 109.75717 97.375 110.0853Q97.515625 110.41342 97.75 110.60092Q98.0 110.78842 98.28125 110.86655Q98.578125 110.94467 98.875 110.94467Q99.390625 110.94467 99.75 110.78842Q100.125 110.61655 100.3125 110.30405Q100.515625 109.99155 100.515625 109.56967ZM104.796875 106.97592L105.5625 106.97592Q106.140625 106.97592 106.5 106.78842Q106.875 106.5853 107.0625 106.25717Q107.25 105.92905 107.25 105.50717Q107.25 105.0228 107.078125 104.69467Q106.921875 104.35092 106.59375 104.17905Q106.265625 104.00717 105.765625 104.00717Q105.296875 104.00717 104.953125 104.19467Q104.609375 104.36655 104.40625 104.69467Q104.21875 105.0228 104.21875 105.47592L103.125 105.47592Q103.125 104.81967 103.453125 104.28842Q103.78125 103.75717 104.375 103.44467Q104.96875 103.11655 105.765625 103.11655Q106.53125 103.11655 107.109375 103.3978Q107.6875 103.66342 108.015625 104.2103Q108.34375 104.74155 108.34375 105.53842Q108.34375 105.86655 108.1875 106.22592Q108.03125 106.5853 107.71875 106.91342Q107.40625 107.22592 106.90625 107.42905Q106.421875 107.63217 105.71875 107.63217L104.796875 107.63217L104.796875 106.97592ZM104.796875 107.86655L104.796875 107.2103L105.71875 107.2103Q106.53125 107.2103 107.0625 107.41342Q107.59375 107.60092 107.90625 107.92905Q108.21875 108.24155 108.34375 108.63217Q108.46875 109.00717 108.46875 109.3978Q108.46875 109.99155 108.265625 110.4603Q108.0625 110.91342 107.6875 111.24155Q107.328125 111.55405 106.828125 111.72592Q106.34375 111.8978 105.765625 111.8978Q105.203125 111.8978 104.71875 111.74155Q104.234375 111.56967 103.859375 111.2728Q103.484375 110.97592 103.265625 110.53842Q103.0625 110.0853 103.0625 109.5228L104.140625 109.5228Q104.140625 109.9603 104.328125 110.30405Q104.53125 110.63217 104.890625 110.81967Q105.265625 110.99155 105.765625 110.99155Q106.265625 110.99155 106.625 110.81967Q106.984375 110.6478 107.171875 110.30405Q107.375 109.94467 107.375 109.41342Q107.375 108.88217 107.15625 108.53842Q106.9375 108.19467 106.515625 108.03842Q106.109375 107.86655 105.5625 107.86655L104.796875 107.86655ZM110.34375 111.19467Q110.34375 110.92905 110.515625 110.74155Q110.6875 110.53842 111.015625 110.53842Q111.34375 110.53842 111.515625 110.74155Q111.6875 110.92905 111.6875 111.19467Q111.6875 111.4603 111.515625 111.66342Q111.34375 111.85092 111.015625 111.85092Q110.6875 111.85092 110.515625 111.66342Q110.34375 111.4603 110.34375 111.19467ZM114.578125 107.7103L113.71875 107.49155L114.140625 103.24155L118.515625 103.24155L118.515625 104.24155L115.0625 104.24155L114.796875 106.56967Q115.03125 106.42905 115.390625 106.31967Q115.765625 106.19467 116.234375 106.19467Q116.8125 106.19467 117.28125 106.3978Q117.75 106.60092 118.078125 106.97592Q118.421875 107.35092 118.59375 107.88217Q118.765625 108.3978 118.765625 109.05405Q118.765625 109.66342 118.59375 110.17905Q118.4375 110.69467 118.09375 111.0853Q117.765625 111.4603 117.25 111.67905Q116.75 111.8978 116.0625 111.8978Q115.546875 111.8978 115.09375 111.75717Q114.640625 111.60092 114.265625 111.30405Q113.90625 111.00717 113.6875 110.56967Q113.46875 110.13217 113.40625 109.5228L114.4375 109.5228Q114.5 110.00717 114.703125 110.3353Q114.921875 110.66342 115.265625 110.8353Q115.609375 110.99155 116.0625 110.99155Q116.453125 110.99155 116.75 110.86655Q117.046875 110.72592 117.25 110.47592Q117.46875 110.22592 117.578125 109.86655Q117.6875 109.50717 117.6875 109.06967Q117.6875 108.66342 117.5625 108.31967Q117.453125 107.97592 117.234375 107.72592Q117.015625 107.4603 116.703125 107.31967Q116.390625 107.16342 115.96875 107.16342Q115.4375 107.16342 115.15625 107.31967Q114.875 107.4603 114.578125 107.7103ZM123.765625 103.19467L123.765625 111.7728L122.6875 111.7728L122.6875 104.55405L120.5 105.35092L120.5 104.36655L123.609375 103.19467L123.765625 103.19467Z" fill-rule="nonzero"/><path fill="#ffffff" d="M99.453125 101.85092L99.453125 103.6478L98.578125 103.6478L98.578125 101.85092L99.453125 101.85092ZM99.34375 111.42905L99.34375 112.99155L98.46875 112.99155L98.46875 111.42905L99.34375 111.42905ZM100.515625 109.56967Q100.515625 109.22592 100.359375 108.94467Q100.203125 108.66342 99.828125 108.42905Q99.46875 108.19467 98.859375 107.99155Q98.125 107.75717 97.578125 107.42905Q97.046875 107.10092 96.75 106.61655Q96.46875 106.13217 96.46875 105.44467Q96.46875 104.72592 96.78125 104.2103Q97.09375 103.67905 97.65625 103.3978Q98.234375 103.11655 99.0 103.11655Q99.59375 103.11655 100.0625 103.30405Q100.53125 103.47592 100.859375 103.8353Q101.1875 104.17905 101.359375 104.69467Q101.53125 105.19467 101.53125 105.86655L100.453125 105.86655Q100.453125 105.47592 100.359375 105.1478Q100.265625 104.81967 100.078125 104.5853Q99.890625 104.3353 99.609375 104.2103Q99.34375 104.06967 99.0 104.06967Q98.5 104.06967 98.1875 104.24155Q97.875 104.41342 97.71875 104.72592Q97.5625 105.0228 97.5625 105.42905Q97.5625 105.80405 97.71875 106.0853Q97.875 106.36655 98.234375 106.60092Q98.59375 106.81967 99.25 107.03842Q100.0 107.2728 100.53125 107.60092Q101.0625 107.92905 101.328125 108.3978Q101.609375 108.86655 101.609375 109.56967Q101.609375 110.31967 101.265625 110.8353Q100.921875 111.35092 100.3125 111.63217Q99.703125 111.8978 98.875 111.8978Q98.375 111.8978 97.890625 111.7728Q97.40625 111.63217 97.0 111.31967Q96.609375 111.00717 96.375 110.50717Q96.140625 109.99155 96.140625 109.25717L97.234375 109.25717Q97.234375 109.75717 97.375 110.0853Q97.515625 110.41342 97.75 110.60092Q98.0 110.78842 98.28125 110.86655Q98.578125 110.94467 98.875 110.94467Q99.390625 110.94467 99.75 110.78842Q100.125 110.61655 100.3125 110.30405Q100.515625 109.99155 100.515625 109.56967ZM104.796875 106.97592L105.5625 106.97592Q106.140625 106.97592 106.5 106.78842Q106.875 106.5853 107.0625 106.25717Q107.25 105.92905 107.25 105.50717Q107.25 105.0228 107.078125 104.69467Q106.921875 104.35092 106.59375 104.17905Q106.265625 104.00717 105.765625 104.00717Q105.296875 104.00717 104.953125 104.19467Q104.609375 104.36655 104.40625 104.69467Q104.21875 105.0228 104.21875 105.47592L103.125 105.47592Q103.125 104.81967 103.453125 104.28842Q103.78125 103.75717 104.375 103.44467Q104.96875 103.11655 105.765625 103.11655Q106.53125 103.11655 107.109375 103.3978Q107.6875 103.66342 108.015625 104.2103Q108.34375 104.74155 108.34375 105.53842Q108.34375 105.86655 108.1875 106.22592Q108.03125 106.5853 107.71875 106.91342Q107.40625 107.22592 106.90625 107.42905Q106.421875 107.63217 105.71875 107.63217L104.796875 107.63217L104.796875 106.97592ZM104.796875 107.86655L104.796875 107.2103L105.71875 107.2103Q106.53125 107.2103 107.0625 107.41342Q107.59375 107.60092 107.90625 107.92905Q108.21875 108.24155 108.34375 108.63217Q108.46875 109.00717 108.46875 109.3978Q108.46875 109.99155 108.265625 110.4603Q108.0625 110.91342 107.6875 111.24155Q107.328125 111.55405 106.828125 111.72592Q106.34375 111.8978 105.765625 111.8978Q105.203125 111.8978 104.71875 111.74155Q104.234375 111.56967 103.859375 111.2728Q103.484375 110.97592 103.265625 110.53842Q103.0625 110.0853 103.0625 109.5228L104.140625 109.5228Q104.140625 109.9603 104.328125 110.30405Q104.53125 110.63217 104.890625 110.81967Q105.265625 110.99155 105.765625 110.99155Q106.265625 110.99155 106.625 110.81967Q106.984375 110.6478 107.171875 110.30405Q107.375 109.94467 107.375 109.41342Q107.375 108.88217 107.15625 108.53842Q106.9375 108.19467 106.515625 108.03842Q106.109375 107.86655 105.5625 107.86655L104.796875 107.86655ZM110.34375 111.19467Q110.34375 110.92905 110.515625 110.74155Q110.6875 110.53842 111.015625 110.53842Q111.34375 110.53842 111.515625 110.74155Q111.6875 110.92905 111.6875 111.19467Q111.6875 111.4603 111.515625 111.66342Q111.34375 111.85092 111.015625 111.85092Q110.6875 111.85092 110.515625 111.66342Q110.34375 111.4603 110.34375 111.19467ZM114.578125 107.7103L113.71875 107.49155L114.140625 103.24155L118.515625 103.24155L118.515625 104.24155L115.0625 104.24155L114.796875 106.56967Q115.03125 106.42905 115.390625 106.31967Q115.765625 106.19467 116.234375 106.19467Q116.8125 106.19467 117.28125 106.3978Q117.75 106.60092 118.078125 106.97592Q118.421875 107.35092 118.59375 107.88217Q118.765625 108.3978 118.765625 109.05405Q118.765625 109.66342 118.59375 110.17905Q118.4375 110.69467 118.09375 111.0853Q117.765625 111.4603 117.25 111.67905Q116.75 111.8978 116.0625 111.8978Q115.546875 111.8978 115.09375 111.75717Q114.640625 111.60092 114.265625 111.30405Q113.90625 111.00717 113.6875 110.56967Q113.46875 110.13217 113.40625 109.5228L114.4375 109.5228Q114.5 110.00717 114.703125 110.3353Q114.921875 110.66342 115.265625 110.8353Q115.609375 110.99155 116.0625 110.99155Q116.453125 110.99155 116.75 110.86655Q117.046875 110.72592 117.25 110.47592Q117.46875 110.22592 117.578125 109.86655Q117.6875 109.50717 117.6875 109.06967Q117.6875 108.66342 117.5625 108.31967Q117.453125 107.97592 117.234375 107.72592Q117.015625 107.4603 116.703125 107.31967Q116.390625 107.16342 115.96875 107.16342Q115.4375 107.16342 115.15625 107.31967Q114.875 107.4603 114.578125 107.7103ZM123.765625 103.19467L123.765625 111.7728L122.6875 111.7728L122.6875 104.55405L120.5 105.35092L120.5 104.36655L123.609375 103.19467L123.765625 103.19467Z" fill-rule="nonzero"/><path stroke="#4285f4" stroke-width="3.0" stroke-linejoin="round" stroke-linecap="round" d="M182.45312 140.73558L182.45312 142.53246L181.57812 142.53246L181.57812 140.73558L182.45312 140.73558ZM182.34375 150.3137L182.34375 151.8762L181.46875 151.8762L181.46875 150.3137L182.34375 150.3137ZM183.51562 148.45433Q183.51562 148.11058 183.35938 147.82933Q183.20312 147.54808 182.82812 147.3137Q182.46875 147.07933 181.85938 146.8762Q181.125 146.64183 180.57812 146.3137Q180.04688 145.98558 179.75 145.5012Q179.46875 145.01683 179.46875 144.32933Q179.46875 143.61058 179.78125 143.09496Q180.09375 142.5637 180.65625 142.28246Q181.23438 142.0012 182.0 142.0012Q182.59375 142.0012 183.0625 142.1887Q183.53125 142.36058 183.85938 142.71996Q184.1875 143.0637 184.35938 143.57933Q184.53125 144.07933 184.53125 144.7512L183.45312 144.7512Q183.45312 144.36058 183.35938 144.03246Q183.26562 143.70433 183.07812 143.46996Q182.89062 143.21996 182.60938 143.09496Q182.34375 142.95433 182.0 142.95433Q181.5 142.95433 181.1875 143.1262Q180.875 143.29808 180.71875 143.61058Q180.5625 143.90746 180.5625 144.3137Q180.5625 144.6887 180.71875 144.96996Q180.875 145.2512 181.23438 145.48558Q181.59375 145.70433 182.25 145.92308Q183.0 146.15746 183.53125 146.48558Q184.0625 146.8137 184.32812 147.28246Q184.60938 147.7512 184.60938 148.45433Q184.60938 149.20433 184.26562 149.71996Q183.92188 150.23558 183.3125 150.51683Q182.70312 150.78246 181.875 150.78246Q181.375 150.78246 180.89062 150.65746Q180.40625 150.51683 180.0 150.20433Q179.60938 149.89183 179.375 149.39183Q179.14062 148.8762 179.14062 148.14183L180.23438 148.14183Q180.23438 148.64183 180.375 148.96996Q180.51562 149.29808 180.75 149.48558Q181.0 149.67308 181.28125 149.7512Q181.57812 149.82933 181.875 149.82933Q182.39062 149.82933 182.75 149.67308Q183.125 149.5012 183.3125 149.1887Q183.51562 148.8762 183.51562 148.45433ZM191.79688 149.76683L191.79688 150.65746L186.21875 150.65746L186.21875 149.8762L189.01562 146.76683Q189.53125 146.1887 189.8125 145.79808Q190.09375 145.39183 190.20312 145.07933Q190.32812 144.7512 190.32812 144.42308Q190.32812 144.0012 190.15625 143.65746Q189.98438 143.3137 189.64062 143.11058Q189.3125 142.89183 188.82812 142.89183Q188.26562 142.89183 187.89062 143.1262Q187.51562 143.34496 187.32812 143.73558Q187.14062 144.1262 187.14062 144.6262L186.04688 144.6262Q186.04688 143.90746 186.35938 143.3137Q186.6875 142.71996 187.29688 142.36058Q187.92188 142.0012 188.82812 142.0012Q189.64062 142.0012 190.21875 142.29808Q190.79688 142.57933 191.09375 143.09496Q191.40625 143.59496 191.40625 144.28246Q191.40625 144.65746 191.28125 145.04808Q191.15625 145.42308 190.9375 145.8137Q190.71875 146.1887 190.42188 146.5637Q190.14062 146.92308 189.8125 147.28246L187.51562 149.76683L191.79688 149.76683ZM193.34375 150.07933Q193.34375 149.8137 193.51562 149.6262Q193.6875 149.42308 194.01562 149.42308Q194.34375 149.42308 194.51562 149.6262Q194.6875 149.8137 194.6875 150.07933Q194.6875 150.34496 194.51562 150.54808Q194.34375 150.73558 194.01562 150.73558Q193.6875 150.73558 193.51562 150.54808Q193.34375 150.34496 193.34375 150.07933ZM197.28125 149.7512L197.40625 149.7512Q198.34375 149.7512 198.92188 149.48558Q199.51562 149.21996 199.82812 148.78246Q200.14062 148.32933 200.25 147.76683Q200.375 147.20433 200.375 146.6262L200.375 145.3137Q200.375 144.73558 200.23438 144.28246Q200.10938 143.82933 199.875 143.53246Q199.65625 143.21996 199.35938 143.0637Q199.0625 142.90746 198.73438 142.90746Q198.35938 142.90746 198.0625 143.0637Q197.76562 143.20433 197.5625 143.46996Q197.35938 143.73558 197.25 144.11058Q197.15625 144.46996 197.15625 144.89183Q197.15625 145.28246 197.25 145.64183Q197.34375 145.98558 197.53125 146.28246Q197.73438 146.5637 198.01562 146.73558Q198.3125 146.90746 198.70312 146.90746Q199.0625 146.90746 199.375 146.76683Q199.70312 146.61058 199.95312 146.36058Q200.20312 146.11058 200.34375 145.79808Q200.5 145.48558 200.51562 145.14183L201.03125 145.14183Q201.03125 145.6262 200.84375 146.09496Q200.65625 146.5637 200.3125 146.95433Q199.98438 147.34496 199.51562 147.57933Q199.0625 147.79808 198.53125 147.79808Q197.89062 147.79808 197.42188 147.5637Q196.96875 147.3137 196.67188 146.90746Q196.375 146.48558 196.23438 145.98558Q196.09375 145.46996 196.09375 144.95433Q196.09375 144.34496 196.25 143.8137Q196.42188 143.28246 196.75 142.8762Q197.09375 142.46996 197.57812 142.23558Q198.07812 142.0012 198.73438 142.0012Q199.46875 142.0012 199.98438 142.29808Q200.5 142.59496 200.82812 143.09496Q201.15625 143.57933 201.29688 144.20433Q201.45312 144.8137 201.45312 145.45433L201.45312 145.84496Q201.45312 146.51683 201.35938 147.20433Q201.28125 147.8762 201.04688 148.5012Q200.8125 149.1262 200.35938 149.61058Q199.90625 150.09496 199.17188 150.39183Q198.45312 150.67308 197.40625 150.67308L197.28125 150.67308L197.28125 149.7512ZM208.96875 147.78246L208.96875 148.67308L202.8125 148.67308L202.8125 148.03246L206.625 142.1262L207.51562 142.1262L206.5625 143.82933L204.04688 147.78246L208.96875 147.78246ZM207.78125 142.1262L207.78125 150.65746L206.70312 150.65746L206.70312 142.1262L207.78125 142.1262Z" fill-rule="nonzero"/><path fill="#ffffff" d="M182.45312 140.73558L182.45312 142.53246L181.57812 142.53246L181.57812 140.73558L182.45312 140.73558ZM182.34375 150.3137L182.34375 151.8762L181.46875 151.8762L181.46875 150.3137L182.34375 150.3137ZM183.51562 148.45433Q183.51562 148.11058 183.35938 147.82933Q183.20312 147.54808 182.82812 147.3137Q182.46875 147.07933 181.85938 146.8762Q181.125 146.64183 180.57812 146.3137Q180.04688 145.98558 179.75 145.5012Q179.46875 145.01683 179.46875 144.32933Q179.46875 143.61058 179.78125 143.09496Q180.09375 142.5637 180.65625 142.28246Q181.23438 142.0012 182.0 142.0012Q182.59375 142.0012 183.0625 142.1887Q183.53125 142.36058 183.85938 142.71996Q184.1875 143.0637 184.35938 143.57933Q184.53125 144.07933 184.53125 144.7512L183.45312 144.7512Q183.45312 144.36058 183.35938 144.03246Q183.26562 143.70433 183.07812 143.46996Q182.89062 143.21996 182.60938 143.09496Q182.34375 142.95433 182.0 142.95433Q181.5 142.95433 181.1875 143.1262Q180.875 143.29808 180.71875 143.61058Q180.5625 143.90746 180.5625 144.3137Q180.5625 144.6887 180.71875 144.96996Q180.875 145.2512 181.23438 145.48558Q181.59375 145.70433 182.25 145.92308Q183.0 146.15746 183.53125 146.48558Q184.0625 146.8137 184.32812 147.28246Q184.60938 147.7512 184.60938 148.45433Q184.60938 149.20433 184.26562 149.71996Q183.92188 150.23558 183.3125 150.51683Q182.70312 150.78246 181.875 150.78246Q181.375 150.78246 180.89062 150.65746Q180.40625 150.51683 180.0 150.20433Q179.60938 149.89183 179.375 149.39183Q179.14062 148.8762 179.14062 148.14183L180.23438 148.14183Q180.23438 148.64183 180.375 148.96996Q180.51562 149.29808 180.75 149.48558Q181.0 149.67308 181.28125 149.7512Q181.57812 149.82933 181.875 149.82933Q182.39062 149.82933 182.75 149.67308Q183.125 149.5012 183.3125 149.1887Q183.51562 148.8762 183.51562 148.45433ZM191.79688 149.76683L191.79688 150.65746L186.21875 150.65746L186.21875 149.8762L189.01562 146.76683Q189.53125 146.1887 189.8125 145.79808Q190.09375 145.39183 190.20312 145.07933Q190.32812 144.7512 190.32812 144.42308Q190.32812 144.0012 190.15625 143.65746Q189.98438 143.3137 189.64062 143.11058Q189.3125 142.89183 188.82812 142.89183Q188.26562 142.89183 187.89062 143.1262Q187.51562 143.34496 187.32812 143.73558Q187.14062 144.1262 187.14062 144.6262L186.04688 144.6262Q186.04688 143.90746 186.35938 143.3137Q186.6875 142.71996 187.29688 142.36058Q187.92188 142.0012 188.82812 142.0012Q189.64062 142.0012 190.21875 142.29808Q190.79688 142.57933 191.09375 143.09496Q191.40625 143.59496 191.40625 144.28246Q191.40625 144.65746 191.28125 145.04808Q191.15625 145.42308 190.9375 145.8137Q190.71875 146.1887 190.42188 146.5637Q190.14062 146.92308 189.8125 147.28246L187.51562 149.76683L191.79688 149.76683ZM193.34375 150.07933Q193.34375 149.8137 193.51562 149.6262Q193.6875 149.42308 194.01562 149.42308Q194.34375 149.42308 194.51562 149.6262Q194.6875 149.8137 194.6875 150.07933Q194.6875 150.34496 194.51562 150.54808Q194.34375 150.73558 194.01562 150.73558Q193.6875 150.73558 193.51562 150.54808Q193.34375 150.34496 193.34375 150.07933ZM197.28125 149.7512L197.40625 149.7512Q198.34375 149.7512 198.92188 149.48558Q199.51562 149.21996 199.82812 148.78246Q200.14062 148.32933 200.25 147.76683Q200.375 147.20433 200.375 146.6262L200.375 145.3137Q200.375 144.73558 200.23438 144.28246Q200.10938 143.82933 199.875 143.53246Q199.65625 143.21996 199.35938 143.0637Q199.0625 142.90746 198.73438 142.90746Q198.35938 142.90746 198.0625 143.0637Q197.76562 143.20433 197.5625 143.46996Q197.35938 143.73558 197.25 144.11058Q197.15625 144.46996 197.15625 144.89183Q197.15625 145.28246 197.25 145.64183Q197.34375 145.98558 197.53125 146.28246Q197.73438 146.5637 198.01562 146.73558Q198.3125 146.90746 198.70312 146.90746Q199.0625 146.90746 199.375 146.76683Q199.70312 146.61058 199.95312 146.36058Q200.20312 146.11058 200.34375 145.79808Q200.5 145.48558 200.51562 145.14183L201.03125 145.14183Q201.03125 145.6262 200.84375 146.09496Q200.65625 146.5637 200.3125 146.95433Q199.98438 147.34496 199.51562 147.57933Q199.0625 147.79808 198.53125 147.79808Q197.89062 147.79808 197.42188 147.5637Q196.96875 147.3137 196.67188 146.90746Q196.375 146.48558 196.23438 145.98558Q196.09375 145.46996 196.09375 144.95433Q196.09375 144.34496 196.25 143.8137Q196.42188 143.28246 196.75 142.8762Q197.09375 142.46996 197.57812 142.23558Q198.07812 142.0012 198.73438 142.0012Q199.46875 142.0012 199.98438 142.29808Q200.5 142.59496 200.82812 143.09496Q201.15625 143.57933 201.29688 144.20433Q201.45312 144.8137 201.45312 145.45433L201.45312 145.84496Q201.45312 146.51683 201.35938 147.20433Q201.28125 147.8762 201.04688 148.5012Q200.8125 149.1262 200.35938 149.61058Q199.90625 150.09496 199.17188 150.39183Q198.45312 150.67308 197.40625 150.67308L197.28125 150.67308L197.28125 149.7512ZM208.96875 147.78246L208.96875 148.67308L202.8125 148.67308L202.8125 148.03246L206.625 142.1262L207.51562 142.1262L206.5625 143.82933L204.04688 147.78246L208.96875 147.78246ZM207.78125 142.1262L207.78125 150.65746L206.70312 150.65746L206.70312 142.1262L207.78125 142.1262Z" fill-rule="nonzero"/><path stroke="#4285f4" stroke-width="3.0" stroke-linejoin="round" stroke-linecap="round" d="M265.45312 179.73402L265.45312 181.5309L264.57812 181.5309L264.57812 179.73402L265.45312 179.73402ZM265.34375 189.31215L265.34375 190.87465L264.46875 190.87465L264.46875 189.31215L265.34375 189.31215ZM266.51562 187.45277Q266.51562 187.10902 266.35938 186.82777Q266.20312 186.54652 265.82812 186.31215Q265.46875 186.07777 264.85938 185.87465Q264.125 185.64027 263.57812 185.31215Q263.04688 184.98402 262.75 184.49965Q262.46875 184.01527 262.46875 183.32777Q262.46875 182.60902 262.78125 182.0934Q263.09375 181.56215 263.65625 181.2809Q264.23438 180.99965 265.0 180.99965Q265.59375 180.99965 266.0625 181.18715Q266.53125 181.35902 266.85938 181.7184Q267.1875 182.06215 267.35938 182.57777Q267.53125 183.07777 267.53125 183.74965L266.45312 183.74965Q266.45312 183.35902 266.35938 183.0309Q266.26562 182.70277 266.07812 182.4684Q265.89062 182.2184 265.60938 182.0934Q265.34375 181.95277 265.0 181.95277Q264.5 181.95277 264.1875 182.12465Q263.875 182.29652 263.71875 182.60902Q263.5625 182.9059 263.5625 183.31215Q263.5625 183.68715 263.71875 183.9684Q263.875 184.24965 264.23438 184.48402Q264.59375 184.70277 265.25 184.92152Q266.0 185.1559 266.53125 185.48402Q267.0625 185.81215 267.32812 186.2809Q267.60938 186.74965 267.60938 187.45277Q267.60938 188.20277 267.26562 188.7184Q266.92188 189.23402 266.3125 189.51527Q265.70312 189.7809 264.875 189.7809Q264.375 189.7809 263.89062 189.6559Q263.40625 189.51527 263.0 189.20277Q262.60938 188.89027 262.375 188.39027Q262.14062 187.87465 262.14062 187.14027L263.23438 187.14027Q263.23438 187.64027 263.375 187.9684Q263.51562 188.29652 263.75 188.48402Q264.0 188.67152 264.28125 188.74965Q264.57812 188.82777 264.875 188.82777Q265.39062 188.82777 265.75 188.67152Q266.125 188.49965 266.3125 188.18715Q266.51562 187.87465 266.51562 187.45277ZM274.79688 188.76527L274.79688 189.6559L269.21875 189.6559L269.21875 188.87465L272.01562 185.76527Q272.53125 185.18715 272.8125 184.79652Q273.09375 184.39027 273.20312 184.07777Q273.32812 183.74965 273.32812 183.42152Q273.32812 182.99965 273.15625 182.6559Q272.98438 182.31215 272.64062 182.10902Q272.3125 181.89027 271.82812 181.89027Q271.26562 181.89027 270.89062 182.12465Q270.51562 182.3434 270.32812 182.73402Q270.14062 183.12465 270.14062 183.62465L269.04688 183.62465Q269.04688 182.9059 269.35938 182.31215Q269.6875 181.7184 270.29688 181.35902Q270.92188 180.99965 271.82812 180.99965Q272.64062 180.99965 273.21875 181.29652Q273.79688 181.57777 274.09375 182.0934Q274.40625 182.5934 274.40625 183.2809Q274.40625 183.6559 274.28125 184.04652Q274.15625 184.42152 273.9375 184.81215Q273.71875 185.18715 273.42188 185.56215Q273.14062 185.92152 272.8125 186.2809L270.51562 188.76527L274.79688 188.76527ZM276.34375 189.07777Q276.34375 188.81215 276.51562 188.62465Q276.6875 188.42152 277.01562 188.42152Q277.34375 188.42152 277.51562 188.62465Q277.6875 188.81215 277.6875 189.07777Q277.6875 189.3434 277.51562 189.54652Q277.34375 189.73402 277.01562 189.73402Q276.6875 189.73402 276.51562 189.54652Q276.34375 189.3434 276.34375 189.07777ZM280.79688 184.85902L281.5625 184.85902Q282.14062 184.85902 282.5 184.67152Q282.875 184.4684 283.0625 184.14027Q283.25 183.81215 283.25 183.39027Q283.25 182.9059 283.07812 182.57777Q282.92188 182.23402 282.59375 182.06215Q282.26562 181.89027 281.76562 181.89027Q281.29688 181.89027 280.95312 182.07777Q280.60938 182.24965 280.40625 182.57777Q280.21875 182.9059 280.21875 183.35902L279.125 183.35902Q279.125 182.70277 279.45312 182.17152Q279.78125 181.64027 280.375 181.32777Q280.96875 180.99965 281.76562 180.99965Q282.53125 180.99965 283.10938 181.2809Q283.6875 181.54652 284.01562 182.0934Q284.34375 182.62465 284.34375 183.42152Q284.34375 183.74965 284.1875 184.10902Q284.03125 184.4684 283.71875 184.79652Q283.40625 185.10902 282.90625 185.31215Q282.42188 185.51527 281.71875 185.51527L280.79688 185.51527L280.79688 184.85902ZM280.79688 185.74965L280.79688 185.0934L281.71875 185.0934Q282.53125 185.0934 283.0625 185.29652Q283.59375 185.48402 283.90625 185.81215Q284.21875 186.12465 284.34375 186.51527Q284.46875 186.89027 284.46875 187.2809Q284.46875 187.87465 284.26562 188.3434Q284.0625 188.79652 283.6875 189.12465Q283.32812 189.43715 282.82812 189.60902Q282.34375 189.7809 281.76562 189.7809Q281.20312 189.7809 280.71875 189.62465Q280.23438 189.45277 279.85938 189.1559Q279.48438 188.85902 279.26562 188.42152Q279.0625 187.9684 279.0625 187.4059L280.14062 187.4059Q280.14062 187.8434 280.32812 188.18715Q280.53125 188.51527 280.89062 188.70277Q281.26562 188.87465 281.76562 188.87465Q282.26562 188.87465 282.625 188.70277Q282.98438 188.5309 283.17188 188.18715Q283.375 187.82777 283.375 187.29652Q283.375 186.76527 283.15625 186.42152Q282.9375 186.07777 282.51562 185.92152Q282.10938 185.74965 281.5625 185.74965L280.79688 185.74965ZM290.375 181.10902L290.46875 181.10902L290.46875 182.0309L290.375 182.0309Q289.51562 182.0309 288.92188 182.31215Q288.34375 182.5934 288.0 183.06215Q287.67188 183.51527 287.51562 184.10902Q287.375 184.68715 287.375 185.2809L287.375 186.5309Q287.375 187.0934 287.5 187.5309Q287.64062 187.9684 287.875 188.2809Q288.10938 188.57777 288.40625 188.73402Q288.70312 188.87465 289.01562 188.87465Q289.39062 188.87465 289.6875 188.73402Q289.98438 188.5934 290.1875 188.32777Q290.39062 188.06215 290.48438 187.7184Q290.59375 187.35902 290.59375 186.92152Q290.59375 186.54652 290.5 186.18715Q290.40625 185.82777 290.21875 185.56215Q290.03125 185.2809 289.73438 185.12465Q289.4375 184.95277 289.04688 184.95277Q288.59375 184.95277 288.20312 185.17152Q287.8125 185.39027 287.5625 185.74965Q287.3125 186.10902 287.28125 186.51527L286.70312 186.51527Q286.79688 185.85902 287.01562 185.39027Q287.23438 184.92152 287.57812 184.62465Q287.92188 184.32777 288.32812 184.20277Q288.75 184.06215 289.21875 184.06215Q289.85938 184.06215 290.3125 184.31215Q290.78125 184.54652 291.07812 184.95277Q291.39062 185.3434 291.53125 185.8434Q291.67188 186.3434 291.67188 186.87465Q291.67188 187.4684 291.5 187.99965Q291.32812 188.5309 290.98438 188.93715Q290.65625 189.32777 290.15625 189.56215Q289.67188 189.7809 289.01562 189.7809Q288.32812 189.7809 287.8125 189.49965Q287.29688 189.20277 286.95312 188.73402Q286.625 188.24965 286.45312 187.67152Q286.28125 187.0934 286.28125 186.49965L286.28125 185.98402Q286.28125 185.07777 286.45312 184.2184Q286.64062 183.3434 287.09375 182.64027Q287.54688 181.93715 288.34375 181.5309Q289.14062 181.10902 290.375 181.10902Z" fill-rule="nonzero"/><path fill="#ffffff" d="M265.45312 179.73402L265.45312 181.5309L264.57812 181.5309L264.57812 179.73402L265.45312 179.73402ZM265.34375 189.31215L265.34375 190.87465L264.46875 190.87465L264.46875 189.31215L265.34375 189.31215ZM266.51562 187.45277Q266.51562 187.10902 266.35938 186.82777Q266.20312 186.54652 265.82812 186.31215Q265.46875 186.07777 264.85938 185.87465Q264.125 185.64027 263.57812 185.31215Q263.04688 184.98402 262.75 184.49965Q262.46875 184.01527 262.46875 183.32777Q262.46875 182.60902 262.78125 182.0934Q263.09375 181.56215 263.65625 181.2809Q264.23438 180.99965 265.0 180.99965Q265.59375 180.99965 266.0625 181.18715Q266.53125 181.35902 266.85938 181.7184Q267.1875 182.06215 267.35938 182.57777Q267.53125 183.07777 267.53125 183.74965L266.45312 183.74965Q266.45312 183.35902 266.35938 183.0309Q266.26562 182.70277 266.07812 182.4684Q265.89062 182.2184 265.60938 182.0934Q265.34375 181.95277 265.0 181.95277Q264.5 181.95277 264.1875 182.12465Q263.875 182.29652 263.71875 182.60902Q263.5625 182.9059 263.5625 183.31215Q263.5625 183.68715 263.71875 183.9684Q263.875 184.24965 264.23438 184.48402Q264.59375 184.70277 265.25 184.92152Q266.0 185.1559 266.53125 185.48402Q267.0625 185.81215 267.32812 186.2809Q267.60938 186.74965 267.60938 187.45277Q267.60938 188.20277 267.26562 188.7184Q266.92188 189.23402 266.3125 189.51527Q265.70312 189.7809 264.875 189.7809Q264.375 189.7809 263.89062 189.6559Q263.40625 189.51527 263.0 189.20277Q262.60938 188.89027 262.375 188.39027Q262.14062 187.87465 262.14062 187.14027L263.23438 187.14027Q263.23438 187.64027 263.375 187.9684Q263.51562 188.29652 263.75 188.48402Q264.0 188.67152 264.28125 188.74965Q264.57812 188.82777 264.875 188.82777Q265.39062 188.82777 265.75 188.67152Q266.125 188.49965 266.3125 188.18715Q266.51562 187.87465 266.51562 187.45277ZM274.79688 188.76527L274.79688 189.6559L269.21875 189.6559L269.21875 188.87465L272.01562 185.76527Q272.53125 185.18715 272.8125 184.79652Q273.09375 184.39027 273.20312 184.07777Q273.32812 183.74965 273.32812 183.42152Q273.32812 182.99965 273.15625 182.6559Q272.98438 182.31215 272.64062 182.10902Q272.3125 181.89027 271.82812 181.89027Q271.26562 181.89027 270.89062 182.12465Q270.51562 182.3434 270.32812 182.73402Q270.14062 183.12465 270.14062 183.62465L269.04688 183.62465Q269.04688 182.9059 269.35938 182.31215Q269.6875 181.7184 270.29688 181.35902Q270.92188 180.99965 271.82812 180.99965Q272.64062 180.99965 273.21875 181.29652Q273.79688 181.57777 274.09375 182.0934Q274.40625 182.5934 274.40625 183.2809Q274.40625 183.6559 274.28125 184.04652Q274.15625 184.42152 273.9375 184.81215Q273.71875 185.18715 273.42188 185.56215Q273.14062 185.92152 272.8125 186.2809L270.51562 188.76527L274.79688 188.76527ZM276.34375 189.07777Q276.34375 188.81215 276.51562 188.62465Q276.6875 188.42152 277.01562 188.42152Q277.34375 188.42152 277.51562 188.62465Q277.6875 188.81215 277.6875 189.07777Q277.6875 189.3434 277.51562 189.54652Q277.34375 189.73402 277.01562 189.73402Q276.6875 189.73402 276.51562 189.54652Q276.34375 189.3434 276.34375 189.07777ZM280.79688 184.85902L281.5625 184.85902Q282.14062 184.85902 282.5 184.67152Q282.875 184.4684 283.0625 184.14027Q283.25 183.81215 283.25 183.39027Q283.25 182.9059 283.07812 182.57777Q282.92188 182.23402 282.59375 182.06215Q282.26562 181.89027 281.76562 181.89027Q281.29688 181.89027 280.95312 182.07777Q280.60938 182.24965 280.40625 182.57777Q280.21875 182.9059 280.21875 183.35902L279.125 183.35902Q279.125 182.70277 279.45312 182.17152Q279.78125 181.64027 280.375 181.32777Q280.96875 180.99965 281.76562 180.99965Q282.53125 180.99965 283.10938 181.2809Q283.6875 181.54652 284.01562 182.0934Q284.34375 182.62465 284.34375 183.42152Q284.34375 183.74965 284.1875 184.10902Q284.03125 184.4684 283.71875 184.79652Q283.40625 185.10902 282.90625 185.31215Q282.42188 185.51527 281.71875 185.51527L280.79688 185.51527L280.79688 184.85902ZM280.79688 185.74965L280.79688 185.0934L281.71875 185.0934Q282.53125 185.0934 283.0625 185.29652Q283.59375 185.48402 283.90625 185.81215Q284.21875 186.12465 284.34375 186.51527Q284.46875 186.89027 284.46875 187.2809Q284.46875 187.87465 284.26562 188.3434Q284.0625 188.79652 283.6875 189.12465Q283.32812 189.43715 282.82812 189.60902Q282.34375 189.7809 281.76562 189.7809Q281.20312 189.7809 280.71875 189.62465Q280.23438 189.45277 279.85938 189.1559Q279.48438 188.85902 279.26562 188.42152Q279.0625 187.9684 279.0625 187.4059L280.14062 187.4059Q280.14062 187.8434 280.32812 188.18715Q280.53125 188.51527 280.89062 188.70277Q281.26562 188.87465 281.76562 188.87465Q282.26562 188.87465 282.625 188.70277Q282.98438 188.5309 283.17188 188.18715Q283.375 187.82777 283.375 187.29652Q283.375 186.76527 283.15625 186.42152Q282.9375 186.07777 282.51562 185.92152Q282.10938 185.74965 281.5625 185.74965L280.79688 185.74965ZM290.375 181.10902L290.46875 181.10902L290.46875 182.0309L290.375 182.0309Q289.51562 182.0309 288.92188 182.31215Q288.34375 182.5934 288.0 183.06215Q287.67188 183.51527 287.51562 184.10902Q287.375 184.68715 287.375 185.2809L287.375 186.5309Q287.375 187.0934 287.5 187.5309Q287.64062 187.9684 287.875 188.2809Q288.10938 188.57777 288.40625 188.73402Q288.70312 188.87465 289.01562 188.87465Q289.39062 188.87465 289.6875 188.73402Q289.98438 188.5934 290.1875 188.32777Q290.39062 188.06215 290.48438 187.7184Q290.59375 187.35902 290.59375 186.92152Q290.59375 186.54652 290.5 186.18715Q290.40625 185.82777 290.21875 185.56215Q290.03125 185.2809 289.73438 185.12465Q289.4375 184.95277 289.04688 184.95277Q288.59375 184.95277 288.20312 185.17152Q287.8125 185.39027 287.5625 185.74965Q287.3125 186.10902 287.28125 186.51527L286.70312 186.51527Q286.79688 185.85902 287.01562 185.39027Q287.23438 184.92152 287.57812 184.62465Q287.92188 184.32777 288.32812 184.20277Q288.75 184.06215 289.21875 184.06215Q289.85938 184.06215 290.3125 184.31215Q290.78125 184.54652 291.07812 184.95277Q291.39062 185.3434 291.53125 185.8434Q291.67188 186.3434 291.67188 186.87465Q291.67188 187.4684 291.5 187.99965Q291.32812 188.5309 290.98438 188.93715Q290.65625 189.32777 290.15625 189.56215Q289.67188 189.7809 289.01562 189.7809Q288.32812 189.7809 287.8125 189.49965Q287.29688 189.20277 286.95312 188.73402Q286.625 188.24965 286.45312 187.67152Q286.28125 187.0934 286.28125 186.49965L286.28125 185.98402Q286.28125 185.07777 286.45312 184.2184Q286.64062 183.3434 287.09375 182.64027Q287.54688 181.93715 288.34375 181.5309Q289.14062 181.10902 290.375 181.10902Z" fill-rule="nonzero"/><path stroke="#4285f4" stroke-width="3.0" stroke-linejoin="round" stroke-linecap="round" d="M348.45312 218.84659L348.45312 220.64346L347.57812 220.64346L347.57812 218.84659L348.45312 218.84659ZM348.34375 228.42471L348.34375 229.98721L347.46875 229.98721L347.46875 228.42471L348.34375 228.42471ZM349.51562 226.56534Q349.51562 226.22159 349.35938 225.94034Q349.20312 225.65909 348.82812 225.42471Q348.46875 225.19034 347.85938 224.98721Q347.125 224.75284 346.57812 224.42471Q346.04688 224.09659 345.75 223.61221Q345.46875 223.12784 345.46875 222.44034Q345.46875 221.72159 345.78125 221.20596Q346.09375 220.67471 346.65625 220.39346Q347.23438 220.11221 348.0 220.11221Q348.59375 220.11221 349.0625 220.29971Q349.53125 220.47159 349.85938 220.83096Q350.1875 221.17471 350.35938 221.69034Q350.53125 222.19034 350.53125 222.86221L349.45312 222.86221Q349.45312 222.47159 349.35938 222.14346Q349.26562 221.81534 349.07812 221.58096Q348.89062 221.33096 348.60938 221.20596Q348.34375 221.06534 348.0 221.06534Q347.5 221.06534 347.1875 221.23721Q346.875 221.40909 346.71875 221.72159Q346.5625 222.01846 346.5625 222.42471Q346.5625 222.79971 346.71875 223.08096Q346.875 223.36221 347.23438 223.59659Q347.59375 223.81534 348.25 224.03409Q349.0 224.26846 349.53125 224.59659Q350.0625 224.92471 350.32812 225.39346Q350.60938 225.86221 350.60938 226.56534Q350.60938 227.31534 350.26562 227.83096Q349.92188 228.34659 349.3125 228.62784Q348.70312 228.89346 347.875 228.89346Q347.375 228.89346 346.89062 228.76846Q346.40625 228.62784 346.0 228.31534Q345.60938 228.00284 345.375 227.50284Q345.14062 226.98721 345.14062 226.25284L346.23438 226.25284Q346.23438 226.75284 346.375 227.08096Q346.51562 227.40909 346.75 227.59659Q347.0 227.78409 347.28125 227.86221Q347.57812 227.94034 347.875 227.94034Q348.39062 227.94034 348.75 227.78409Q349.125 227.61221 349.3125 227.29971Q349.51562 226.98721 349.51562 226.56534ZM355.76562 220.19034L355.76562 228.76846L354.6875 228.76846L354.6875 221.54971L352.5 222.34659L352.5 221.36221L355.60938 220.19034L355.76562 220.19034ZM359.34375 228.19034Q359.34375 227.92471 359.51562 227.73721Q359.6875 227.53409 360.01562 227.53409Q360.34375 227.53409 360.51562 227.73721Q360.6875 227.92471 360.6875 228.19034Q360.6875 228.45596 360.51562 228.65909Q360.34375 228.84659 360.01562 228.84659Q359.6875 228.84659 359.51562 228.65909Q359.34375 228.45596 359.34375 228.19034ZM367.71875 220.23721L367.71875 220.84659L364.1875 228.76846L363.04688 228.76846L366.57812 221.12784L361.95312 221.12784L361.95312 220.23721L367.71875 220.23721ZM374.59375 226.45596Q374.59375 227.23721 374.23438 227.78409Q373.875 228.31534 373.25 228.61221Q372.64062 228.89346 371.875 228.89346Q371.10938 228.89346 370.48438 228.61221Q369.875 228.31534 369.51562 227.78409Q369.15625 227.23721 369.15625 226.45596Q369.15625 225.95596 369.35938 225.53409Q369.5625 225.09659 369.92188 224.78409Q370.28125 224.47159 370.76562 224.29971Q371.26562 224.12784 371.85938 224.12784Q372.65625 224.12784 373.26562 224.42471Q373.875 224.72159 374.23438 225.25284Q374.59375 225.78409 374.59375 226.45596ZM373.5 226.44034Q373.5 225.95596 373.29688 225.59659Q373.09375 225.22159 372.71875 225.01846Q372.34375 224.81534 371.85938 224.81534Q371.35938 224.81534 371.0 225.01846Q370.64062 225.22159 370.4375 225.59659Q370.25 225.95596 370.25 226.44034Q370.25 226.92471 370.4375 227.28409Q370.64062 227.62784 371.0 227.81534Q371.375 227.98721 371.875 227.98721Q372.375 227.98721 372.73438 227.81534Q373.10938 227.62784 373.29688 227.28409Q373.5 226.92471 373.5 226.44034ZM374.39062 222.45596Q374.39062 223.08096 374.0625 223.58096Q373.73438 224.08096 373.15625 224.36221Q372.59375 224.64346 371.875 224.64346Q371.14062 224.64346 370.5625 224.36221Q370.0 224.08096 369.67188 223.58096Q369.35938 223.08096 369.35938 222.45596Q369.35938 221.70596 369.67188 221.19034Q370.0 220.67471 370.5625 220.39346Q371.14062 220.11221 371.875 220.11221Q372.60938 220.11221 373.17188 220.39346Q373.73438 220.67471 374.0625 221.19034Q374.39062 221.70596 374.39062 222.45596ZM373.3125 222.47159Q373.3125 222.04971 373.125 221.72159Q372.9375 221.39346 372.60938 221.20596Q372.29688 221.00284 371.875 221.00284Q371.4375 221.00284 371.10938 221.19034Q370.79688 221.36221 370.625 221.69034Q370.45312 222.01846 370.45312 222.47159Q370.45312 222.90909 370.625 223.23721Q370.79688 223.56534 371.125 223.75284Q371.45312 223.94034 371.875 223.94034Q372.29688 223.94034 372.60938 223.75284Q372.9375 223.56534 373.125 223.23721Q373.3125 222.90909 373.3125 222.47159Z" fill-rule="nonzero"/><path fill="#ffffff" d="M348.45312 218.84659L348.45312 220.64346L347.57812 220.64346L347.57812 218.84659L348.45312 218.84659ZM348.34375 228.42471L348.34375 229.98721L347.46875 229.98721L347.46875 228.42471L348.34375 228.42471ZM349.51562 226.56534Q349.51562 226.22159 349.35938 225.94034Q349.20312 225.65909 348.82812 225.42471Q348.46875 225.19034 347.85938 224.98721Q347.125 224.75284 346.57812 224.42471Q346.04688 224.09659 345.75 223.61221Q345.46875 223.12784 345.46875 222.44034Q345.46875 221.72159 345.78125 221.20596Q346.09375 220.67471 346.65625 220.39346Q347.23438 220.11221 348.0 220.11221Q348.59375 220.11221 349.0625 220.29971Q349.53125 220.47159 349.85938 220.83096Q350.1875 221.17471 350.35938 221.69034Q350.53125 222.19034 350.53125 222.86221L349.45312 222.86221Q349.45312 222.47159 349.35938 222.14346Q349.26562 221.81534 349.07812 221.58096Q348.89062 221.33096 348.60938 221.20596Q348.34375 221.06534 348.0 221.06534Q347.5 221.06534 347.1875 221.23721Q346.875 221.40909 346.71875 221.72159Q346.5625 222.01846 346.5625 222.42471Q346.5625 222.79971 346.71875 223.08096Q346.875 223.36221 347.23438 223.59659Q347.59375 223.81534 348.25 224.03409Q349.0 224.26846 349.53125 224.59659Q350.0625 224.92471 350.32812 225.39346Q350.60938 225.86221 350.60938 226.56534Q350.60938 227.31534 350.26562 227.83096Q349.92188 228.34659 349.3125 228.62784Q348.70312 228.89346 347.875 228.89346Q347.375 228.89346 346.89062 228.76846Q346.40625 228.62784 346.0 228.31534Q345.60938 228.00284 345.375 227.50284Q345.14062 226.98721 345.14062 226.25284L346.23438 226.25284Q346.23438 226.75284 346.375 227.08096Q346.51562 227.40909 346.75 227.59659Q347.0 227.78409 347.28125 227.86221Q347.57812 227.94034 347.875 227.94034Q348.39062 227.94034 348.75 227.78409Q349.125 227.61221 349.3125 227.29971Q349.51562 226.98721 349.51562 226.56534ZM355.76562 220.19034L355.76562 228.76846L354.6875 228.76846L354.6875 221.54971L352.5 222.34659L352.5 221.36221L355.60938 220.19034L355.76562 220.19034ZM359.34375 228.19034Q359.34375 227.92471 359.51562 227.73721Q359.6875 227.53409 360.01562 227.53409Q360.34375 227.53409 360.51562 227.73721Q360.6875 227.92471 360.6875 228.19034Q360.6875 228.45596 360.51562 228.65909Q360.34375 228.84659 360.01562 228.84659Q359.6875 228.84659 359.51562 228.65909Q359.34375 228.45596 359.34375 228.19034ZM367.71875 220.23721L367.71875 220.84659L364.1875 228.76846L363.04688 228.76846L366.57812 221.12784L361.95312 221.12784L361.95312 220.23721L367.71875 220.23721ZM374.59375 226.45596Q374.59375 227.23721 374.23438 227.78409Q373.875 228.31534 373.25 228.61221Q372.64062 228.89346 371.875 228.89346Q371.10938 228.89346 370.48438 228.61221Q369.875 228.31534 369.51562 227.78409Q369.15625 227.23721 369.15625 226.45596Q369.15625 225.95596 369.35938 225.53409Q369.5625 225.09659 369.92188 224.78409Q370.28125 224.47159 370.76562 224.29971Q371.26562 224.12784 371.85938 224.12784Q372.65625 224.12784 373.26562 224.42471Q373.875 224.72159 374.23438 225.25284Q374.59375 225.78409 374.59375 226.45596ZM373.5 226.44034Q373.5 225.95596 373.29688 225.59659Q373.09375 225.22159 372.71875 225.01846Q372.34375 224.81534 371.85938 224.81534Q371.35938 224.81534 371.0 225.01846Q370.64062 225.22159 370.4375 225.59659Q370.25 225.95596 370.25 226.44034Q370.25 226.92471 370.4375 227.28409Q370.64062 227.62784 371.0 227.81534Q371.375 227.98721 371.875 227.98721Q372.375 227.98721 372.73438 227.81534Q373.10938 227.62784 373.29688 227.28409Q373.5 226.92471 373.5 226.44034ZM374.39062 222.45596Q374.39062 223.08096 374.0625 223.58096Q373.73438 224.08096 373.15625 224.36221Q372.59375 224.64346 371.875 224.64346Q371.14062 224.64346 370.5625 224.36221Q370.0 224.08096 369.67188 223.58096Q369.35938 223.08096 369.35938 222.45596Q369.35938 221.70596 369.67188 221.19034Q370.0 220.67471 370.5625 220.39346Q371.14062 220.11221 371.875 220.11221Q372.60938 220.11221 373.17188 220.39346Q373.73438 220.67471 374.0625 221.19034Q374.39062 221.70596 374.39062 222.45596ZM373.3125 222.47159Q373.3125 222.04971 373.125 221.72159Q372.9375 221.39346 372.60938 221.20596Q372.29688 221.00284 371.875 221.00284Q371.4375 221.00284 371.10938 221.19034Q370.79688 221.36221 370.625 221.69034Q370.45312 222.01846 370.45312 222.47159Q370.45312 222.90909 370.625 223.23721Q370.79688 223.56534 371.125 223.75284Q371.45312 223.94034 371.875 223.94034Q372.29688 223.94034 372.60938 223.75284Q372.9375 223.56534 373.125 223.23721Q373.3125 222.90909 373.3125 222.47159Z" fill-rule="nonzero"/><path stroke="#4285f4" stroke-width="3.0" stroke-linejoin="round" stroke-linecap="round" d="M431.45312 258.07358L431.45312 259.87045L430.57812 259.87045L430.57812 258.07358L431.45312 258.07358ZM431.34375 267.6517L431.34375 269.2142L430.46875 269.2142L430.46875 267.6517L431.34375 267.6517ZM432.51562 265.79233Q432.51562 265.44858 432.35938 265.16733Q432.20312 264.88608 431.82812 264.6517Q431.46875 264.41733 430.85938 264.2142Q430.125 263.97983 429.57812 263.6517Q429.04688 263.32358 428.75 262.8392Q428.46875 262.35483 428.46875 261.66733Q428.46875 260.94858 428.78125 260.43295Q429.09375 259.9017 429.65625 259.62045Q430.23438 259.3392 431.0 259.3392Q431.59375 259.3392 432.0625 259.5267Q432.53125 259.69858 432.85938 260.05795Q433.1875 260.4017 433.35938 260.91733Q433.53125 261.41733 433.53125 262.0892L432.45312 262.0892Q432.45312 261.69858 432.35938 261.37045Q432.26562 261.04233 432.07812 260.80795Q431.89062 260.55795 431.60938 260.43295Q431.34375 260.29233 431.0 260.29233Q430.5 260.29233 430.1875 260.4642Q429.875 260.63608 429.71875 260.94858Q429.5625 261.24545 429.5625 261.6517Q429.5625 262.0267 429.71875 262.30795Q429.875 262.5892 430.23438 262.82358Q430.59375 263.04233 431.25 263.26108Q432.0 263.49545 432.53125 263.82358Q433.0625 264.1517 433.32812 264.62045Q433.60938 265.0892 433.60938 265.79233Q433.60938 266.54233 433.26562 267.05795Q432.92188 267.57358 432.3125 267.85483Q431.70312 268.12045 430.875 268.12045Q430.375 268.12045 429.89062 267.99545Q429.40625 267.85483 429.0 267.54233Q428.60938 267.22983 428.375 266.72983Q428.14062 266.2142 428.14062 265.47983L429.23438 265.47983Q429.23438 265.97983 429.375 266.30795Q429.51562 266.63608 429.75 266.82358Q430.0 267.01108 430.28125 267.0892Q430.57812 267.16733 430.875 267.16733Q431.39062 267.16733 431.75 267.01108Q432.125 266.8392 432.3125 266.5267Q432.51562 266.2142 432.51562 265.79233ZM438.76562 259.41733L438.76562 267.99545L437.6875 267.99545L437.6875 260.7767L435.5 261.57358L435.5 260.5892L438.60938 259.41733L438.76562 259.41733ZM442.34375 267.41733Q442.34375 267.1517 442.51562 266.9642Q442.6875 266.76108 443.01562 266.76108Q443.34375 266.76108 443.51562 266.9642Q443.6875 267.1517 443.6875 267.41733Q443.6875 267.68295 443.51562 267.88608Q443.34375 268.07358 443.01562 268.07358Q442.6875 268.07358 442.51562 267.88608Q442.34375 267.68295 442.34375 267.41733ZM450.79688 267.10483L450.79688 267.99545L445.21875 267.99545L445.21875 267.2142L448.01562 264.10483Q448.53125 263.5267 448.8125 263.13608Q449.09375 262.72983 449.20312 262.41733Q449.32812 262.0892 449.32812 261.76108Q449.32812 261.3392 449.15625 260.99545Q448.98438 260.6517 448.64062 260.44858Q448.3125 260.22983 447.82812 260.22983Q447.26562 260.22983 446.89062 260.4642Q446.51562 260.68295 446.32812 261.07358Q446.14062 261.4642 446.14062 261.9642L445.04688 261.9642Q445.04688 261.24545 445.35938 260.6517Q445.6875 260.05795 446.29688 259.69858Q446.92188 259.3392 447.82812 259.3392Q448.64062 259.3392 449.21875 259.63608Q449.79688 259.91733 450.09375 260.43295Q450.40625 260.93295 450.40625 261.62045Q450.40625 261.99545 450.28125 262.38608Q450.15625 262.76108 449.9375 263.1517Q449.71875 263.5267 449.42188 263.9017Q449.14062 264.26108 448.8125 264.62045L446.51562 267.10483L450.79688 267.10483ZM457.5625 263.04233L457.5625 264.35483Q457.5625 265.4017 457.375 266.12045Q457.1875 266.8392 456.82812 267.2767Q456.48438 267.7142 455.98438 267.91733Q455.5 268.12045 454.875 268.12045Q454.39062 268.12045 453.96875 267.99545Q453.54688 267.87045 453.21875 267.60483Q452.89062 267.32358 452.65625 266.88608Q452.42188 266.44858 452.29688 265.82358Q452.17188 265.18295 452.17188 264.35483L452.17188 263.04233Q452.17188 261.99545 452.35938 261.29233Q452.5625 260.5892 452.90625 260.1517Q453.26562 259.7142 453.75 259.5267Q454.25 259.3392 454.85938 259.3392Q455.35938 259.3392 455.78125 259.4642Q456.20312 259.5892 456.53125 259.85483Q456.85938 260.10483 457.07812 260.54233Q457.3125 260.9642 457.4375 261.5892Q457.5625 262.2142 457.5625 263.04233ZM456.46875 264.5267L456.46875 262.87045Q456.46875 262.29233 456.40625 261.85483Q456.34375 261.41733 456.20312 261.10483Q456.07812 260.79233 455.875 260.60483Q455.6875 260.41733 455.4375 260.32358Q455.1875 260.22983 454.85938 260.22983Q454.48438 260.22983 454.17188 260.37045Q453.875 260.51108 453.67188 260.82358Q453.46875 261.13608 453.35938 261.6517Q453.26562 262.1517 453.26562 262.87045L453.26562 264.5267Q453.26562 265.10483 453.32812 265.54233Q453.40625 265.97983 453.53125 266.30795Q453.67188 266.62045 453.85938 266.82358Q454.0625 267.0267 454.3125 267.12045Q454.5625 267.2142 454.875 267.2142Q455.28125 267.2142 455.57812 267.07358Q455.875 266.91733 456.07812 266.5892Q456.28125 266.26108 456.375 265.76108Q456.46875 265.24545 456.46875 264.5267Z" fill-rule="nonzero"/><path fill="#ffffff" d="M431.45312 258.07358L431.45312 259.87045L430.57812 259.87045L430.57812 258.07358L431.45312 258.07358ZM431.34375 267.6517L431.34375 269.2142L430.46875 269.2142L430.46875 267.6517L431.34375 267.6517ZM432.51562 265.79233Q432.51562 265.44858 432.35938 265.16733Q432.20312 264.88608 431.82812 264.6517Q431.46875 264.41733 430.85938 264.2142Q430.125 263.97983 429.57812 263.6517Q429.04688 263.32358 428.75 262.8392Q428.46875 262.35483 428.46875 261.66733Q428.46875 260.94858 428.78125 260.43295Q429.09375 259.9017 429.65625 259.62045Q430.23438 259.3392 431.0 259.3392Q431.59375 259.3392 432.0625 259.5267Q432.53125 259.69858 432.85938 260.05795Q433.1875 260.4017 433.35938 260.91733Q433.53125 261.41733 433.53125 262.0892L432.45312 262.0892Q432.45312 261.69858 432.35938 261.37045Q432.26562 261.04233 432.07812 260.80795Q431.89062 260.55795 431.60938 260.43295Q431.34375 260.29233 431.0 260.29233Q430.5 260.29233 430.1875 260.4642Q429.875 260.63608 429.71875 260.94858Q429.5625 261.24545 429.5625 261.6517Q429.5625 262.0267 429.71875 262.30795Q429.875 262.5892 430.23438 262.82358Q430.59375 263.04233 431.25 263.26108Q432.0 263.49545 432.53125 263.82358Q433.0625 264.1517 433.32812 264.62045Q433.60938 265.0892 433.60938 265.79233Q433.60938 266.54233 433.26562 267.05795Q432.92188 267.57358 432.3125 267.85483Q431.70312 268.12045 430.875 268.12045Q430.375 268.12045 429.89062 267.99545Q429.40625 267.85483 429.0 267.54233Q428.60938 267.22983 428.375 266.72983Q428.14062 266.2142 428.14062 265.47983L429.23438 265.47983Q429.23438 265.97983 429.375 266.30795Q429.51562 266.63608 429.75 266.82358Q430.0 267.01108 430.28125 267.0892Q430.57812 267.16733 430.875 267.16733Q431.39062 267.16733 431.75 267.01108Q432.125 266.8392 432.3125 266.5267Q432.51562 266.2142 432.51562 265.79233ZM438.76562 259.41733L438.76562 267.99545L437.6875 267.99545L437.6875 260.7767L435.5 261.57358L435.5 260.5892L438.60938 259.41733L438.76562 259.41733ZM442.34375 267.41733Q442.34375 267.1517 442.51562 266.9642Q442.6875 266.76108 443.01562 266.76108Q443.34375 266.76108 443.51562 266.9642Q443.6875 267.1517 443.6875 267.41733Q443.6875 267.68295 443.51562 267.88608Q443.34375 268.07358 443.01562 268.07358Q442.6875 268.07358 442.51562 267.88608Q442.34375 267.68295 442.34375 267.41733ZM450.79688 267.10483L450.79688 267.99545L445.21875 267.99545L445.21875 267.2142L448.01562 264.10483Q448.53125 263.5267 448.8125 263.13608Q449.09375 262.72983 449.20312 262.41733Q449.32812 262.0892 449.32812 261.76108Q449.32812 261.3392 449.15625 260.99545Q448.98438 260.6517 448.64062 260.44858Q448.3125 260.22983 447.82812 260.22983Q447.26562 260.22983 446.89062 260.4642Q446.51562 260.68295 446.32812 261.07358Q446.14062 261.4642 446.14062 261.9642L445.04688 261.9642Q445.04688 261.24545 445.35938 260.6517Q445.6875 260.05795 446.29688 259.69858Q446.92188 259.3392 447.82812 259.3392Q448.64062 259.3392 449.21875 259.63608Q449.79688 259.91733 450.09375 260.43295Q450.40625 260.93295 450.40625 261.62045Q450.40625 261.99545 450.28125 262.38608Q450.15625 262.76108 449.9375 263.1517Q449.71875 263.5267 449.42188 263.9017Q449.14062 264.26108 448.8125 264.62045L446.51562 267.10483L450.79688 267.10483ZM457.5625 263.04233L457.5625 264.35483Q457.5625 265.4017 457.375 266.12045Q457.1875 266.8392 456.82812 267.2767Q456.48438 267.7142 455.98438 267.91733Q455.5 268.12045 454.875 268.12045Q454.39062 268.12045 453.96875 267.99545Q453.54688 267.87045 453.21875 267.60483Q452.89062 267.32358 452.65625 266.88608Q452.42188 266.44858 452.29688 265.82358Q452.17188 265.18295 452.17188 264.35483L452.17188 263.04233Q452.17188 261.99545 452.35938 261.29233Q452.5625 260.5892 452.90625 260.1517Q453.26562 259.7142 453.75 259.5267Q454.25 259.3392 454.85938 259.3392Q455.35938 259.3392 455.78125 259.4642Q456.20312 259.5892 456.53125 259.85483Q456.85938 260.10483 457.07812 260.54233Q457.3125 260.9642 457.4375 261.5892Q457.5625 262.2142 457.5625 263.04233ZM456.46875 264.5267L456.46875 262.87045Q456.46875 262.29233 456.40625 261.85483Q456.34375 261.41733 456.20312 261.10483Q456.07812 260.79233 455.875 260.60483Q455.6875 260.41733 455.4375 260.32358Q455.1875 260.22983 454.85938 260.22983Q454.48438 260.22983 454.17188 260.37045Q453.875 260.51108 453.67188 260.82358Q453.46875 261.13608 453.35938 261.6517Q453.26562 262.1517 453.26562 262.87045L453.26562 264.5267Q453.26562 265.10483 453.32812 265.54233Q453.40625 265.97983 453.53125 266.30795Q453.67188 266.62045 453.85938 266.82358Q454.0625 267.0267 454.3125 267.12045Q454.5625 267.2142 454.875 267.2142Q455.28125 267.2142 455.57812 267.07358Q455.875 266.91733 456.07812 266.5892Q456.28125 266.26108 456.375 265.76108Q456.46875 265.24545 456.46875 264.5267Z" fill-rule="nonzero"/><path stroke="#4285f4" stroke-width="3.0" stroke-linejoin="round" stroke-linecap="round" d="M514.4531 297.41537L514.4531 299.21225L513.5781 299.21225L513.5781 297.41537L514.4531 297.41537ZM514.34375 306.9935L514.34375 308.556L513.46875 308.556L513.46875 306.9935L514.34375 306.9935ZM515.5156 305.13412Q515.5156 304.79037 515.3594 304.50912Q515.2031 304.22787 514.8281 303.9935Q514.46875 303.75912 513.8594 303.556Q513.125 303.32162 512.5781 302.9935Q512.0469 302.66537 511.75 302.181Q511.46875 301.69662 511.46875 301.00912Q511.46875 300.29037 511.78125 299.77475Q512.09375 299.2435 512.65625 298.96225Q513.2344 298.681 514.0 298.681Q514.59375 298.681 515.0625 298.8685Q515.53125 299.04037 515.8594 299.39975Q516.1875 299.7435 516.3594 300.25912Q516.53125 300.75912 516.53125 301.431L515.4531 301.431Q515.4531 301.04037 515.3594 300.71225Q515.2656 300.38412 515.0781 300.14975Q514.8906 299.89975 514.6094 299.77475Q514.34375 299.63412 514.0 299.63412Q513.5 299.63412 513.1875 299.806Q512.875 299.97787 512.71875 300.29037Q512.5625 300.58725 512.5625 300.9935Q512.5625 301.3685 512.71875 301.64975Q512.875 301.931 513.2344 302.16537Q513.59375 302.38412 514.25 302.60287Q515.0 302.83725 515.53125 303.16537Q516.0625 303.4935 516.3281 303.96225Q516.6094 304.431 516.6094 305.13412Q516.6094 305.88412 516.2656 306.39975Q515.9219 306.91537 515.3125 307.19662Q514.7031 307.46225 513.875 307.46225Q513.375 307.46225 512.8906 307.33725Q512.40625 307.19662 512.0 306.88412Q511.60938 306.57162 511.375 306.07162Q511.14062 305.556 511.14062 304.82162L512.2344 304.82162Q512.2344 305.32162 512.375 305.64975Q512.5156 305.97787 512.75 306.16537Q513.0 306.35287 513.28125 306.431Q513.5781 306.50912 513.875 306.50912Q514.3906 306.50912 514.75 306.35287Q515.125 306.181 515.3125 305.8685Q515.5156 305.556 515.5156 305.13412ZM523.5625 302.38412L523.5625 303.69662Q523.5625 304.7435 523.375 305.46225Q523.1875 306.181 522.8281 306.6185Q522.4844 307.056 521.9844 307.25912Q521.5 307.46225 520.875 307.46225Q520.3906 307.46225 519.96875 307.33725Q519.5469 307.21225 519.21875 306.94662Q518.8906 306.66537 518.65625 306.22787Q518.4219 305.79037 518.2969 305.16537Q518.1719 304.52475 518.1719 303.69662L518.1719 302.38412Q518.1719 301.33725 518.3594 300.63412Q518.5625 299.931 518.90625 299.4935Q519.2656 299.056 519.75 298.8685Q520.25 298.681 520.8594 298.681Q521.3594 298.681 521.78125 298.806Q522.2031 298.931 522.53125 299.19662Q522.8594 299.44662 523.0781 299.88412Q523.3125 300.306 523.4375 300.931Q523.5625 301.556 523.5625 302.38412ZM522.46875 303.8685L522.46875 302.21225Q522.46875 301.63412 522.40625 301.19662Q522.34375 300.75912 522.2031 300.44662Q522.0781 300.13412 521.875 299.94662Q521.6875 299.75912 521.4375 299.66537Q521.1875 299.57162 520.8594 299.57162Q520.4844 299.57162 520.1719 299.71225Q519.875 299.85287 519.6719 300.16537Q519.46875 300.47787 519.3594 300.9935Q519.2656 301.4935 519.2656 302.21225L519.2656 303.8685Q519.2656 304.44662 519.3281 304.88412Q519.40625 305.32162 519.53125 305.64975Q519.6719 305.96225 519.8594 306.16537Q520.0625 306.3685 520.3125 306.46225Q520.5625 306.556 520.875 306.556Q521.28125 306.556 521.5781 306.41537Q521.875 306.25912 522.0781 305.931Q522.28125 305.60287 522.375 305.10287Q522.46875 304.58725 522.46875 303.8685ZM525.34375 306.75912Q525.34375 306.4935 525.5156 306.306Q525.6875 306.10287 526.0156 306.10287Q526.34375 306.10287 526.5156 306.306Q526.6875 306.4935 526.6875 306.75912Q526.6875 307.02475 526.5156 307.22787Q526.34375 307.41537 526.0156 307.41537Q525.6875 307.41537 525.5156 307.22787Q525.34375 307.02475 525.34375 306.75912ZM532.375 298.79037L532.46875 298.79037L532.46875 299.71225L532.375 299.71225Q531.5156 299.71225 530.9219 299.9935Q530.34375 300.27475 530.0 300.7435Q529.6719 301.19662 529.5156 301.79037Q529.375 302.3685 529.375 302.96225L529.375 304.21225Q529.375 304.77475 529.5 305.21225Q529.6406 305.64975 529.875 305.96225Q530.1094 306.25912 530.40625 306.41537Q530.7031 306.556 531.0156 306.556Q531.3906 306.556 531.6875 306.41537Q531.9844 306.27475 532.1875 306.00912Q532.3906 305.7435 532.4844 305.39975Q532.59375 305.04037 532.59375 304.60287Q532.59375 304.22787 532.5 303.8685Q532.40625 303.50912 532.21875 303.2435Q532.03125 302.96225 531.7344 302.806Q531.4375 302.63412 531.0469 302.63412Q530.59375 302.63412 530.2031 302.85287Q529.8125 303.07162 529.5625 303.431Q529.3125 303.79037 529.28125 304.19662L528.7031 304.19662Q528.7969 303.54037 529.0156 303.07162Q529.2344 302.60287 529.5781 302.306Q529.9219 302.00912 530.3281 301.88412Q530.75 301.7435 531.21875 301.7435Q531.8594 301.7435 532.3125 301.9935Q532.78125 302.22787 533.0781 302.63412Q533.3906 303.02475 533.53125 303.52475Q533.6719 304.02475 533.6719 304.556Q533.6719 305.14975 533.5 305.681Q533.3281 306.21225 532.9844 306.6185Q532.65625 307.00912 532.15625 307.2435Q531.6719 307.46225 531.0156 307.46225Q530.3281 307.46225 529.8125 307.181Q529.2969 306.88412 528.9531 306.41537Q528.625 305.931 528.4531 305.35287Q528.28125 304.77475 528.28125 304.181L528.28125 303.66537Q528.28125 302.75912 528.4531 301.89975Q528.6406 301.02475 529.09375 300.32162Q529.5469 299.6185 530.34375 299.21225Q531.1406 298.79037 532.375 298.79037ZM540.7969 306.44662L540.7969 307.33725L535.21875 307.33725L535.21875 306.556L538.0156 303.44662Q538.53125 302.8685 538.8125 302.47787Q539.09375 302.07162 539.2031 301.75912Q539.3281 301.431 539.3281 301.10287Q539.3281 300.681 539.15625 300.33725Q538.9844 299.9935 538.6406 299.79037Q538.3125 299.57162 537.8281 299.57162Q537.2656 299.57162 536.8906 299.806Q536.5156 300.02475 536.3281 300.41537Q536.1406 300.806 536.1406 301.306L535.0469 301.306Q535.0469 300.58725 535.3594 299.9935Q535.6875 299.39975 536.2969 299.04037Q536.9219 298.681 537.8281 298.681Q538.6406 298.681 539.21875 298.97787Q539.7969 299.25912 540.09375 299.77475Q540.40625 300.27475 540.40625 300.96225Q540.40625 301.33725 540.28125 301.72787Q540.15625 302.10287 539.9375 302.4935Q539.71875 302.8685 539.4219 303.2435Q539.1406 303.60287 538.8125 303.96225L536.5156 306.44662L540.7969 306.44662Z" fill-rule="nonzero"/><path fill="#ffffff" d="M514.4531 297.41537L514.4531 299.21225L513.5781 299.21225L513.5781 297.41537L514.4531 297.41537ZM514.34375 306.9935L514.34375 308.556L513.46875 308.556L513.46875 306.9935L514.34375 306.9935ZM515.5156 305.13412Q515.5156 304.79037 515.3594 304.50912Q515.2031 304.22787 514.8281 303.9935Q514.46875 303.75912 513.8594 303.556Q513.125 303.32162 512.5781 302.9935Q512.0469 302.66537 511.75 302.181Q511.46875 301.69662 511.46875 301.00912Q511.46875 300.29037 511.78125 299.77475Q512.09375 299.2435 512.65625 298.96225Q513.2344 298.681 514.0 298.681Q514.59375 298.681 515.0625 298.8685Q515.53125 299.04037 515.8594 299.39975Q516.1875 299.7435 516.3594 300.25912Q516.53125 300.75912 516.53125 301.431L515.4531 301.431Q515.4531 301.04037 515.3594 300.71225Q515.2656 300.38412 515.0781 300.14975Q514.8906 299.89975 514.6094 299.77475Q514.34375 299.63412 514.0 299.63412Q513.5 299.63412 513.1875 299.806Q512.875 299.97787 512.71875 300.29037Q512.5625 300.58725 512.5625 300.9935Q512.5625 301.3685 512.71875 301.64975Q512.875 301.931 513.2344 302.16537Q513.59375 302.38412 514.25 302.60287Q515.0 302.83725 515.53125 303.16537Q516.0625 303.4935 516.3281 303.96225Q516.6094 304.431 516.6094 305.13412Q516.6094 305.88412 516.2656 306.39975Q515.9219 306.91537 515.3125 307.19662Q514.7031 307.46225 513.875 307.46225Q513.375 307.46225 512.8906 307.33725Q512.40625 307.19662 512.0 306.88412Q511.60938 306.57162 511.375 306.07162Q511.14062 305.556 511.14062 304.82162L512.2344 304.82162Q512.2344 305.32162 512.375 305.64975Q512.5156 305.97787 512.75 306.16537Q513.0 306.35287 513.28125 306.431Q513.5781 306.50912 513.875 306.50912Q514.3906 306.50912 514.75 306.35287Q515.125 306.181 515.3125 305.8685Q515.5156 305.556 515.5156 305.13412ZM523.5625 302.38412L523.5625 303.69662Q523.5625 304.7435 523.375 305.46225Q523.1875 306.181 522.8281 306.6185Q522.4844 307.056 521.9844 307.25912Q521.5 307.46225 520.875 307.46225Q520.3906 307.46225 519.96875 307.33725Q519.5469 307.21225 519.21875 306.94662Q518.8906 306.66537 518.65625 306.22787Q518.4219 305.79037 518.2969 305.16537Q518.1719 304.52475 518.1719 303.69662L518.1719 302.38412Q518.1719 301.33725 518.3594 300.63412Q518.5625 299.931 518.90625 299.4935Q519.2656 299.056 519.75 298.8685Q520.25 298.681 520.8594 298.681Q521.3594 298.681 521.78125 298.806Q522.2031 298.931 522.53125 299.19662Q522.8594 299.44662 523.0781 299.88412Q523.3125 300.306 523.4375 300.931Q523.5625 301.556 523.5625 302.38412ZM522.46875 303.8685L522.46875 302.21225Q522.46875 301.63412 522.40625 301.19662Q522.34375 300.75912 522.2031 300.44662Q522.0781 300.13412 521.875 299.94662Q521.6875 299.75912 521.4375 299.66537Q521.1875 299.57162 520.8594 299.57162Q520.4844 299.57162 520.1719 299.71225Q519.875 299.85287 519.6719 300.16537Q519.46875 300.47787 519.3594 300.9935Q519.2656 301.4935 519.2656 302.21225L519.2656 303.8685Q519.2656 304.44662 519.3281 304.88412Q519.40625 305.32162 519.53125 305.64975Q519.6719 305.96225 519.8594 306.16537Q520.0625 306.3685 520.3125 306.46225Q520.5625 306.556 520.875 306.556Q521.28125 306.556 521.5781 306.41537Q521.875 306.25912 522.0781 305.931Q522.28125 305.60287 522.375 305.10287Q522.46875 304.58725 522.46875 303.8685ZM525.34375 306.75912Q525.34375 306.4935 525.5156 306.306Q525.6875 306.10287 526.0156 306.10287Q526.34375 306.10287 526.5156 306.306Q526.6875 306.4935 526.6875 306.75912Q526.6875 307.02475 526.5156 307.22787Q526.34375 307.41537 526.0156 307.41537Q525.6875 307.41537 525.5156 307.22787Q525.34375 307.02475 525.34375 306.75912ZM532.375 298.79037L532.46875 298.79037L532.46875 299.71225L532.375 299.71225Q531.5156 299.71225 530.9219 299.9935Q530.34375 300.27475 530.0 300.7435Q529.6719 301.19662 529.5156 301.79037Q529.375 302.3685 529.375 302.96225L529.375 304.21225Q529.375 304.77475 529.5 305.21225Q529.6406 305.64975 529.875 305.96225Q530.1094 306.25912 530.40625 306.41537Q530.7031 306.556 531.0156 306.556Q531.3906 306.556 531.6875 306.41537Q531.9844 306.27475 532.1875 306.00912Q532.3906 305.7435 532.4844 305.39975Q532.59375 305.04037 532.59375 304.60287Q532.59375 304.22787 532.5 303.8685Q532.40625 303.50912 532.21875 303.2435Q532.03125 302.96225 531.7344 302.806Q531.4375 302.63412 531.0469 302.63412Q530.59375 302.63412 530.2031 302.85287Q529.8125 303.07162 529.5625 303.431Q529.3125 303.79037 529.28125 304.19662L528.7031 304.19662Q528.7969 303.54037 529.0156 303.07162Q529.2344 302.60287 529.5781 302.306Q529.9219 302.00912 530.3281 301.88412Q530.75 301.7435 531.21875 301.7435Q531.8594 301.7435 532.3125 301.9935Q532.78125 302.22787 533.0781 302.63412Q533.3906 303.02475 533.53125 303.52475Q533.6719 304.02475 533.6719 304.556Q533.6719 305.14975 533.5 305.681Q533.3281 306.21225 532.9844 306.6185Q532.65625 307.00912 532.15625 307.2435Q531.6719 307.46225 531.0156 307.46225Q530.3281 307.46225 529.8125 307.181Q529.2969 306.88412 528.9531 306.41537Q528.625 305.931 528.4531 305.35287Q528.28125 304.77475 528.28125 304.181L528.28125 303.66537Q528.28125 302.75912 528.4531 301.89975Q528.6406 301.02475 529.09375 300.32162Q529.5469 299.6185 530.34375 299.21225Q531.1406 298.79037 532.375 298.79037ZM540.7969 306.44662L540.7969 307.33725L535.21875 307.33725L535.21875 306.556L538.0156 303.44662Q538.53125 302.8685 538.8125 302.47787Q539.09375 302.07162 539.2031 301.75912Q539.3281 301.431 539.3281 301.10287Q539.3281 300.681 539.15625 300.33725Q538.9844 299.9935 538.6406 299.79037Q538.3125 299.57162 537.8281 299.57162Q537.2656 299.57162 536.8906 299.806Q536.5156 300.02475 536.3281 300.41537Q536.1406 300.806 536.1406 301.306L535.0469 301.306Q535.0469 300.58725 535.3594 299.9935Q535.6875 299.39975 536.2969 299.04037Q536.9219 298.681 537.8281 298.681Q538.6406 298.681 539.21875 298.97787Q539.7969 299.25912 540.09375 299.77475Q540.40625 300.27475 540.40625 300.96225Q540.40625 301.33725 540.28125 301.72787Q540.15625 302.10287 539.9375 302.4935Q539.71875 302.8685 539.4219 303.2435Q539.1406 303.60287 538.8125 303.96225L536.5156 306.44662L540.7969 306.44662Z" fill-rule="nonzero"/><path fill="#000000" d="M21.534374 337.6844L21.534374 336.6375Q20.753124 336.52814 20.253124 336.27814Q19.753124 336.02814 19.39375 335.46564Q19.034374 334.8875 18.971874 334.0594L20.034374 333.8719Q20.159374 334.71564 20.471874 335.10626Q20.925 335.66876 21.534374 335.7469L21.534374 332.3875Q20.89375 332.2625 20.20625 331.8719Q19.70625 331.59064 19.425 331.10626Q19.159374 330.60626 19.159374 329.96564Q19.159374 328.84064 19.95625 328.15314Q20.4875 327.6844 21.534374 327.575L21.534374 327.075L22.159374 327.075L22.159374 327.575Q23.08125 327.65314 23.6125 328.10626Q24.315624 328.6844 24.45625 329.6844L23.3625 329.85626Q23.26875 329.23126 22.971874 328.90314Q22.675 328.575 22.159374 328.46564L22.159374 331.4969Q22.95625 331.7 23.221874 331.8094Q23.70625 332.02814 24.01875 332.34064Q24.33125 332.65314 24.4875 333.09064Q24.659374 333.5125 24.659374 334.0125Q24.659374 335.10626 23.95625 335.84064Q23.26875 336.575 22.159374 336.6219L22.159374 337.6844L21.534374 337.6844ZM21.534374 328.45Q20.925 328.54376 20.565624 328.95Q20.221874 329.34064 20.221874 329.8875Q20.221874 330.41876 20.51875 330.79376Q20.815624 331.15314 21.534374 331.3719L21.534374 328.45ZM22.159374 335.7469Q22.76875 335.66876 23.175 335.21564Q23.58125 334.7469 23.58125 334.075Q23.58125 333.4969 23.284374 333.15314Q23.003124 332.8094 22.159374 332.52814L22.159374 335.7469ZM26.05 332.21564Q26.05 330.6844 26.3625 329.7625Q26.675 328.825 27.284374 328.325Q27.909374 327.825 28.846874 327.825Q29.534374 327.825 30.05 328.10626Q30.58125 328.3875 30.925 328.91876Q31.26875 329.4344 31.45625 330.1844Q31.64375 330.9344 31.64375 332.21564Q31.64375 333.73126 31.33125 334.65314Q31.034374 335.575 30.409374 336.09064Q29.8 336.59064 28.846874 336.59064Q27.6125 336.59064 26.89375 335.7Q26.05 334.6375 26.05 332.21564ZM27.128124 332.21564Q27.128124 334.325 27.628124 335.02814Q28.128124 335.73126 28.846874 335.73126Q29.58125 335.73126 30.065624 335.02814Q30.565624 334.325 30.565624 332.21564Q30.565624 330.09064 30.065624 329.40314Q29.58125 328.7 28.83125 328.7Q28.1125 328.7 27.675 329.3094Q27.128124 330.09064 27.128124 332.21564ZM33.64375 336.45L33.64375 335.2469L34.846874 335.2469L34.846874 336.45L33.64375 336.45ZM36.05 332.21564Q36.05 330.6844 36.3625 329.7625Q36.675 328.825 37.284374 328.325Q37.909374 327.825 38.846874 327.825Q39.534374 327.825 40.05 328.10626Q40.58125 328.3875 40.925 328.91876Q41.26875 329.4344 41.45625 330.1844Q41.64375 330.9344 41.64375 332.21564Q41.64375 333.73126 41.33125 334.65314Q41.034374 335.575 40.409374 336.09064Q39.8 336.59064 38.846874 336.59064Q37.6125 336.59064 36.89375 335.7Q36.05 334.6375 36.05 332.21564ZM37.128124 332.21564Q37.128124 334.325 37.628124 335.02814Q38.128124 335.73126 38.846874 335.73126Q39.58125 335.73126 40.065624 335.02814Q40.565624 334.325 40.565624 332.21564Q40.565624 330.09064 40.065624 329.40314Q39.58125 328.7 38.83125 328.7Q38.1125 328.7 37.675 329.3094Q37.128124 330.09064 37.128124 332.21564ZM43.05 332.21564Q43.05 330.6844 43.3625 329.7625Q43.675 328.825 44.284374 328.325Q44.909374 327.825 45.846874 327.825Q46.534374 327.825 47.05 328.10626Q47.58125 328.3875 47.925 328.91876Q48.26875 329.4344 48.45625 330.1844Q48.64375 330.9344 48.64375 332.21564Q48.64375 333.73126 48.33125 334.65314Q48.034374 335.575 47.409374 336.09064Q46.8 336.59064 45.846874 336.59064Q44.6125 336.59064 43.89375 335.7Q43.05 334.6375 43.05 332.21564ZM44.128124 332.21564Q44.128124 334.325 44.628124 335.02814Q45.128124 335.73126 45.846874 335.73126Q46.58125 335.73126 47.065624 335.02814Q47.565624 334.325 47.565624 332.21564Q47.565624 330.09064 47.065624 329.40314Q46.58125 328.7 45.83125 328.7Q45.1125 328.7 44.675 329.3094Q44.128124 330.09064 44.128124 332.21564Z" fill-rule="nonzero"/><path fill="#000000" d="M21.534374 270.05106L21.534374 269.00418Q20.753124 268.8948 20.253124 268.6448Q19.753124 268.3948 19.39375 267.8323Q19.034374 267.25418 18.971874 266.42606L20.034374 266.23856Q20.159374 267.0823 20.471874 267.47293Q20.925 268.03543 21.534374 268.11356L21.534374 264.75418Q20.89375 264.62918 20.20625 264.23856Q19.70625 263.9573 19.425 263.47293Q19.159374 262.97293 19.159374 262.3323Q19.159374 261.2073 19.95625 260.5198Q20.4875 260.05106 21.534374 259.94168L21.534374 259.44168L22.159374 259.44168L22.159374 259.94168Q23.08125 260.0198 23.6125 260.47293Q24.315624 261.05106 24.45625 262.05106L23.3625 262.22293Q23.26875 261.59793 22.971874 261.2698Q22.675 260.94168 22.159374 260.8323L22.159374 263.86356Q22.95625 264.06668 23.221874 264.17606Q23.70625 264.3948 24.01875 264.7073Q24.33125 265.0198 24.4875 265.4573Q24.659374 265.87918 24.659374 266.37918Q24.659374 267.47293 23.95625 268.2073Q23.26875 268.94168 22.159374 268.98856L22.159374 270.05106L21.534374 270.05106ZM21.534374 260.81668Q20.925 260.91043 20.565624 261.31668Q20.221874 261.7073 20.221874 262.25418Q20.221874 262.78543 20.51875 263.16043Q20.815624 263.5198 21.534374 263.73856L21.534374 260.81668ZM22.159374 268.11356Q22.76875 268.03543 23.175 267.5823Q23.58125 267.11356 23.58125 266.44168Q23.58125 265.86356 23.284374 265.5198Q23.003124 265.17606 22.159374 264.8948L22.159374 268.11356ZM30.01875 268.81668L28.971874 268.81668L28.971874 262.09793Q28.58125 262.4573 27.95625 262.8323Q27.346874 263.19168 26.8625 263.36356L26.8625 262.34793Q27.7375 261.92606 28.39375 261.34793Q29.065624 260.75418 29.346874 260.19168L30.01875 260.19168L30.01875 268.81668ZM33.64375 268.81668L33.64375 267.61356L34.846874 267.61356L34.846874 268.81668L33.64375 268.81668ZM36.05 264.5823Q36.05 263.05106 36.3625 262.12918Q36.675 261.19168 37.284374 260.69168Q37.909374 260.19168 38.846874 260.19168Q39.534374 260.19168 40.05 260.47293Q40.58125 260.75418 40.925 261.28543Q41.26875 261.80106 41.45625 262.55106Q41.64375 263.30106 41.64375 264.5823Q41.64375 266.09793 41.33125 267.0198Q41.034374 267.94168 40.409374 268.4573Q39.8 268.9573 38.846874 268.9573Q37.6125 268.9573 36.89375 268.06668Q36.05 267.00418 36.05 264.5823ZM37.128124 264.5823Q37.128124 266.69168 37.628124 267.3948Q38.128124 268.09793 38.846874 268.09793Q39.58125 268.09793 40.065624 267.3948Q40.565624 266.69168 40.565624 264.5823Q40.565624 262.4573 40.065624 261.7698Q39.58125 261.06668 38.83125 261.06668Q38.1125 261.06668 37.675 261.67606Q37.128124 262.4573 37.128124 264.5823ZM43.05 264.5823Q43.05 263.05106 43.3625 262.12918Q43.675 261.19168 44.284374 260.69168Q44.909374 260.19168 45.846874 260.19168Q46.534374 260.19168 47.05 260.47293Q47.58125 260.75418 47.925 261.28543Q48.26875 261.80106 48.45625 262.55106Q48.64375 263.30106 48.64375 264.5823Q48.64375 266.09793 48.33125 267.0198Q48.034374 267.94168 47.409374 268.4573Q46.8 268.9573 45.846874 268.9573Q44.6125 268.9573 43.89375 268.06668Q43.05 267.00418 43.05 264.5823ZM44.128124 264.5823Q44.128124 266.69168 44.628124 267.3948Q45.128124 268.09793 45.846874 268.09793Q46.58125 268.09793 47.065624 267.3948Q47.565624 266.69168 47.565624 264.5823Q47.565624 262.4573 47.065624 261.7698Q46.58125 261.06668 45.83125 261.06668Q45.1125 261.06668 44.675 261.67606Q44.128124 262.4573 44.128124 264.5823Z" fill-rule="nonzero"/><path fill="#000000" d="M21.534374 202.41771L21.534374 201.37083Q20.753124 201.26146 20.253124 201.01146Q19.753124 200.76146 19.39375 200.19896Q19.034374 199.62083 18.971874 198.79271L20.034374 198.60521Q20.159374 199.44896 20.471874 199.83958Q20.925 200.40208 21.534374 200.48021L21.534374 197.12083Q20.89375 196.99583 20.20625 196.60521Q19.70625 196.32396 19.425 195.83958Q19.159374 195.33958 19.159374 194.69896Q19.159374 193.57396 19.95625 192.88646Q20.4875 192.41771 21.534374 192.30833L21.534374 191.80833L22.159374 191.80833L22.159374 192.30833Q23.08125 192.38646 23.6125 192.83958Q24.315624 193.41771 24.45625 194.41771L23.3625 194.58958Q23.26875 193.96458 22.971874 193.63646Q22.675 193.30833 22.159374 193.19896L22.159374 196.23021Q22.95625 196.43333 23.221874 196.54271Q23.70625 196.76146 24.01875 197.07396Q24.33125 197.38646 24.4875 197.82396Q24.659374 198.24583 24.659374 198.74583Q24.659374 199.83958 23.95625 200.57396Q23.26875 201.30833 22.159374 201.35521L22.159374 202.41771L21.534374 202.41771ZM21.534374 193.18333Q20.925 193.27708 20.565624 193.68333Q20.221874 194.07396 20.221874 194.62083Q20.221874 195.15208 20.51875 195.52708Q20.815624 195.88646 21.534374 196.10521L21.534374 193.18333ZM22.159374 200.48021Q22.76875 200.40208 23.175 199.94896Q23.58125 199.48021 23.58125 198.80833Q23.58125 198.23021 23.284374 197.88646Q23.003124 197.54271 22.159374 197.26146L22.159374 200.48021ZM31.596874 200.16771L31.596874 201.18333L25.909374 201.18333Q25.909374 200.80833 26.034374 200.44896Q26.253124 199.87083 26.721874 199.30833Q27.20625 198.74583 28.1125 198.01146Q29.51875 196.85521 30.003124 196.18333Q30.503124 195.51146 30.503124 194.91771Q30.503124 194.29271 30.05 193.87083Q29.596874 193.43333 28.878124 193.43333Q28.1125 193.43333 27.659374 193.88646Q27.20625 194.33958 27.190624 195.15208L26.1125 195.04271Q26.221874 193.82396 26.940624 193.19896Q27.675 192.55833 28.909374 192.55833Q30.14375 192.55833 30.8625 193.24583Q31.58125 193.93333 31.58125 194.94896Q31.58125 195.46458 31.3625 195.96458Q31.159374 196.44896 30.659374 197.01146Q30.175 197.55833 29.05 198.51146Q28.096874 199.30833 27.815624 199.60521Q27.55 199.88646 27.378124 200.16771L31.596874 200.16771ZM33.64375 201.18333L33.64375 199.98021L34.846874 199.98021L34.846874 201.18333L33.64375 201.18333ZM36.05 196.94896Q36.05 195.41771 36.3625 194.49583Q36.675 193.55833 37.284374 193.05833Q37.909374 192.55833 38.846874 192.55833Q39.534374 192.55833 40.05 192.83958Q40.58125 193.12083 40.925 193.65208Q41.26875 194.16771 41.45625 194.91771Q41.64375 195.66771 41.64375 196.94896Q41.64375 198.46458 41.33125 199.38646Q41.034374 200.30833 40.409374 200.82396Q39.8 201.32396 38.846874 201.32396Q37.6125 201.32396 36.89375 200.43333Q36.05 199.37083 36.05 196.94896ZM37.128124 196.94896Q37.128124 199.05833 37.628124 199.76146Q38.128124 200.46458 38.846874 200.46458Q39.58125 200.46458 40.065624 199.76146Q40.565624 199.05833 40.565624 196.94896Q40.565624 194.82396 40.065624 194.13646Q39.58125 193.43333 38.83125 193.43333Q38.1125 193.43333 37.675 194.04271Q37.128124 194.82396 37.128124 196.94896ZM43.05 196.94896Q43.05 195.41771 43.3625 194.49583Q43.675 193.55833 44.284374 193.05833Q44.909374 192.55833 45.846874 192.55833Q46.534374 192.55833 47.05 192.83958Q47.58125 193.12083 47.925 193.65208Q48.26875 194.16771 48.45625 194.91771Q48.64375 195.66771 48.64375 196.94896Q48.64375 198.46458 48.33125 199.38646Q48.034374 200.30833 47.409374 200.82396Q46.8 201.32396 45.846874 201.32396Q44.6125 201.32396 43.89375 200.43333Q43.05 199.37083 43.05 196.94896ZM44.128124 196.94896Q44.128124 199.05833 44.628124 199.76146Q45.128124 200.46458 45.846874 200.46458Q46.58125 200.46458 47.065624 199.76146Q47.565624 199.05833 47.565624 196.94896Q47.565624 194.82396 47.065624 194.13646Q46.58125 193.43333 45.83125 193.43333Q45.1125 193.43333 44.675 194.04271Q44.128124 194.82396 44.128124 196.94896Z" fill-rule="nonzero"/><path fill="#000000" d="M21.534374 134.78438L21.534374 133.7375Q20.753124 133.62813 20.253124 133.37813Q19.753124 133.12813 19.39375 132.56563Q19.034374 131.9875 18.971874 131.15938L20.034374 130.97188Q20.159374 131.81563 20.471874 132.20625Q20.925 132.76875 21.534374 132.84688L21.534374 129.4875Q20.89375 129.3625 20.20625 128.97188Q19.70625 128.69063 19.425 128.20625Q19.159374 127.70625 19.159374 127.06563Q19.159374 125.94063 19.95625 125.25313Q20.4875 124.78438 21.534374 124.675L21.534374 124.175L22.159374 124.175L22.159374 124.675Q23.08125 124.75313 23.6125 125.20625Q24.315624 125.78438 24.45625 126.78438L23.3625 126.95625Q23.26875 126.33125 22.971874 126.00313Q22.675 125.675 22.159374 125.56563L22.159374 128.59688Q22.95625 128.8 23.221874 128.90938Q23.70625 129.12813 24.01875 129.44063Q24.33125 129.75313 24.4875 130.19063Q24.659374 130.6125 24.659374 131.1125Q24.659374 132.20625 23.95625 132.94063Q23.26875 133.675 22.159374 133.72188L22.159374 134.78438L21.534374 134.78438ZM21.534374 125.55Q20.925 125.64375 20.565624 126.05Q20.221874 126.44063 20.221874 126.9875Q20.221874 127.51875 20.51875 127.89375Q20.815624 128.25313 21.534374 128.47188L21.534374 125.55ZM22.159374 132.84688Q22.76875 132.76875 23.175 132.31563Q23.58125 131.84688 23.58125 131.175Q23.58125 130.59688 23.284374 130.25313Q23.003124 129.90938 22.159374 129.62813L22.159374 132.84688ZM26.05 131.28438L27.1125 131.14375Q27.284374 132.03438 27.721874 132.44063Q28.159374 132.83125 28.784374 132.83125Q29.534374 132.83125 30.05 132.31563Q30.565624 131.8 30.565624 131.03438Q30.565624 130.31563 30.08125 129.84688Q29.6125 129.3625 28.878124 129.3625Q28.58125 129.3625 28.128124 129.4875L28.253124 128.55Q28.3625 128.56563 28.425 128.56563Q29.096874 128.56563 29.628124 128.22188Q30.175 127.8625 30.175 127.12813Q30.175 126.55 29.784374 126.175Q29.39375 125.78438 28.76875 125.78438Q28.159374 125.78438 27.7375 126.175Q27.33125 126.56563 27.221874 127.33125L26.159374 127.14375Q26.346874 126.09688 27.034374 125.51875Q27.721874 124.925 28.7375 124.925Q29.440624 124.925 30.034374 125.2375Q30.628124 125.53438 30.940624 126.05Q31.253124 126.56563 31.253124 127.15938Q31.253124 127.70625 30.95625 128.175Q30.659374 128.62813 30.08125 128.89375Q30.83125 129.06563 31.253124 129.62813Q31.675 130.175 31.675 131.01875Q31.675 132.14375 30.846874 132.925Q30.034374 133.70625 28.784374 133.70625Q27.659374 133.70625 26.909374 133.03438Q26.159374 132.34688 26.05 131.28438ZM33.64375 133.55L33.64375 132.34688L34.846874 132.34688L34.846874 133.55L33.64375 133.55ZM36.05 129.31563Q36.05 127.78438 36.3625 126.8625Q36.675 125.925 37.284374 125.425Q37.909374 124.925 38.846874 124.925Q39.534374 124.925 40.05 125.20625Q40.58125 125.4875 40.925 126.01875Q41.26875 126.53438 41.45625 127.28438Q41.64375 128.03438 41.64375 129.31563Q41.64375 130.83125 41.33125 131.75313Q41.034374 132.675 40.409374 133.19063Q39.8 133.69063 38.846874 133.69063Q37.6125 133.69063 36.89375 132.8Q36.05 131.7375 36.05 129.31563ZM37.128124 129.31563Q37.128124 131.425 37.628124 132.12813Q38.128124 132.83125 38.846874 132.83125Q39.58125 132.83125 40.065624 132.12813Q40.565624 131.425 40.565624 129.31563Q40.565624 127.19063 40.065624 126.50313Q39.58125 125.8 38.83125 125.8Q38.1125 125.8 37.675 126.40938Q37.128124 127.19063 37.128124 129.31563ZM43.05 129.31563Q43.05 127.78438 43.3625 126.8625Q43.675 125.925 44.284374 125.425Q44.909374 124.925 45.846874 124.925Q46.534374 124.925 47.05 125.20625Q47.58125 125.4875 47.925 126.01875Q48.26875 126.53438 48.45625 127.28438Q48.64375 128.03438 48.64375 129.31563Q48.64375 130.83125 48.33125 131.75313Q48.034374 132.675 47.409374 133.19063Q46.8 133.69063 45.846874 133.69063Q44.6125 133.69063 43.89375 132.8Q43.05 131.7375 43.05 129.31563ZM44.128124 129.31563Q44.128124 131.425 44.628124 132.12813Q45.128124 132.83125 45.846874 132.83125Q46.58125 132.83125 47.065624 132.12813Q47.565624 131.425 47.565624 129.31563Q47.565624 127.19063 47.065624 126.50313Q46.58125 125.8 45.83125 125.8Q45.1125 125.8 44.675 126.40938Q44.128124 127.19063 44.128124 129.31563Z" fill-rule="nonzero"/><path fill="#000000" d="M21.534374 67.15104L21.534374 66.104164Q20.753124 65.99479 20.253124 65.74479Q19.753124 65.49479 19.39375 64.93229Q19.034374 64.354164 18.971874 63.52604L20.034374 63.33854Q20.159374 64.18229 20.471874 64.572914Q20.925 65.135414 21.534374 65.21354L21.534374 61.854164Q20.89375 61.729164 20.20625 61.33854Q19.70625 61.05729 19.425 60.572914Q19.159374 60.072914 19.159374 59.43229Q19.159374 58.30729 19.95625 57.61979Q20.4875 57.15104 21.534374 57.041664L21.534374 56.541664L22.159374 56.541664L22.159374 57.041664Q23.08125 57.11979 23.6125 57.572914Q24.315624 58.15104 24.45625 59.15104L23.3625 59.322914Q23.26875 58.697914 22.971874 58.36979Q22.675 58.041664 22.159374 57.93229L22.159374 60.96354Q22.95625 61.166664 23.221874 61.27604Q23.70625 61.49479 24.01875 61.80729Q24.33125 62.11979 24.4875 62.55729Q24.659374 62.979164 24.659374 63.479164Q24.659374 64.572914 23.95625 65.30729Q23.26875 66.041664 22.159374 66.08854L22.159374 67.15104L21.534374 67.15104ZM21.534374 57.916664Q20.925 58.010414 20.565624 58.416664Q20.221874 58.80729 20.221874 59.354164Q20.221874 59.885414 20.51875 60.260414Q20.815624 60.61979 21.534374 60.83854L21.534374 57.916664ZM22.159374 65.21354Q22.76875 65.135414 23.175 64.68229Q23.58125 64.21354 23.58125 63.541664Q23.58125 62.96354 23.284374 62.61979Q23.003124 62.27604 22.159374 61.99479L22.159374 65.21354ZM29.425 65.916664L29.425 63.854164L25.70625 63.854164L25.70625 62.885414L29.628124 57.322914L30.4875 57.322914L30.4875 62.885414L31.64375 62.885414L31.64375 63.854164L30.4875 63.854164L30.4875 65.916664L29.425 65.916664ZM29.425 62.885414L29.425 59.02604L26.7375 62.885414L29.425 62.885414ZM33.64375 65.916664L33.64375 64.71354L34.846874 64.71354L34.846874 65.916664L33.64375 65.916664ZM36.05 61.68229Q36.05 60.15104 36.3625 59.229164Q36.675 58.291664 37.284374 57.791664Q37.909374 57.291664 38.846874 57.291664Q39.534374 57.291664 40.05 57.572914Q40.58125 57.854164 40.925 58.385414Q41.26875 58.90104 41.45625 59.65104Q41.64375 60.40104 41.64375 61.68229Q41.64375 63.197914 41.33125 64.11979Q41.034374 65.041664 40.409374 65.55729Q39.8 66.05729 38.846874 66.05729Q37.6125 66.05729 36.89375 65.166664Q36.05 64.104164 36.05 61.68229ZM37.128124 61.68229Q37.128124 63.791664 37.628124 64.49479Q38.128124 65.197914 38.846874 65.197914Q39.58125 65.197914 40.065624 64.49479Q40.565624 63.791664 40.565624 61.68229Q40.565624 59.55729 40.065624 58.86979Q39.58125 58.166664 38.83125 58.166664Q38.1125 58.166664 37.675 58.77604Q37.128124 59.55729 37.128124 61.68229ZM43.05 61.68229Q43.05 60.15104 43.3625 59.229164Q43.675 58.291664 44.284374 57.791664Q44.909374 57.291664 45.846874 57.291664Q46.534374 57.291664 47.05 57.572914Q47.58125 57.854164 47.925 58.385414Q48.26875 58.90104 48.45625 59.65104Q48.64375 60.40104 48.64375 61.68229Q48.64375 63.197914 48.33125 64.11979Q48.034374 65.041664 47.409374 65.55729Q46.8 66.05729 45.846874 66.05729Q44.6125 66.05729 43.89375 65.166664Q43.05 64.104164 43.05 61.68229ZM44.128124 61.68229Q44.128124 63.791664 44.628124 64.49479Q45.128124 65.197914 45.846874 65.197914Q46.58125 65.197914 47.065624 64.49479Q47.565624 63.791664 47.565624 61.68229Q47.565624 59.55729 47.065624 58.86979Q46.58125 58.166664 45.83125 58.166664Q45.1125 58.166664 44.675 58.77604Q44.128124 59.55729 44.128124 61.68229Z" fill-rule="nonzero"/><path fill="#000000" d="M112.42151 349.45L111.37463 349.45L111.37463 342.73126Q110.98401 343.09064 110.35901 343.46564Q109.74963 343.825 109.26526 343.9969L109.26526 342.98126Q110.14026 342.5594 110.79651 341.98126Q111.46838 341.3875 111.74963 340.825L112.42151 340.825L112.42151 349.45Z" fill-rule="nonzero"/><path fill="#000000" d="M196.81853 348.4344L196.81853 349.45L191.13103 349.45Q191.13103 349.075 191.25603 348.71564Q191.47478 348.1375 191.94353 347.575Q192.4279 347.0125 193.33415 346.27814Q194.7404 345.1219 195.22478 344.45Q195.72478 343.77814 195.72478 343.1844Q195.72478 342.5594 195.27165 342.1375Q194.81853 341.7 194.09978 341.7Q193.33415 341.7 192.88103 342.15314Q192.4279 342.60626 192.41228 343.41876L191.33415 343.3094Q191.44353 342.09064 192.16228 341.46564Q192.89665 340.825 194.13103 340.825Q195.3654 340.825 196.08415 341.5125Q196.8029 342.2 196.8029 343.21564Q196.8029 343.73126 196.58415 344.23126Q196.38103 344.71564 195.88103 345.27814Q195.39665 345.825 194.27165 346.77814Q193.31853 347.575 193.03728 347.8719Q192.77165 348.15314 192.59978 348.4344L196.81853 348.4344Z" fill-rule="nonzero"/><path fill="#000000" d="M274.09055 347.1844L275.15305 347.04376Q275.32492 347.9344 275.76242 348.34064Q276.19992 348.73126 276.82492 348.73126Q277.57492 348.73126 278.09055 348.21564Q278.60617 347.7 278.60617 346.9344Q278.60617 346.21564 278.1218 345.7469Q277.65305 345.2625 276.91867 345.2625Q276.6218 345.2625 276.16867 345.3875L276.29367 344.45Q276.40305 344.46564 276.46555 344.46564Q277.13742 344.46564 277.66867 344.1219Q278.21555 343.7625 278.21555 343.02814Q278.21555 342.45 277.82492 342.075Q277.4343 341.6844 276.8093 341.6844Q276.19992 341.6844 275.77805 342.075Q275.3718 342.46564 275.26242 343.23126L274.19992 343.04376Q274.38742 341.9969 275.07492 341.41876Q275.76242 340.825 276.77805 340.825Q277.48117 340.825 278.07492 341.1375Q278.66867 341.4344 278.98117 341.95Q279.29367 342.46564 279.29367 343.0594Q279.29367 343.60626 278.9968 344.075Q278.69992 344.52814 278.1218 344.79376Q278.8718 344.96564 279.29367 345.52814Q279.71555 346.075 279.71555 346.91876Q279.71555 348.04376 278.88742 348.825Q278.07492 349.60626 276.82492 349.60626Q275.69992 349.60626 274.94992 348.9344Q274.19992 348.2469 274.09055 347.1844Z" fill-rule="nonzero"/><path fill="#000000" d="M360.28445 349.45L360.28445 347.3875L356.5657 347.3875L356.5657 346.41876L360.48758 340.85626L361.34695 340.85626L361.34695 346.41876L362.5032 346.41876L362.5032 347.3875L361.34695 347.3875L361.34695 349.45L360.28445 349.45ZM360.28445 346.41876L360.28445 342.5594L357.59695 346.41876L360.28445 346.41876Z" fill-rule="nonzero"/><path fill="#000000" d="M439.72833 347.2L440.8377 347.10626Q440.9627 347.91876 441.4002 348.325Q441.85333 348.73126 442.49396 348.73126Q443.24396 348.73126 443.7752 348.15314Q444.30646 347.575 444.30646 346.6375Q444.30646 345.73126 443.79083 345.21564Q443.29083 344.6844 442.4627 344.6844Q441.9627 344.6844 441.54083 344.91876Q441.13458 345.15314 440.9002 345.5125L439.91583 345.3875L440.74396 340.98126L445.0252 340.98126L445.0252 341.98126L441.5877 341.98126L441.13458 344.29376Q441.9002 343.7469 442.74396 343.7469Q443.86896 343.7469 444.63458 344.52814Q445.41583 345.3094 445.41583 346.54376Q445.41583 347.7 444.74396 348.5594Q443.91583 349.59064 442.49396 349.59064Q441.32208 349.59064 440.57208 348.9344Q439.8377 348.27814 439.72833 347.2Z" fill-rule="nonzero"/><path fill="#000000" d="M528.016 342.96564L526.9691 343.04376Q526.8285 342.41876 526.5785 342.1375Q526.141 341.6844 525.516 341.6844Q525.016 341.6844 524.62537 341.96564Q524.141 342.34064 523.8441 343.04376Q523.56287 343.73126 523.54724 345.0125Q523.92224 344.4344 524.4691 344.15314Q525.0316 343.8719 525.641 343.8719Q526.68787 343.8719 527.42224 344.65314Q528.17224 345.4344 528.17224 346.65314Q528.17224 347.46564 527.81287 348.16876Q527.4691 348.85626 526.85974 349.23126Q526.25037 349.59064 525.48474 349.59064Q524.1566 349.59064 523.3285 348.6219Q522.50037 347.65314 522.50037 345.4344Q522.50037 342.9344 523.42224 341.8094Q524.2191 340.825 525.5785 340.825Q526.5941 340.825 527.23474 341.40314Q527.891 341.96564 528.016 342.96564ZM523.7191 346.66876Q523.7191 347.21564 523.93787 347.71564Q524.17224 348.2 524.5785 348.46564Q525.00037 348.73126 525.4691 348.73126Q526.12537 348.73126 526.60974 348.2Q527.0941 347.65314 527.0941 346.73126Q527.0941 345.84064 526.60974 345.325Q526.141 344.8094 525.42224 344.8094Q524.7035 344.8094 524.2035 345.325Q523.7191 345.84064 523.7191 346.66876Z" fill-rule="nonzero"/><path fill="#757575" d="M20.096874 37.55L20.096874 23.2375L25.4875 23.2375Q26.925 23.2375 27.675 23.3625Q28.721874 23.55 29.440624 24.05Q30.159374 24.534374 30.58125 25.425Q31.01875 26.315624 31.01875 27.378124Q31.01875 29.20625 29.846874 30.471874Q28.690624 31.721874 25.659374 31.721874L21.9875 31.721874L21.9875 37.55L20.096874 37.55ZM21.9875 30.034374L25.690624 30.034374Q27.51875 30.034374 28.284374 29.3625Q29.065624 28.675 29.065624 27.425Q29.065624 26.534374 28.6125 25.89375Q28.159374 25.253124 27.425 25.05Q26.940624 24.925 25.64375 24.925L21.9875 24.925L21.9875 30.034374ZM39.971874 34.20625L41.784374 34.440624Q41.3625 36.01875 40.190624 36.909374Q39.034374 37.784374 37.221874 37.784374Q34.95625 37.784374 33.6125 36.39375Q32.284374 34.9875 32.284374 32.45625Q32.284374 29.83125 33.628124 28.39375Q34.971874 26.940624 37.128124 26.940624Q39.20625 26.940624 40.51875 28.3625Q41.846874 29.76875 41.846874 32.346874Q41.846874 32.503124 41.83125 32.815624L34.096874 32.815624Q34.190624 34.51875 35.065624 35.425Q35.940624 36.33125 37.2375 36.33125Q38.20625 36.33125 38.878124 35.83125Q39.565624 35.315624 39.971874 34.20625ZM34.190624 31.3625L39.9875 31.3625Q39.878124 30.065624 39.33125 29.409374Q38.4875 28.39375 37.14375 28.39375Q35.940624 28.39375 35.1125 29.20625Q34.284374 30.003124 34.190624 31.3625ZM43.846874 37.55L43.846874 27.175L45.425 27.175L45.425 28.753124Q46.034374 27.64375 46.55 27.3Q47.065624 26.940624 47.675 26.940624Q48.565624 26.940624 49.4875 27.503124L48.878124 29.14375Q48.2375 28.753124 47.596874 28.753124Q47.01875 28.753124 46.55 29.1125Q46.096874 29.45625 45.89375 30.065624Q45.6125 31.003124 45.6125 32.1125L45.6125 37.55L43.846874 37.55ZM50.190624 33.253124L50.190624 31.4875L55.58125 31.4875L55.58125 33.253124L50.190624 33.253124ZM57.8625 37.55L57.8625 27.175L59.440624 27.175L59.440624 28.628124Q59.925 27.878124 60.7375 27.409374Q61.55 26.940624 62.58125 26.940624Q63.7375 26.940624 64.47188 27.425Q65.20625 27.89375 65.51875 28.753124Q66.75313 26.940624 68.72188 26.940624Q70.26875 26.940624 71.09688 27.8Q71.925 28.659374 71.925 30.425L71.925 37.55L70.175 37.55L70.175 31.01875Q70.175 29.95625 70.00313 29.503124Q69.83125 29.034374 69.37813 28.753124Q68.94063 28.471874 68.33125 28.471874Q67.2375 28.471874 66.50313 29.20625Q65.78438 29.925 65.78438 31.51875L65.78438 37.55L64.03438 37.55L64.03438 30.815624Q64.03438 29.64375 63.596874 29.065624Q63.175 28.471874 62.190624 28.471874Q61.45625 28.471874 60.815624 28.8625Q60.190624 29.253124 59.909374 30.003124Q59.628124 30.753124 59.628124 32.175L59.628124 37.55L57.8625 37.55ZM73.22188 32.3625Q73.22188 29.4875 74.81563 28.096874Q76.15938 26.940624 78.08125 26.940624Q80.22188 26.940624 81.56563 28.346874Q82.925 29.753124 82.925 32.221874Q82.925 34.221874 82.33125 35.378124Q81.7375 36.51875 80.58125 37.159374Q79.44063 37.784374 78.08125 37.784374Q75.89375 37.784374 74.55 36.39375Q73.22188 34.9875 73.22188 32.3625ZM75.01875 32.3625Q75.01875 34.3625 75.87813 35.346874Q76.75313 36.33125 78.08125 36.33125Q79.39375 36.33125 80.25313 35.346874Q81.12813 34.346874 81.12813 32.3Q81.12813 30.378124 80.25313 29.39375Q79.37813 28.39375 78.08125 28.39375Q76.75313 28.39375 75.87813 29.39375Q75.01875 30.378124 75.01875 32.3625ZM84.8625 37.55L84.8625 27.175L86.45625 27.175L86.45625 28.659374Q87.59688 26.940624 89.75313 26.940624Q90.69063 26.940624 91.47188 27.284374Q92.26875 27.6125 92.65938 28.159374Q93.05 28.70625 93.20625 29.45625Q93.3 29.95625 93.3 31.175L93.3 37.55L91.53438 37.55L91.53438 31.2375Q91.53438 30.159374 91.33125 29.628124Q91.12813 29.096874 90.59688 28.784374Q90.08125 28.471874 89.37813 28.471874Q88.25313 28.471874 87.44063 29.190624Q86.62813 29.89375 86.62813 31.878124L86.62813 37.55L84.8625 37.55ZM98.70625 35.971874L98.95625 37.534374Q98.22188 37.690624 97.62813 37.690624Q96.675 37.690624 96.14375 37.39375Q95.62813 37.08125 95.40938 36.596874Q95.19063 36.096874 95.19063 34.51875L95.19063 28.55L93.90938 28.55L93.90938 27.175L95.19063 27.175L95.19063 24.6125L96.94063 23.55L96.94063 27.175L98.70625 27.175L98.70625 28.55L96.94063 28.55L96.94063 34.6125Q96.94063 35.3625 97.03438 35.58125Q97.12813 35.784374 97.33125 35.925Q97.55 36.05 97.94063 36.05Q98.22188 36.05 98.70625 35.971874ZM100.8625 37.55L100.8625 23.2375L102.62813 23.2375L102.62813 28.3625Q103.8625 26.940624 105.7375 26.940624Q106.87813 26.940624 107.72188 27.39375Q108.58125 27.846874 108.94063 28.659374Q109.31563 29.45625 109.31563 30.971874L109.31563 37.55L107.56563 37.55L107.56563 30.971874Q107.56563 29.659374 106.9875 29.065624Q106.40938 28.45625 105.37813 28.45625Q104.59688 28.45625 103.89375 28.8625Q103.20625 29.26875 102.90938 29.971874Q102.62813 30.659374 102.62813 31.878124L102.62813 37.55L100.8625 37.55ZM115.51875 37.55L121.01875 23.2375L123.06563 23.2375L128.925 37.55L126.76875 37.55L125.09688 33.20625L119.1125 33.20625L117.53438 37.55L115.51875 37.55ZM119.65938 31.675L124.50313 31.675L123.01875 27.70625Q122.33125 25.89375 122.00313 24.7375Q121.72188 26.1125 121.22188 27.471874L119.65938 31.675ZM136.64375 33.753124L138.3625 33.971874Q138.08125 35.76875 136.90938 36.784374Q135.75313 37.784374 134.05 37.784374Q131.925 37.784374 130.62813 36.39375Q129.33125 35.003124 129.33125 32.409374Q129.33125 30.721874 129.87813 29.471874Q130.44063 28.20625 131.58125 27.58125Q132.72188 26.940624 134.06563 26.940624Q135.75313 26.940624 136.81563 27.8Q137.89375 28.659374 138.20625 30.221874L136.4875 30.4875Q136.25313 29.440624 135.62813 28.925Q135.00313 28.39375 134.12813 28.39375Q132.8 28.39375 131.97188 29.346874Q131.14375 30.3 131.14375 32.346874Q131.14375 34.440624 131.94063 35.39375Q132.7375 36.33125 134.03438 36.33125Q135.06563 36.33125 135.75313 35.70625Q136.45625 35.065624 136.64375 33.753124ZM146.64375 33.753124L148.3625 33.971874Q148.08125 35.76875 146.90938 36.784374Q145.75313 37.784374 144.05 37.784374Q141.925 37.784374 140.62813 36.39375Q139.33125 35.003124 139.33125 32.409374Q139.33125 30.721874 139.87813 29.471874Q140.44063 28.20625 141.58125 27.58125Q142.72188 26.940624 144.06563 26.940624Q145.75313 26.940624 146.81563 27.8Q147.89375 28.659374 148.20625 30.221874L146.4875 30.4875Q146.25313 29.440624 145.62813 28.925Q145.00313 28.39375 144.12813 28.39375Q142.8 28.39375 141.97188 29.346874Q141.14375 30.3 141.14375 32.346874Q141.14375 34.440624 141.94063 35.39375Q142.7375 36.33125 144.03438 36.33125Q145.06563 36.33125 145.75313 35.70625Q146.45625 35.065624 146.64375 33.753124ZM149.84688 37.55L149.84688 27.175L151.425 27.175L151.425 28.753124Q152.03438 27.64375 152.55 27.3Q153.06563 26.940624 153.675 26.940624Q154.56563 26.940624 155.4875 27.503124L154.87813 29.14375Q154.2375 28.753124 153.59688 28.753124Q153.01875 28.753124 152.55 29.1125Q152.09688 29.45625 151.89375 30.065624Q151.6125 31.003124 151.6125 32.1125L151.6125 37.55L149.84688 37.55ZM163.65938 37.55L163.65938 36.01875Q162.45625 37.784374 160.37813 37.784374Q159.45625 37.784374 158.65938 37.440624Q157.8625 37.08125 157.47188 36.55Q157.09688 36.01875 156.94063 35.2375Q156.83125 34.721874 156.83125 33.596874L156.83125 27.175L158.58125 27.175L158.58125 32.925Q158.58125 34.3 158.69063 34.784374Q158.8625 35.471874 159.39375 35.878124Q159.94063 36.26875 160.72188 36.26875Q161.51875 36.26875 162.20625 35.8625Q162.90938 35.45625 163.19063 34.76875Q163.4875 34.065624 163.4875 32.7375L163.4875 27.175L165.2375 27.175L165.2375 37.55L163.65938 37.55ZM173.64375 36.26875Q172.65938 37.096874 171.75313 37.440624Q170.84688 37.784374 169.81563 37.784374Q168.1125 37.784374 167.19063 36.95625Q166.26875 36.1125 166.26875 34.815624Q166.26875 34.05 166.6125 33.425Q166.97188 32.8 167.53438 32.425Q168.09688 32.034374 168.8 31.83125Q169.31563 31.70625 170.3625 31.565624Q172.4875 31.315624 173.4875 30.971874Q173.50313 30.6125 173.50313 30.503124Q173.50313 29.440624 173.00313 28.9875Q172.33125 28.39375 171.00313 28.39375Q169.75313 28.39375 169.15938 28.83125Q168.58125 29.26875 168.3 30.378124L166.58125 30.14375Q166.81563 29.034374 167.34688 28.3625Q167.87813 27.675 168.89375 27.315624Q169.90938 26.940624 171.25313 26.940624Q172.58125 26.940624 173.40938 27.253124Q174.2375 27.565624 174.62813 28.05Q175.01875 28.51875 175.175 29.2375Q175.26875 29.690624 175.26875 30.8625L175.26875 33.20625Q175.26875 35.659374 175.37813 36.315624Q175.4875 36.95625 175.83125 37.55L173.9875 37.55Q173.72188 37.003124 173.64375 36.26875ZM173.4875 32.346874Q172.53438 32.7375 170.6125 33.003124Q169.53438 33.159374 169.08125 33.3625Q168.64375 33.55 168.39375 33.925Q168.14375 34.3 168.14375 34.76875Q168.14375 35.471874 168.675 35.940624Q169.20625 36.409374 170.2375 36.409374Q171.25313 36.409374 172.03438 35.971874Q172.83125 35.51875 173.20625 34.753124Q173.4875 34.14375 173.4875 32.9875L173.4875 32.346874ZM177.83125 37.55L177.83125 23.2375L179.58125 23.2375L179.58125 37.55L177.83125 37.55Z" fill-rule="nonzero"/></svg>