<svg xmlns="http://www.w3.org/2000/svg" xmlns:xlink="http://www.w3.org/1999/xlink" xmlns:lucid="lucid" width="392.9" height="511"><g transform="translate(-310 -260)" lucid:page-tab-id="jSo5L4DStiVI"><path d="M0 0h1760v1360H0z" fill="#fff"/><path d="M536.25 299.14c0 10.6-11.92 19.14-26.63 19.14-14.77 0-26.7-8.55-26.7-19.14 0-10.58 11.93-19.14 26.7-19.14 14.7 0 26.63 8.56 26.63 19.14zM486.75 320.17h46.27c14.25 0 14.25 0 14.25 10.3 0 10.28 0 10.28-14.25 10.28h-46.27c-14.25 0-14.25 0-14.25-10.3 0-10.28 0-10.28 14.25-10.28z" fill="#29aae1"/><path d="M489.9 337.42h39.38v42.48H489.9v-42.48z" fill="#29aae1"/><path d="M489.9 378.3h17.78v46.84H489.9V378.3zM512.77 378.75h16.5v46.1h-16.5v-46.1zM472.65 327.85h13.5v41.03h-13.5v-41.03zM533.55 328.43h13.65v41.04h-13.65v-41.04z" fill="#29aae1"/><use xlink:href="#a" transform="matrix(1,0,0,1,442.5,425) translate(44.10493827160494 19.444444444444443)"/><path d="M643.22 520h13.56c12.9 0 23.28 1.98 23.28 4.5v81c0 2.52-10.38 4.5-23.28 4.5h-13.56c-12.84 0-23.22-1.98-23.22-4.5v-81c0-2.52 10.38-4.5 23.22-4.5z" fill="#29aae1"/><path d="M624.2 527.2h51.66v73.53H624.2V527.2zM641.36 523.06h16.74c.42 0 .78.27.78.54s-.36.54-.78.54h-16.74c-.42 0-.78-.27-.78-.54s.36-.54.78-.54zM643.52 605.68c0 .63-.48 1.08-1.14 1.08-.6 0-1.14-.45-1.14-1.08 0-.54.54-1.08 1.14-1.08.66 0 1.14.54 1.14 1.08zM651.8 605.68c0 .63-.48 1.08-1.14 1.08-.6 0-1.08-.45-1.08-1.08 0-.54.48-1.08 1.08-1.08.66 0 1.14.54 1.14 1.08zM659.66 605.68c0 .63-.54 1.08-1.14 1.08-.66 0-1.14-.45-1.14-1.08 0-.54.48-1.08 1.14-1.08.6 0 1.14.54 1.14 1.08z" fill="#fff"/><path d="M625.64 528.46h48.72v70.92h-48.72v-70.92z" fill="gray"/><use xlink:href="#b" transform="matrix(1,0,0,1,590,610) translate(30.4320987654321 18.111111111111114)"/><use xlink:href="#c" transform="matrix(1,0,0,1,590,610) translate(27.901234567901234 44.777777777777786)"/><path d="M330 520h70.07v120.12H330V520z" fill="#29aae1"/><path d="M356.74 603.4h35.63c1.12 0 1.12 0 1.12 1.2 0 1.08 0 1.08-1.13 1.08h-35.63c-1.2 0-1.2 0-1.2-1.08 0-1.2 0-1.2 1.2-1.2zM356.8 609.52h35.5c1.54 0 1.54 0 1.54 1.56v.36c0 1.56 0 1.56-1.54 1.56h-35.5c-1.6 0-1.6 0-1.6-1.56v-.36c0-1.56 0-1.56 1.6-1.56zM356.95 617.08h35.56c1.55 0 1.55 0 1.55 1.56v.36c0 1.56 0 1.56-1.54 1.56h-35.55c-1.54 0-1.54 0-1.54-1.56v-.36c0-1.56 0-1.56 1.55-1.56zM389.36 578.32c0 3.12-2.52 5.64-5.74 5.64s-5.8-2.52-5.8-5.64c0-3.12 2.58-5.64 5.8-5.64 3.22 0 5.74 2.52 5.74 5.64z" fill="#fff"/><path d="M387.05 578.32c0 1.92-1.54 3.48-3.5 3.48s-3.57-1.56-3.57-3.48 1.6-3.48 3.57-3.48c1.96 0 3.5 1.56 3.5 3.48z" fill="#54bbe7"/><use xlink:href="#d" transform="matrix(1,0,0,1,300,640) translate(31.04938271604938 19.444444444444443)"/><path d="M503.22 520h13.56c12.9 0 23.28 1.98 23.28 4.5v81c0 2.52-10.38 4.5-23.28 4.5h-13.56c-12.84 0-23.22-1.98-23.22-4.5v-81c0-2.52 10.38-4.5 23.22-4.5z" fill="#29aae1"/><path d="M484.2 527.2h51.66v73.53H484.2V527.2zM501.36 523.06h16.74c.42 0 .78.27.78.54s-.36.54-.78.54h-16.74c-.42 0-.78-.27-.78-.54s.36-.54.78-.54zM503.52 605.68c0 .63-.48 1.08-1.14 1.08-.6 0-1.14-.45-1.14-1.08 0-.54.54-1.08 1.14-1.08.66 0 1.14.54 1.14 1.08zM511.8 605.68c0 .63-.48 1.08-1.14 1.08-.6 0-1.08-.45-1.08-1.08 0-.54.48-1.08 1.08-1.08.66 0 1.14.54 1.14 1.08zM519.66 605.68c0 .63-.54 1.08-1.14 1.08-.66 0-1.14-.45-1.14-1.08 0-.54.48-1.08 1.14-1.08.6 0 1.14.54 1.14 1.08z" fill="#fff"/><path d="M485.64 528.46h48.72v70.92h-48.72v-70.92z" fill="gray"/><use xlink:href="#e" transform="matrix(1,0,0,1,450,610) translate(30.432098765432098 19.444444444444443)"/><path d="M548.2 352.5h110.74c3.32 0 6 2.7 6 6v143.7" stroke="#5e5e5e" stroke-width="2" fill="none"/><path d="M548.23 353.5h-1.03v-2h1.03z" fill="#5e5e5e"/><path d="M664.94 517.47l-4.63-14.27h9.28z" stroke="#5e5e5e" stroke-width="2" fill="#5e5e5e"/><path d="M528.94 425.86v40.75c0 3.32-2.7 6-6 6h-22c-3.3 0-6 2.7-6 6v23.26" stroke="#5e5e5e" stroke-width="2" fill="none"/><path d="M529.94 425.88h-2v-1.02h1.33v-3h.67z" fill="#5e5e5e"/><path d="M494.94 517.13l-4.63-14.27h9.28z" stroke="#5e5e5e" stroke-width="2" fill="#5e5e5e"/><path d="M471.65 352.5H353.3c-3.33 0-6 2.7-6 6v143" stroke="#5e5e5e" stroke-width="2" fill="none"/><path d="M472.65 353.5h-1.03v-2h1.03z" fill="#5e5e5e"/><path d="M347.3 516.76l-4.65-14.26h9.27z" stroke="#5e5e5e" stroke-width="2" fill="#5e5e5e"/><path d="M382.75 641.12v8.93m0 8.93v17.86m0 8.93v17.87m0 8.93v8.93" stroke="#5e5e5e" stroke-width="2" fill="none"/><path d="M383.75 641.15h-2v-1.03h2z" fill="#5e5e5e"/><path d="M382.75 736.76l-4.64-14.26h9.28z" stroke="#5e5e5e" stroke-width="2" fill="#5e5e5e"/><path d="M525.07 610.67v9.24m0 9.24v18.47m0 9.25v18.47m0 9.24v18.47m0 9.23v9.24" stroke="#5e5e5e" stroke-width="2" fill="none"/><path d="M526.07 610.7h-2v-.94h.5l1.5-.24z" fill="#5e5e5e"/><path d="M525.07 736.76l-4.63-14.26h9.27z" stroke="#5e5e5e" stroke-width="2" fill="#5e5e5e"/><path d="M665.07 610.67v9.24m0 9.24v18.47m0 9.25v18.47m0 9.24v18.47m0 9.23v9.24" stroke="#5e5e5e" stroke-width="2" fill="none"/><path d="M666.07 610.7h-2v-.94h.5l1.5-.24z" fill="#5e5e5e"/><path d="M665.07 736.76l-4.63-14.26h9.27z" stroke="#5e5e5e" stroke-width="2" fill="#5e5e5e"/><defs><path fill="#333" d="M232-93c-1 65-40 97-104 97C67 4 28-28 28-90v-158h33c8 89-33 224 67 224 102 0 64-133 71-224h33v155" id="f"/><path fill="#333" d="M135-143c-3-34-86-38-87 0 15 53 115 12 119 90S17 21 10-45l28-5c4 36 97 45 98 0-10-56-113-15-118-90-4-57 82-63 122-42 12 7 21 19 24 35" id="g"/><path fill="#333" d="M100-194c63 0 86 42 84 106H49c0 40 14 67 53 68 26 1 43-12 49-29l28 8c-11 28-37 45-77 45C44 4 14-33 15-96c1-61 26-98 85-98zm52 81c6-60-76-77-97-28-3 7-6 17-6 28h103" id="h"/><path fill="#333" d="M114-163C36-179 61-72 57 0H25l-1-190h30c1 12-1 29 2 39 6-27 23-49 58-41v29" id="i"/><g id="a"><use transform="matrix(0.06172839506172839,0,0,0.06172839506172839,0,0)" xlink:href="#f"/><use transform="matrix(0.06172839506172839,0,0,0.06172839506172839,15.987654320987653,0)" xlink:href="#g"/><use transform="matrix(0.06172839506172839,0,0,0.06172839506172839,27.098765432098766,0)" xlink:href="#h"/><use transform="matrix(0.06172839506172839,0,0,0.06172839506172839,39.44444444444444,0)" xlink:href="#i"/></g><path fill="#333" d="M185-189c-5-48-123-54-124 2 14 75 158 14 163 119 3 78-121 87-175 55-17-10-28-26-33-46l33-7c5 56 141 63 141-1 0-78-155-14-162-118-5-82 145-84 179-34 5 7 8 16 11 25" id="j"/><path fill="#333" d="M210-169c-67 3-38 105-44 169h-31v-121c0-29-5-50-35-48C34-165 62-65 56 0H25l-1-190h30c1 10-1 24 2 32 10-44 99-50 107 0 11-21 27-35 58-36 85-2 47 119 55 194h-31v-121c0-29-5-49-35-48" id="k"/><path fill="#333" d="M141-36C126-15 110 5 73 4 37 3 15-17 15-53c-1-64 63-63 125-63 3-35-9-54-41-54-24 1-41 7-42 31l-33-3c5-37 33-52 76-52 45 0 72 20 72 64v82c-1 20 7 32 28 27v20c-31 9-61-2-59-35zM48-53c0 20 12 33 32 33 41-3 63-29 60-74-43 2-92-5-92 41" id="l"/><path fill="#333" d="M59-47c-2 24 18 29 38 22v24C64 9 27 4 27-40v-127H5v-23h24l9-43h21v43h35v23H59v120" id="m"/><g id="b"><use transform="matrix(0.06172839506172839,0,0,0.06172839506172839,0,0)" xlink:href="#j"/><use transform="matrix(0.06172839506172839,0,0,0.06172839506172839,14.814814814814813,0)" xlink:href="#k"/><use transform="matrix(0.06172839506172839,0,0,0.06172839506172839,33.2716049382716,0)" xlink:href="#l"/><use transform="matrix(0.06172839506172839,0,0,0.06172839506172839,45.61728395061728,0)" xlink:href="#i"/><use transform="matrix(0.06172839506172839,0,0,0.06172839506172839,52.962962962962955,0)" xlink:href="#m"/></g><path fill="#333" d="M30-248c87 1 191-15 191 75 0 78-77 80-158 76V0H30v-248zm33 125c57 0 124 11 124-50 0-59-68-47-124-48v98" id="n"/><path fill="#333" d="M106-169C34-169 62-67 57 0H25v-261h32l-1 103c12-21 28-36 61-36 89 0 53 116 60 194h-32v-121c2-32-8-49-39-48" id="o"/><path fill="#333" d="M100-194c62-1 85 37 85 99 1 63-27 99-86 99S16-35 15-95c0-66 28-99 85-99zM99-20c44 1 53-31 53-75 0-43-8-75-51-75s-53 32-53 75 10 74 51 75" id="p"/><path fill="#333" d="M117-194c89-4 53 116 60 194h-32v-121c0-31-8-49-39-48C34-167 62-67 57 0H25l-1-190h30c1 10-1 24 2 32 11-22 29-35 61-36" id="q"/><g id="c"><use transform="matrix(0.06172839506172839,0,0,0.06172839506172839,0,0)" xlink:href="#n"/><use transform="matrix(0.06172839506172839,0,0,0.06172839506172839,14.814814814814813,0)" xlink:href="#o"/><use transform="matrix(0.06172839506172839,0,0,0.06172839506172839,27.160493827160494,0)" xlink:href="#p"/><use transform="matrix(0.06172839506172839,0,0,0.06172839506172839,39.50617283950617,0)" xlink:href="#q"/><use transform="matrix(0.06172839506172839,0,0,0.06172839506172839,51.85185185185185,0)" xlink:href="#h"/></g><path fill="#333" d="M30 0v-248h33v221h125V0H30" id="r"/><path fill="#333" d="M115-194c55 1 70 41 70 98S169 2 115 4C84 4 66-9 55-30l1 105H24l-1-265h31l2 30c10-21 28-34 59-34zm-8 174c40 0 45-34 45-75s-6-73-45-74c-42 0-51 32-51 76 0 43 10 73 51 73" id="s"/><g id="d"><use transform="matrix(0.06172839506172839,0,0,0.06172839506172839,0,0)" xlink:href="#r"/><use transform="matrix(0.06172839506172839,0,0,0.06172839506172839,12.345679012345679,0)" xlink:href="#l"/><use transform="matrix(0.06172839506172839,0,0,0.06172839506172839,24.691358024691358,0)" xlink:href="#s"/><use transform="matrix(0.06172839506172839,0,0,0.06172839506172839,37.03703703703704,0)" xlink:href="#m"/><use transform="matrix(0.06172839506172839,0,0,0.06172839506172839,43.20987654320988,0)" xlink:href="#p"/><use transform="matrix(0.06172839506172839,0,0,0.06172839506172839,55.55555555555556,0)" xlink:href="#s"/></g><path fill="#333" d="M127-220V0H93v-220H8v-28h204v28h-85" id="t"/><path fill="#333" d="M115-194c53 0 69 39 70 98 0 66-23 100-70 100C84 3 66-7 56-30L54 0H23l1-261h32v101c10-23 28-34 59-34zm-8 174c40 0 45-34 45-75 0-40-5-75-45-74-42 0-51 32-51 76 0 43 10 73 51 73" id="u"/><path fill="#333" d="M24 0v-261h32V0H24" id="v"/><g id="e"><use transform="matrix(0.06172839506172839,0,0,0.06172839506172839,0,0)" xlink:href="#t"/><use transform="matrix(0.06172839506172839,0,0,0.06172839506172839,11.049382716049381,0)" xlink:href="#l"/><use transform="matrix(0.06172839506172839,0,0,0.06172839506172839,23.39506172839506,0)" xlink:href="#u"/><use transform="matrix(0.06172839506172839,0,0,0.06172839506172839,35.74074074074074,0)" xlink:href="#v"/><use transform="matrix(0.06172839506172839,0,0,0.06172839506172839,40.617283950617285,0)" xlink:href="#h"/><use transform="matrix(0.06172839506172839,0,0,0.06172839506172839,52.96296296296296,0)" xlink:href="#m"/></g></defs></g></svg>