<svg xmlns="http://www.w3.org/2000/svg" xmlns:xlink="http://www.w3.org/1999/xlink" xmlns:lucid="lucid" width="1400" height="625.33"><g transform="translate(-60 -100)" lucid:page-tab-id="0_0"><path d="M0 0h1760v1360H0z" fill="#fff"/><path d="M560 366c0-3.3 2.7-6 6-6h468c3.3 0 6 2.7 6 6v108c0 3.3-2.7 6-6 6H566c-3.3 0-6-2.7-6-6z" stroke="#5e5e5e" stroke-width="3" fill="#fff"/><path d="M560 360.67c0-3.32 2.7-6 6-6h228c3.3 0 6 2.68 6 6v118.66c0 3.32-2.7 6-6 6H566c-3.3 0-6-2.68-6-6z" stroke="#5e5e5e" stroke-width="3" fill="#fff"/><use xlink:href="#a" transform="matrix(1,0,0,1,572,366.6666666666667) translate(43.308641975308646 17.77777777777778)"/><use xlink:href="#b" transform="matrix(1,0,0,1,572,366.6666666666667) translate(123.37037037037037 17.77777777777778)"/><use xlink:href="#c" transform="matrix(1,0,0,1,572,366.6666666666667) translate(26.672839506172835 44.44444444444444)"/><use xlink:href="#d" transform="matrix(1,0,0,1,572,366.6666666666667) translate(106.79629629629629 44.44444444444444)"/><use xlink:href="#e" transform="matrix(1,0,0,1,572,366.6666666666667) translate(85.8395061728395 71.11111111111111)"/><use xlink:href="#f" transform="matrix(1,0,0,1,572,366.6666666666667) translate(100.00617283950618 97.77777777777777)"/><path d="M800 360.67c0-3.32 2.7-6 6-6h228c3.3 0 6 2.68 6 6v118.66c0 3.32-2.7 6-6 6H806c-3.3 0-6-2.68-6-6z" stroke="#5e5e5e" stroke-width="3" fill="#fff"/><use xlink:href="#g" transform="matrix(1,0,0,1,812,366.6666666666667) translate(27.228395061728406 17.77777777777778)"/><use xlink:href="#d" transform="matrix(1,0,0,1,812,366.6666666666667) translate(106.24074074074075 17.77777777777778)"/><use xlink:href="#h" transform="matrix(1,0,0,1,812,366.6666666666667) translate(27.876543209876544 44.44444444444444)"/><use xlink:href="#d" transform="matrix(1,0,0,1,812,366.6666666666667) translate(105.5925925925926 44.44444444444444)"/><use xlink:href="#i" transform="matrix(1,0,0,1,812,366.6666666666667) translate(83.98765432098766 71.11111111111111)"/><use xlink:href="#f" transform="matrix(1,0,0,1,812,366.6666666666667) translate(100.00617283950618 97.77777777777777)"/><path d="M1200 346c0-3.3 2.7-6 6-6h188c3.3 0 6 2.7 6 6v108c0 3.3-2.7 6-6 6h-188c-3.3 0-6-2.7-6-6z" stroke="#5e5e5e" stroke-width="3" fill="#fff"/><use xlink:href="#a" transform="matrix(1,0,0,1,1212,352) translate(22.074074074074076 38.77777777777778)"/><use xlink:href="#j" transform="matrix(1,0,0,1,1212,352) translate(102.1358024691358 38.77777777777778)"/><use xlink:href="#c" transform="matrix(1,0,0,1,1212,352) translate(6.672839506172835 65.44444444444446)"/><use xlink:href="#k" transform="matrix(1,0,0,1,1212,352) translate(86.79629629629629 65.44444444444446)"/><path d="M1220 366c0-3.3 2.7-6 6-6h188c3.3 0 6 2.7 6 6v108c0 3.3-2.7 6-6 6h-188c-3.3 0-6-2.7-6-6z" stroke="#5e5e5e" stroke-width="3" fill="#fff"/><use xlink:href="#a" transform="matrix(1,0,0,1,1232,372) translate(22.074074074074076 38.77777777777778)"/><use xlink:href="#j" transform="matrix(1,0,0,1,1232,372) translate(102.1358024691358 38.77777777777778)"/><use xlink:href="#c" transform="matrix(1,0,0,1,1232,372) translate(6.672839506172835 65.44444444444446)"/><use xlink:href="#k" transform="matrix(1,0,0,1,1232,372) translate(86.79629629629629 65.44444444444446)"/><path d="M1240 380.67c0-3.32 2.7-6 6-6h188c3.3 0 6 2.68 6 6v118.66c0 3.32-2.7 6-6 6h-188c-3.3 0-6-2.68-6-6z" stroke="#5e5e5e" stroke-width="3" fill="#fff"/><use xlink:href="#a" transform="matrix(1,0,0,1,1252,386.6666666666667) translate(22.074074074074076 17.77777777777778)"/><use xlink:href="#j" transform="matrix(1,0,0,1,1252,386.6666666666667) translate(102.1358024691358 17.77777777777778)"/><use xlink:href="#c" transform="matrix(1,0,0,1,1252,386.6666666666667) translate(6.672839506172835 44.44444444444444)"/><use xlink:href="#d" transform="matrix(1,0,0,1,1252,386.6666666666667) translate(86.79629629629629 44.44444444444444)"/><use xlink:href="#e" transform="matrix(1,0,0,1,1252,386.6666666666667) translate(65.8395061728395 71.11111111111111)"/><use xlink:href="#l" transform="matrix(1,0,0,1,1252,386.6666666666667) translate(59.66666666666667 97.77777777777777)"/><use xlink:href="#m" transform="matrix(1,0,0,1,1252,386.6666666666667) translate(100.34567901234568 97.77777777777777)"/><path d="M80 166c0-3.3 2.7-6 6-6h188c3.3 0 6 2.7 6 6v108c0 3.3-2.7 6-6 6H86c-3.3 0-6-2.7-6-6z" stroke="#5e5e5e" stroke-width="3" fill="#fff"/><use xlink:href="#g" transform="matrix(1,0,0,1,92,172) translate(7.228395061728406 26.87152777777778)"/><use xlink:href="#d" transform="matrix(1,0,0,1,92,172) translate(86.24074074074075 26.87152777777778)"/><use xlink:href="#h" transform="matrix(1,0,0,1,92,172) translate(7.876543209876544 53.53819444444445)"/><use xlink:href="#d" transform="matrix(1,0,0,1,92,172) translate(85.5925925925926 53.53819444444445)"/><use xlink:href="#n" transform="matrix(1,0,0,1,92,172) translate(78.77160493827161 80.20486111111111)"/><path d="M80 366c0-3.3 2.7-6 6-6h188c3.3 0 6 2.7 6 6v108c0 3.3-2.7 6-6 6H86c-3.3 0-6-2.7-6-6z" stroke="#5e5e5e" stroke-width="3" fill="#fff"/><use xlink:href="#g" transform="matrix(1,0,0,1,92,372) translate(7.228395061728406 26.87152777777778)"/><use xlink:href="#d" transform="matrix(1,0,0,1,92,372) translate(86.24074074074075 26.87152777777778)"/><use xlink:href="#h" transform="matrix(1,0,0,1,92,372) translate(7.876543209876544 53.53819444444445)"/><use xlink:href="#d" transform="matrix(1,0,0,1,92,372) translate(85.5925925925926 53.53819444444445)"/><use xlink:href="#o" transform="matrix(1,0,0,1,92,372) translate(80.5925925925926 80.20486111111111)"/><path d="M80 566c0-3.3 2.7-6 6-6h188c3.3 0 6 2.7 6 6v108c0 3.3-2.7 6-6 6H86c-3.3 0-6-2.7-6-6z" stroke="#5e5e5e" stroke-width="3" fill="#fff"/><use xlink:href="#g" transform="matrix(1,0,0,1,92,572) translate(7.228395061728406 26.87152777777778)"/><use xlink:href="#d" transform="matrix(1,0,0,1,92,572) translate(86.24074074074075 26.87152777777778)"/><use xlink:href="#h" transform="matrix(1,0,0,1,92,572) translate(7.876543209876544 53.53819444444445)"/><use xlink:href="#d" transform="matrix(1,0,0,1,92,572) translate(85.5925925925926 53.53819444444445)"/><use xlink:href="#p" transform="matrix(1,0,0,1,92,572) translate(79.35802469135803 80.20486111111111)"/><path d="M560 566c0-3.3 2.7-6 6-6h468c3.3 0 6 2.7 6 6v108c0 3.3-2.7 6-6 6H566c-3.3 0-6-2.7-6-6z" stroke="#5e5e5e" stroke-width="3" fill="#fff"/><path d="M560 560.67c0-3.32 2.7-6 6-6h228c3.3 0 6 2.68 6 6v118.66c0 3.32-2.7 6-6 6H566c-3.3 0-6-2.68-6-6z" stroke="#5e5e5e" stroke-width="3" fill="#fff"/><use xlink:href="#a" transform="matrix(1,0,0,1,572,566.6666666666666) translate(43.308641975308646 17.77777777777778)"/><use xlink:href="#b" transform="matrix(1,0,0,1,572,566.6666666666666) translate(123.37037037037037 17.77777777777778)"/><use xlink:href="#c" transform="matrix(1,0,0,1,572,566.6666666666666) translate(26.672839506172835 44.44444444444444)"/><use xlink:href="#d" transform="matrix(1,0,0,1,572,566.6666666666666) translate(106.79629629629629 44.44444444444444)"/><use xlink:href="#e" transform="matrix(1,0,0,1,572,566.6666666666666) translate(85.8395061728395 71.11111111111111)"/><use xlink:href="#q" transform="matrix(1,0,0,1,572,566.6666666666666) translate(100.00617283950618 97.77777777777777)"/><path d="M800 560.67c0-3.32 2.7-6 6-6h228c3.3 0 6 2.68 6 6v118.66c0 3.32-2.7 6-6 6H806c-3.3 0-6-2.68-6-6z" stroke="#5e5e5e" stroke-width="3" fill="#fff"/><use xlink:href="#g" transform="matrix(1,0,0,1,812,566.6666666666666) translate(27.228395061728406 17.77777777777778)"/><use xlink:href="#d" transform="matrix(1,0,0,1,812,566.6666666666666) translate(106.24074074074075 17.77777777777778)"/><use xlink:href="#h" transform="matrix(1,0,0,1,812,566.6666666666666) translate(27.876543209876544 44.44444444444444)"/><use xlink:href="#d" transform="matrix(1,0,0,1,812,566.6666666666666) translate(105.5925925925926 44.44444444444444)"/><use xlink:href="#i" transform="matrix(1,0,0,1,812,566.6666666666666) translate(83.98765432098766 71.11111111111111)"/><use xlink:href="#q" transform="matrix(1,0,0,1,812,566.6666666666666) translate(100.00617283950618 97.77777777777777)"/><path d="M1200 546c0-3.3 2.7-6 6-6h188c3.3 0 6 2.7 6 6v108c0 3.3-2.7 6-6 6h-188c-3.3 0-6-2.7-6-6z" stroke="#5e5e5e" stroke-width="3" fill="#fff"/><g><use xlink:href="#a" transform="matrix(1,0,0,1,1212,552) translate(22.074074074074076 38.77777777777778)"/><use xlink:href="#j" transform="matrix(1,0,0,1,1212,552) translate(102.1358024691358 38.77777777777778)"/><use xlink:href="#c" transform="matrix(1,0,0,1,1212,552) translate(6.672839506172835 65.44444444444446)"/><use xlink:href="#k" transform="matrix(1,0,0,1,1212,552) translate(86.79629629629629 65.44444444444446)"/></g><path d="M1220 566c0-3.3 2.7-6 6-6h188c3.3 0 6 2.7 6 6v108c0 3.3-2.7 6-6 6h-188c-3.3 0-6-2.7-6-6z" stroke="#5e5e5e" stroke-width="3" fill="#fff"/><g><use xlink:href="#a" transform="matrix(1,0,0,1,1232,572) translate(22.074074074074076 38.77777777777778)"/><use xlink:href="#j" transform="matrix(1,0,0,1,1232,572) translate(102.1358024691358 38.77777777777778)"/><use xlink:href="#c" transform="matrix(1,0,0,1,1232,572) translate(6.672839506172835 65.44444444444446)"/><use xlink:href="#k" transform="matrix(1,0,0,1,1232,572) translate(86.79629629629629 65.44444444444446)"/></g><path d="M1240 580.67c0-3.32 2.7-6 6-6h188c3.3 0 6 2.68 6 6v118.66c0 3.32-2.7 6-6 6h-188c-3.3 0-6-2.68-6-6z" stroke="#5e5e5e" stroke-width="3" fill="#fff"/><g><use xlink:href="#a" transform="matrix(1,0,0,1,1252,586.6666666666666) translate(22.074074074074076 17.77777777777778)"/><use xlink:href="#j" transform="matrix(1,0,0,1,1252,586.6666666666666) translate(102.1358024691358 17.77777777777778)"/><use xlink:href="#c" transform="matrix(1,0,0,1,1252,586.6666666666666) translate(6.672839506172835 44.44444444444444)"/><use xlink:href="#d" transform="matrix(1,0,0,1,1252,586.6666666666666) translate(86.79629629629629 44.44444444444444)"/><use xlink:href="#e" transform="matrix(1,0,0,1,1252,586.6666666666666) translate(65.8395061728395 71.11111111111111)"/><use xlink:href="#l" transform="matrix(1,0,0,1,1252,586.6666666666666) translate(59.66666666666667 97.77777777777777)"/><use xlink:href="#r" transform="matrix(1,0,0,1,1252,586.6666666666666) translate(100.34567901234568 97.77777777777777)"/></g><path d="M560 126c0-3.3 2.7-6 6-6h188c3.3 0 6 2.7 6 6v108c0 3.3-2.7 6-6 6H566c-3.3 0-6-2.7-6-6z" stroke="#5e5e5e" stroke-width="3" fill="#fff"/><g><use xlink:href="#a" transform="matrix(1,0,0,1,572,132) translate(22.074074074074076 26.77777777777778)"/><use xlink:href="#j" transform="matrix(1,0,0,1,572,132) translate(102.1358024691358 26.77777777777778)"/><use xlink:href="#c" transform="matrix(1,0,0,1,572,132) translate(6.672839506172835 53.44444444444445)"/><use xlink:href="#d" transform="matrix(1,0,0,1,572,132) translate(86.79629629629629 53.44444444444445)"/><use xlink:href="#s" transform="matrix(1,0,0,1,572,132) translate(80.00617283950618 80.11111111111111)"/></g><path d="M282.5 220H414c3.3 0 6-2.7 6-6v-28c0-3.3 2.7-6 6-6h114" stroke="#5e5e5e" stroke-width="2" fill="none"/><path d="M282.53 221h-1.03v-2h1.03z" fill="#5e5e5e"/><path d="M555.26 180L541 184.64v-9.28z" stroke="#5e5e5e" stroke-width="2" fill="#5e5e5e"/><path d="M282.5 420H540" stroke="#5e5e5e" stroke-width="2" fill="none"/><path d="M282.53 421h-1.03v-2h1.03z" fill="#5e5e5e"/><path d="M555.26 420L541 424.64v-9.28z" stroke="#5e5e5e" stroke-width="2" fill="#5e5e5e"/><path d="M282.5 198.67H434c3.3 0 6 2.68 6 6V377.7c0 3.32 2.7 6 6 6h94" stroke="#5e5e5e" stroke-width="2" fill="none"/><path d="M282.53 199.67h-1.03v-2h1.03z" fill="#5e5e5e"/><path d="M555.26 383.7L541 388.34v-9.27z" stroke="#5e5e5e" stroke-width="2" fill="#5e5e5e"/><path d="M282.5 240H414c3.3 0 6 2.7 6 6v325.9c0 3.3 2.7 6 6 6h114" stroke="#5e5e5e" stroke-width="2" fill="none"/><path d="M282.53 241h-1.03v-2h1.03z" fill="#5e5e5e"/><path d="M555.26 577.9L541 582.53v-9.27z" stroke="#5e5e5e" stroke-width="2" fill="#5e5e5e"/><path d="M282.5 381.33H374c3.3 0 6-2.68 6-6V146c0-3.3 2.7-6 6-6h154" stroke="#5e5e5e" stroke-width="2" fill="none"/><path d="M282.53 382.33h-1.03v-2h1.03z" fill="#5e5e5e"/><path d="M555.26 140L541 144.64v-9.28z" stroke="#5e5e5e" stroke-width="2" fill="#5e5e5e"/><path d="M282.5 457.33H374c3.3 0 6 2.7 6 6v194.23c0 3.3 2.7 6 6 6h154" stroke="#5e5e5e" stroke-width="2" fill="none"/><path d="M282.53 458.33h-1.03v-2h1.03z" fill="#5e5e5e"/><path d="M555.26 663.56L541 668.2v-9.28z" stroke="#5e5e5e" stroke-width="2" fill="#5e5e5e"/><path d="M282.5 620h270c3.3 0 6 2.7 6 6v19.05" stroke="#5e5e5e" stroke-width="2" fill="none"/><path d="M282.53 621h-1.03v-2h1.03z" fill="#5e5e5e"/><path d="M558.5 660.32l-4.64-14.27h9.28z" stroke="#5e5e5e" stroke-width="2" fill="#5e5e5e"/><path d="M282.5 600H454c3.3 0 6-2.7 6-6V468.1c0-3.3 2.7-6 6-6h74" stroke="#5e5e5e" stroke-width="2" fill="none"/><path d="M282.53 601h-1.03v-2h1.03z" fill="#5e5e5e"/><path d="M555.26 462.1L541 466.74v-9.27z" stroke="#5e5e5e" stroke-width="2" fill="#5e5e5e"/><path d="M282.5 637.33H454c3.3 0 6-2.68 6-6V226c0-3.3 2.7-6 6-6h74" stroke="#5e5e5e" stroke-width="2" fill="none"/><path d="M282.53 638.33h-1.03v-2h1.03z" fill="#5e5e5e"/><path d="M555.26 220L541 224.64v-9.28z" stroke="#5e5e5e" stroke-width="2" fill="#5e5e5e"/><path d="M1042.5 420h71.5c3.3 0 6-2.7 6-6v-8c0-3.3 2.7-6 6-6h54" stroke="#5e5e5e" stroke-width="2" fill="none"/><path d="M1042.53 421h-1.03v-2h1.03z" fill="#5e5e5e"/><path d="M1195.26 400l-14.26 4.64v-9.28z" stroke="#5e5e5e" stroke-width="2" fill="#5e5e5e"/><path d="M1042.5 620h71.5c3.3 0 6-2.7 6-6v-8c0-3.3 2.7-6 6-6h54" stroke="#5e5e5e" stroke-width="2" fill="none"/><path d="M1042.53 621h-1.03v-2h1.03z" fill="#5e5e5e"/><path d="M1195.26 600l-14.26 4.64v-9.28z" stroke="#5e5e5e" stroke-width="2" fill="#5e5e5e"/><defs><path fill="#333" d="M233-177c-1 41-23 64-60 70L243 0h-38l-65-103H63V0H30v-248c88 3 205-21 203 71zM63-129c60-2 137 13 137-47 0-61-80-42-137-45v92" id="t"/><path fill="#333" d="M100-194c63 0 86 42 84 106H49c0 40 14 67 53 68 26 1 43-12 49-29l28 8c-11 28-37 45-77 45C44 4 14-33 15-96c1-61 26-98 85-98zm52 81c6-60-76-77-97-28-3 7-6 17-6 28h103" id="u"/><path fill="#333" d="M24 0v-261h32V0H24" id="v"/><path fill="#333" d="M179-190L93 31C79 59 56 82 12 73V49c39 6 53-20 64-50L1-190h34L92-34l54-156h33" id="w"/><path fill="#333" d="M24-231v-30h32v30H24zM24 0v-190h32V0H24" id="x"/><path fill="#333" d="M117-194c89-4 53 116 60 194h-32v-121c0-31-8-49-39-48C34-167 62-67 57 0H25l-1-190h30c1 10-1 24 2 32 11-22 29-35 61-36" id="y"/><path fill="#333" d="M177-190C167-65 218 103 67 71c-23-6-38-20-44-43l32-5c15 47 100 32 89-28v-30C133-14 115 1 83 1 29 1 15-40 15-95c0-56 16-97 71-98 29-1 48 16 59 35 1-10 0-23 2-32h30zM94-22c36 0 50-32 50-73 0-42-14-75-50-75-39 0-46 34-46 75s6 73 46 73" id="z"/><g id="a"><use transform="matrix(0.06172839506172839,0,0,0.06172839506172839,0,0)" xlink:href="#t"/><use transform="matrix(0.06172839506172839,0,0,0.06172839506172839,15.987654320987653,0)" xlink:href="#u"/><use transform="matrix(0.06172839506172839,0,0,0.06172839506172839,28.333333333333332,0)" xlink:href="#v"/><use transform="matrix(0.06172839506172839,0,0,0.06172839506172839,33.20987654320987,0)" xlink:href="#w"/><use transform="matrix(0.06172839506172839,0,0,0.06172839506172839,44.32098765432099,0)" xlink:href="#x"/><use transform="matrix(0.06172839506172839,0,0,0.06172839506172839,49.19753086419753,0)" xlink:href="#y"/><use transform="matrix(0.06172839506172839,0,0,0.06172839506172839,61.54320987654321,0)" xlink:href="#z"/></g><path fill="#333" d="M115-194c55 1 70 41 70 98S169 2 115 4C84 4 66-9 55-30l1 105H24l-1-265h31l2 30c10-21 28-34 59-34zm-8 174c40 0 45-34 45-75s-6-73-45-74c-42 0-51 32-51 76 0 43 10 73 51 73" id="A"/><path fill="#333" d="M141-36C126-15 110 5 73 4 37 3 15-17 15-53c-1-64 63-63 125-63 3-35-9-54-41-54-24 1-41 7-42 31l-33-3c5-37 33-52 76-52 45 0 72 20 72 64v82c-1 20 7 32 28 27v20c-31 9-61-2-59-35zM48-53c0 20 12 33 32 33 41-3 63-29 60-74-43 2-92-5-92 41" id="B"/><path fill="#333" d="M114-163C36-179 61-72 57 0H25l-1-190h30c1 12-1 29 2 39 6-27 23-49 58-41v29" id="C"/><path fill="#333" d="M59-47c-2 24 18 29 38 22v24C64 9 27 4 27-40v-127H5v-23h24l9-43h21v43h35v23H59v120" id="D"/><g id="b"><use transform="matrix(0.06172839506172839,0,0,0.06172839506172839,0,0)" xlink:href="#A"/><use transform="matrix(0.06172839506172839,0,0,0.06172839506172839,12.345679012345679,0)" xlink:href="#B"/><use transform="matrix(0.06172839506172839,0,0,0.06172839506172839,24.691358024691358,0)" xlink:href="#C"/><use transform="matrix(0.06172839506172839,0,0,0.06172839506172839,32.03703703703704,0)" xlink:href="#D"/><use transform="matrix(0.06172839506172839,0,0,0.06172839506172839,38.20987654320988,0)" xlink:href="#w"/></g><path fill="#333" d="M185-189c-5-48-123-54-124 2 14 75 158 14 163 119 3 78-121 87-175 55-17-10-28-26-33-46l33-7c5 56 141 63 141-1 0-78-155-14-162-118-5-82 145-84 179-34 5 7 8 16 11 25" id="E"/><path fill="#333" d="M108 0H70L1-190h34L89-25l56-165h34" id="F"/><path fill="#333" d="M96-169c-40 0-48 33-48 73s9 75 48 75c24 0 41-14 43-38l32 2c-6 37-31 61-74 61-59 0-76-41-82-99-10-93 101-131 147-64 4 7 5 14 7 22l-32 3c-4-21-16-35-41-35" id="G"/><g id="c"><use transform="matrix(0.06172839506172839,0,0,0.06172839506172839,0,0)" xlink:href="#E"/><use transform="matrix(0.06172839506172839,0,0,0.06172839506172839,14.814814814814813,0)" xlink:href="#u"/><use transform="matrix(0.06172839506172839,0,0,0.06172839506172839,27.160493827160494,0)" xlink:href="#C"/><use transform="matrix(0.06172839506172839,0,0,0.06172839506172839,34.50617283950617,0)" xlink:href="#F"/><use transform="matrix(0.06172839506172839,0,0,0.06172839506172839,45.61728395061728,0)" xlink:href="#x"/><use transform="matrix(0.06172839506172839,0,0,0.06172839506172839,50.49382716049382,0)" xlink:href="#G"/><use transform="matrix(0.06172839506172839,0,0,0.06172839506172839,61.60493827160494,0)" xlink:href="#u"/></g><path fill="#333" d="M30-248c87 1 191-15 191 75 0 78-77 80-158 76V0H30v-248zm33 125c57 0 124 11 124-50 0-59-68-47-124-48v98" id="H"/><path fill="#333" d="M100-194c62-1 85 37 85 99 1 63-27 99-86 99S16-35 15-95c0-66 28-99 85-99zM99-20c44 1 53-31 53-75 0-43-8-75-51-75s-53 32-53 75 10 74 51 75" id="I"/><path fill="#333" d="M85-194c31 0 48 13 60 33l-1-100h32l1 261h-30c-2-10 0-23-3-31C134-8 116 4 85 4 32 4 16-35 15-94c0-66 23-100 70-100zm9 24c-40 0-46 34-46 75 0 40 6 74 45 74 42 0 51-32 51-76 0-42-9-74-50-73" id="J"/><g id="d"><use transform="matrix(0.06172839506172839,0,0,0.06172839506172839,0,0)" xlink:href="#H"/><use transform="matrix(0.06172839506172839,0,0,0.06172839506172839,14.814814814814813,0)" xlink:href="#C"/><use transform="matrix(0.06172839506172839,0,0,0.06172839506172839,22.160493827160494,0)" xlink:href="#I"/><use transform="matrix(0.06172839506172839,0,0,0.06172839506172839,34.50617283950617,0)" xlink:href="#F"/><use transform="matrix(0.06172839506172839,0,0,0.06172839506172839,45.61728395061728,0)" xlink:href="#x"/><use transform="matrix(0.06172839506172839,0,0,0.06172839506172839,50.49382716049382,0)" xlink:href="#J"/><use transform="matrix(0.06172839506172839,0,0,0.06172839506172839,62.8395061728395,0)" xlink:href="#u"/><use transform="matrix(0.06172839506172839,0,0,0.06172839506172839,75.18518518518518,0)" xlink:href="#C"/></g><path fill="#333" d="M87 75C49 33 22-17 22-94c0-76 28-126 65-167h31c-38 41-64 92-64 168S80 34 118 75H87" id="K"/><path fill="#333" d="M33-261c38 41 65 92 65 168S71 34 33 75H2C39 34 66-17 66-93S39-220 2-261h31" id="L"/><g id="e"><use transform="matrix(0.06172839506172839,0,0,0.06172839506172839,0,0)" xlink:href="#K"/><use transform="matrix(0.06172839506172839,0,0,0.06172839506172839,7.345679012345679,0)" xlink:href="#E"/><use transform="matrix(0.06172839506172839,0,0,0.06172839506172839,22.160493827160494,0)" xlink:href="#H"/><use transform="matrix(0.06172839506172839,0,0,0.06172839506172839,36.9753086419753,0)" xlink:href="#L"/></g><path fill="#333" d="M199 0l-22-63H83L61 0H9l90-248h61L250 0h-51zm-33-102l-36-108c-10 38-24 72-36 108h72" id="M"/><use transform="matrix(0.06172839506172839,0,0,0.06172839506172839,0,0)" xlink:href="#M" id="f"/><path fill="#333" d="M140-251c81 0 123 46 123 126C263-46 219 4 140 4 59 4 17-45 17-125s42-126 123-126zm0 227c63 0 89-41 89-101s-29-99-89-99c-61 0-89 39-89 99S79-25 140-24" id="N"/><path fill="#333" d="M33 0v-248h34V0H33" id="O"/><g id="g"><use transform="matrix(0.06172839506172839,0,0,0.06172839506172839,0,0)" xlink:href="#N"/><use transform="matrix(0.06172839506172839,0,0,0.06172839506172839,17.28395061728395,0)" xlink:href="#A"/><use transform="matrix(0.06172839506172839,0,0,0.06172839506172839,29.629629629629626,0)" xlink:href="#u"/><use transform="matrix(0.06172839506172839,0,0,0.06172839506172839,41.9753086419753,0)" xlink:href="#y"/><use transform="matrix(0.06172839506172839,0,0,0.06172839506172839,54.32098765432098,0)" xlink:href="#O"/><use transform="matrix(0.06172839506172839,0,0,0.06172839506172839,60.49382716049382,0)" xlink:href="#J"/></g><g id="h"><use transform="matrix(0.06172839506172839,0,0,0.06172839506172839,0,0)" xlink:href="#O"/><use transform="matrix(0.06172839506172839,0,0,0.06172839506172839,6.172839506172839,0)" xlink:href="#J"/><use transform="matrix(0.06172839506172839,0,0,0.06172839506172839,18.51851851851852,0)" xlink:href="#u"/><use transform="matrix(0.06172839506172839,0,0,0.06172839506172839,30.864197530864196,0)" xlink:href="#y"/><use transform="matrix(0.06172839506172839,0,0,0.06172839506172839,43.20987654320987,0)" xlink:href="#D"/><use transform="matrix(0.06172839506172839,0,0,0.06172839506172839,49.382716049382715,0)" xlink:href="#x"/><use transform="matrix(0.06172839506172839,0,0,0.06172839506172839,54.25925925925926,0)" xlink:href="#D"/><use transform="matrix(0.06172839506172839,0,0,0.06172839506172839,60.4320987654321,0)" xlink:href="#w"/></g><g id="i"><use transform="matrix(0.06172839506172839,0,0,0.06172839506172839,0,0)" xlink:href="#K"/><use transform="matrix(0.06172839506172839,0,0,0.06172839506172839,7.345679012345679,0)" xlink:href="#O"/><use transform="matrix(0.06172839506172839,0,0,0.06172839506172839,13.518518518518519,0)" xlink:href="#J"/><use transform="matrix(0.06172839506172839,0,0,0.06172839506172839,25.864197530864196,0)" xlink:href="#H"/><use transform="matrix(0.06172839506172839,0,0,0.06172839506172839,40.67901234567901,0)" xlink:href="#L"/></g><g id="j"><use transform="matrix(0.06172839506172839,0,0,0.06172839506172839,0,0)" xlink:href="#H"/><use transform="matrix(0.06172839506172839,0,0,0.06172839506172839,14.814814814814813,0)" xlink:href="#B"/><use transform="matrix(0.06172839506172839,0,0,0.06172839506172839,27.160493827160494,0)" xlink:href="#C"/><use transform="matrix(0.06172839506172839,0,0,0.06172839506172839,34.50617283950617,0)" xlink:href="#D"/><use transform="matrix(0.06172839506172839,0,0,0.06172839506172839,40.67901234567901,0)" xlink:href="#w"/></g><g id="k"><use transform="matrix(0.06172839506172839,0,0,0.06172839506172839,0,0)" xlink:href="#H"/><use transform="matrix(0.06172839506172839,0,0,0.06172839506172839,14.814814814814813,0)" xlink:href="#C"/><use transform="matrix(0.06172839506172839,0,0,0.06172839506172839,22.160493827160494,0)" xlink:href="#I"/><use transform="matrix(0.06172839506172839,0,0,0.06172839506172839,34.50617283950617,0)" xlink:href="#F"/><use transform="matrix(0.06172839506172839,0,0,0.06172839506172839,45.61728395061728,0)" xlink:href="#x"/><use transform="matrix(0.06172839506172839,0,0,0.06172839506172839,50.49382716049382,0)" xlink:href="#J"/><use transform="matrix(0.06172839506172839,0,0,0.06172839506172839,62.8395061728395,0)" xlink:href="#u"/><use transform="matrix(0.06172839506172839,0,0,0.06172839506172839,75.18518518518518,0)" xlink:href="#C"/></g><path fill="#333" d="M169-182c-1-43-94-46-97-3 18 66 151 10 154 114 3 95-165 93-204 36-6-8-10-19-12-30l50-8c3 46 112 56 116 5-17-69-150-10-154-114-4-87 153-88 188-35 5 8 8 18 10 28" id="P"/><path fill="#333" d="M185-48c-13 30-37 53-82 52C43 2 14-33 14-96s30-98 90-98c62 0 83 45 84 108H66c0 31 8 55 39 56 18 0 30-7 34-22zm-45-69c5-46-57-63-70-21-2 6-4 13-4 21h74" id="Q"/><path fill="#333" d="M115-3C79 11 28 4 28-45v-112H4v-33h27l15-45h31v45h36v33H77v99c-1 23 16 31 38 25v30" id="R"/><g id="l"><use transform="matrix(0.06172839506172839,0,0,0.06172839506172839,0,0)" xlink:href="#P"/><use transform="matrix(0.06172839506172839,0,0,0.06172839506172839,14.814814814814813,0)" xlink:href="#Q"/><use transform="matrix(0.06172839506172839,0,0,0.06172839506172839,27.160493827160494,0)" xlink:href="#R"/></g><use transform="matrix(0.06172839506172839,0,0,0.06172839506172839,0,0)" xlink:href="#M" id="m"/><path fill="#333" d="M230 0l2-204L168 0h-37L68-204 70 0H24v-248h70l56 185 57-185h69V0h-46" id="S"/><use transform="matrix(0.06172839506172839,0,0,0.06172839506172839,0,0)" xlink:href="#S" id="n"/><path fill="#333" d="M24-248c93 1 206-16 204 79-1 75-69 88-152 82V0H24v-248zm52 121c47 0 100 7 100-41 0-47-54-39-100-39v80" id="T"/><use transform="matrix(0.06172839506172839,0,0,0.06172839506172839,0,0)" xlink:href="#T" id="o"/><path fill="#333" d="M140-251c80 0 125 45 125 126 0 70-33 111-92 124 6 28 34 38 68 31l-1 36C177 83 129 55 120 2 51-6 15-50 15-125c0-81 44-126 125-126zm-1 214c52 0 73-35 73-88 0-50-21-86-72-86-52 0-73 35-73 86s22 88 72 88" id="U"/><use transform="matrix(0.06172839506172839,0,0,0.06172839506172839,0,0)" xlink:href="#U" id="p"/><path fill="#333" d="M182-130c37 4 62 22 62 59C244 23 116-4 24 0v-248c84 5 203-23 205 63 0 31-19 50-47 55zM76-148c40-3 101 13 101-30 0-44-60-28-101-31v61zm0 110c48-3 116 14 116-37 0-48-69-32-116-35v72" id="V"/><use transform="matrix(0.06172839506172839,0,0,0.06172839506172839,0,0)" xlink:href="#V" id="q"/><use transform="matrix(0.06172839506172839,0,0,0.06172839506172839,0,0)" xlink:href="#V" id="r"/><path fill="#333" d="M67-125c0 53 21 87 73 88 37 1 54-22 65-47l45 17C233-25 199 4 140 4 58 4 20-42 15-125 8-235 124-281 211-232c18 10 29 29 36 50l-46 12c-8-25-30-41-62-41-52 0-71 34-72 86" id="W"/><use transform="matrix(0.06172839506172839,0,0,0.06172839506172839,0,0)" xlink:href="#W" id="s"/></defs></g></svg>