<?xml version="1.0" encoding="utf-8"?>
<svg contentScriptType="text/ecmascript" xmlns:xlink="http://www.w3.org/1999/xlink" zoomAndPan="magnify" contentStyleType="text/css" viewBox="193.0 196.64999999999998 696.0 268.35" xmlns:cacoo="http://cacoo.com/" preserveAspectRatio="xMidYMin meet" xmlns="http://www.w3.org/2000/svg" version="1.1"><defs><linearGradient x1="0%" xmlns:xlink="http://www.w3.org/1999/xlink" y1="0%" x2="0%" y2="100%" xlink:type="simple" xlink:actuate="onLoad" id="id0" xlink:show="other"><stop stop-opacity="1.0" stop-color="#fadcec" offset="0%"/><stop stop-opacity="1.0" stop-color="#d57ba8" offset="100%"/></linearGradient><linearGradient x1="0%" xmlns:xlink="http://www.w3.org/1999/xlink" y1="0%" x2="0%" y2="100%" xlink:type="simple" xlink:actuate="onLoad" id="id2" xlink:show="other"><stop stop-opacity="1.0" stop-color="#e2eeff" offset="0%"/><stop stop-opacity="1.0" stop-color="#65a1fb" offset="100%"/></linearGradient><linearGradient x1="0%" xmlns:xlink="http://www.w3.org/1999/xlink" y1="0%" x2="0%" y2="100%" xlink:type="simple" xlink:actuate="onLoad" id="id4" xlink:show="other"><stop stop-opacity="1.0" stop-color="#b6d991" offset="0%"/><stop stop-opacity="1.0" stop-color="#82b749" offset="100%"/></linearGradient><linearGradient x1="0%" xmlns:xlink="http://www.w3.org/1999/xlink" y1="0%" x2="0%" y2="100%" xlink:type="simple" xlink:actuate="onLoad" id="id6" xlink:show="other"><stop stop-opacity="1.0" stop-color="#fadcec" offset="0%"/><stop stop-opacity="1.0" stop-color="#d57ba8" offset="100%"/></linearGradient><linearGradient x1="0%" xmlns:xlink="http://www.w3.org/1999/xlink" y1="0%" x2="0%" y2="100%" xlink:type="simple" xlink:actuate="onLoad" id="id8" xlink:show="other"><stop stop-opacity="1.0" stop-color="#fadcec" offset="0%"/><stop stop-opacity="1.0" stop-color="#d57ba8" offset="100%"/></linearGradient><marker refX="14.0" refY="7.0" markerUnits="userSpaceOnUse" orient="auto" id="id10" markerHeight="14.0" viewBox="0 0 14.0 14.0" preserveAspectRatio="xMidYMid meet" markerWidth="14.0" overflow="visible"><path fill="none" d="M0 0 L14.0 7.0 L0 14.0" stroke-width="1.0" stroke-linejoin="round" stroke-linecap="round" stroke="#000000"/></marker><marker refX="14.0" refY="7.0" markerUnits="userSpaceOnUse" orient="auto" id="id11" markerHeight="14.0" viewBox="0 0 14.0 14.0" preserveAspectRatio="xMidYMid meet" markerWidth="14.0" overflow="visible"><path fill="none" d="M0 0 L14.0 7.0 L0 14.0" stroke-width="1.0" stroke-linejoin="round" stroke-linecap="round" stroke="#000000"/></marker><marker refX="14.0" refY="7.0" markerUnits="userSpaceOnUse" orient="auto" id="id12" markerHeight="14.0" viewBox="0 0 14.0 14.0" preserveAspectRatio="xMidYMid meet" markerWidth="14.0" overflow="visible"><path fill="none" d="M0 0 L14.0 7.0 L0 14.0" stroke-width="1.0" stroke-linejoin="round" stroke-linecap="round" stroke="#000000"/></marker><marker refX="14.0" refY="7.0" markerUnits="userSpaceOnUse" orient="auto" id="id13" markerHeight="14.0" viewBox="0 0 14.0 14.0" preserveAspectRatio="xMidYMid meet" markerWidth="14.0" overflow="visible"><path fill="none" d="M0 0 L14.0 7.0 L0 14.0" stroke-width="1.0" stroke-linejoin="round" stroke-linecap="round" stroke="#000000"/></marker></defs><g><g transform="translate(208.0 236.64999999999998)"><path fill="url(#id0)" d="M110.0 43.0 Q110.0 50.0 103.0 50.0 L7.0 50.0 Q0.0 50.0 0.0 43.0 L0.0 7.0 Q0.0 0.0 7.0 0.0 L103.0 0.0 Q110.0 0.0 110.0 7.0 L110.0 43.0 L110.0 43.0z" stroke-width="1.0" stroke-linejoin="round" stroke="#cc6699"/><g transform="translate(5.0 5.0)"><defs><clipPath id="id1"><path d="M0 0 L100.0 0 L100.0 40.0 L0 40.0z"/></clipPath></defs><text font-size="14" clip-path="url(#id1)" text-decoration="none" fill="#000000" font-family="Arial,Arial" font-style="normal" font-weight="normal"><tspan x="5.0" xml:space="preserve" y="17.0" textLength="93.0">Give data to a </tspan><tspan x="34.0" xml:space="preserve" y="33.0" textLength="31.0">thing</tspan></text></g></g><g transform="translate(377.0 224.14999999999998)"><path fill="url(#id2)" d="M25.0 75.0 Q20.02719081550855 75.0 15.432914190872756 72.14548246917326 Q10.838637566236956 69.2909649383465 7.322330470336315 64.01650429449553 Q3.806023374435668 58.74204365064457 1.9030116872178304 51.850628713690874 Q0.0 44.95921377673717 0.0 37.50000000000001 Q0.0 30.040786223262828 1.9030116872178304 23.149371286309137 Q3.8060233744356537 16.257956349355446 7.322330470336308 10.983495705504472 Q10.838637566236956 5.709035061653502 15.432914190872742 2.8545175308267563 Q20.027190815508536 0.0 24.999999999999996 0.0 L120.0 0.0 Q124.97280918449147 0.0 129.56708580912726 2.8545175308267563 Q134.16136243376303 5.709035061653502 137.6776695296637 10.983495705504472 Q141.19397662556435 16.257956349355446 143.09698831278217 23.149371286309137 Q145.0 30.040786223262828 145.0 37.50000000000001 Q145.0 44.95921377673717 143.09698831278217 51.850628713690874 Q141.19397662556435 58.74204365064457 137.6776695296637 64.01650429449553 Q134.16136243376303 69.2909649383465 129.56708580912724 72.14548246917326 Q124.97280918449145 75.0 120.0 75.0 L25.0 75.0z" stroke-width="1.0" stroke-linejoin="round" stroke="#428eea"/><g transform="translate(15.0 5.0)"><defs><clipPath id="id3"><path d="M0 0 L115.0 0 L115.0 65.0 L0 65.0z"/></clipPath></defs><text font-size="14" clip-path="url(#id3)" text-decoration="none" fill="#000000" font-family="Arial,Arial" font-style="normal" font-weight="normal"><tspan x="2.0" xml:space="preserve" y="29.5" textLength="114.0">Did thing process </tspan><tspan x="15.0" xml:space="preserve" y="45.5" textLength="84.0">successfully?</tspan></text></g></g><g transform="translate(572.0 211.64999999999998)"><path fill="url(#id4)" d="M56.499999999999986 100.0 L0.0 50.0 L56.499999999999986 0.0 L112.99999999999997 50.0 L56.499999999999986 100.0 L56.499999999999986 100.0z" stroke-width="1.0" stroke-linejoin="round" stroke="#638933"/><g transform="translate(29.379999999999992 23.063003540039062)"><defs><clipPath id="id5"><path d="M0 0 L54.23999999999997 0 L54.23999999999997 55.0 L0 55.0z"/></clipPath></defs><text font-size="14" clip-path="url(#id5)" text-decoration="none" fill="#000000" font-family="Arial,Arial" font-style="normal" font-weight="normal"><tspan x="4.0" xml:space="preserve" y="32.5" textLength="45.0">Yes/No</tspan></text></g></g><g transform="translate(757.0 230.39999999999998)"><path fill="url(#id6)" d="M116.99999999999999 55.5 Q116.99999999999999 62.5 109.99999999999999 62.5 L7.0 62.5 Q0.0 62.5 0.0 55.5 L0.0 7.0 Q0.0 0.0 7.0 0.0 L109.99999999999999 0.0 Q116.99999999999999 0.0 116.99999999999999 7.0 L116.99999999999999 55.5 L116.99999999999999 55.5z" stroke-width="1.0" stroke-linejoin="round" stroke="#cc6699"/><g transform="translate(5.0 5.0)"><defs><clipPath id="id7"><path d="M0 0 L107.0 0 L107.0 52.5 L0 52.5z"/></clipPath></defs><text font-size="14" clip-path="url(#id7)" text-decoration="none" fill="#000000" font-family="Arial,Arial" font-style="normal" font-weight="normal"><tspan x="5.0" xml:space="preserve" y="23.25" textLength="101.0">Emit data using </tspan><tspan x="5.0" xml:space="preserve" y="39.25" textLength="97.0">output collector</tspan></text></g></g><g transform="translate(556.25 370.2)"><path fill="url(#id8)" d="M144.5 72.80000000000003 Q144.5 79.80000000000003 137.5 79.80000000000003 L7.0 79.80000000000003 Q0.0 79.80000000000003 0.0 72.80000000000003 L0.0 7.0 Q0.0 0.0 7.0 0.0 L137.5 0.0 Q144.5 0.0 144.5 7.0 L144.5 72.80000000000003 L144.5 72.80000000000003z" stroke-width="1.0" stroke-linejoin="round" stroke="#cc6699"/><g transform="translate(5.0 5.0)"><defs><clipPath id="id9"><path d="M0 0 L134.5 0 L134.5 69.80000000000001 L0 69.80000000000001z"/></clipPath></defs><text font-size="14" clip-path="url(#id9)" text-decoration="none" fill="#000000" font-family="Arial,Arial" font-style="normal" font-weight="normal"><tspan x="18.0" xml:space="preserve" y="23.900000000000006" textLength="102.0">Forward eror to </tspan><tspan x="7.0" xml:space="preserve" y="39.900000000000006" textLength="124.0">handler with output </tspan><tspan x="40.0" xml:space="preserve" y="55.900000000000006" textLength="53.0">collector</tspan></text></g></g><path fill="none" marker-end="url(#id10)" d="M318.0 261.65 L377.0 261.65" stroke-width="1.0" stroke-linejoin="round" stroke="#000000"/><path fill="none" marker-end="url(#id11)" d="M522.0 261.65 L572.0 261.65" stroke-width="1.0" stroke-linejoin="round" stroke="#000000"/><path fill="none" marker-end="url(#id12)" d="M685.0 261.65 L757.0 261.65" stroke-width="1.0" stroke-linejoin="round" stroke="#000000"/><path fill="none" marker-end="url(#id13)" d="M628.5 311.65 L628.5 370.2" stroke-width="1.0" stroke-linejoin="round" stroke="#000000"/><g transform="translate(700.75 245.0)"><defs><clipPath id="id14"><path d="M0 0 L33.0 0 L33.0 24.0 L0 24.0z"/></clipPath></defs><text font-size="12" clip-path="url(#id14)" text-decoration="none" fill="#000000" font-family="Arial,Arial" font-style="normal" font-weight="normal"><tspan x="2.0" xml:space="preserve" y="14.0" textLength="21.0">Yes</tspan></text></g><g transform="translate(628.5 331.0)"><defs><clipPath id="id15"><path d="M0 0 L33.0 0 L33.0 24.0 L0 24.0z"/></clipPath></defs><text font-size="12" clip-path="url(#id15)" text-decoration="none" fill="#000000" font-family="Arial,Arial" font-style="normal" font-weight="normal"><tspan x="2.0" xml:space="preserve" y="14.0" textLength="16.0">No</tspan></text></g></g></svg>