<?xml version="1.0" encoding="utf-8"?>
<svg contentScriptType="text/ecmascript" xmlns:xlink="http://www.w3.org/1999/xlink" zoomAndPan="magnify" contentStyleType="text/css" viewBox="105.0 29.950000000000045 589.0 349.5999999999999" xmlns:cacoo="http://cacoo.com/" preserveAspectRatio="xMidYMin meet" xmlns="http://www.w3.org/2000/svg" version="1.1"><defs><linearGradient x1="0%" xmlns:xlink="http://www.w3.org/1999/xlink" y1="0%" x2="0%" y2="100%" xlink:type="simple" xlink:actuate="onLoad" id="id0" xlink:show="other"><stop stop-opacity="1.0" stop-color="#fadcec" offset="0%"/><stop stop-opacity="1.0" stop-color="#d57ba8" offset="100%"/></linearGradient><linearGradient x1="0%" xmlns:xlink="http://www.w3.org/1999/xlink" y1="0%" x2="0%" y2="100%" xlink:type="simple" xlink:actuate="onLoad" id="id2" xlink:show="other"><stop stop-opacity="1.0" stop-color="#b6e3dd" offset="0%"/><stop stop-opacity="1.0" stop-color="#50ab9c" offset="100%"/></linearGradient><linearGradient x1="0%" xmlns:xlink="http://www.w3.org/1999/xlink" y1="0%" x2="0%" y2="100%" xlink:type="simple" xlink:actuate="onLoad" id="id4" xlink:show="other"><stop stop-opacity="1.0" stop-color="#fadcec" offset="0%"/><stop stop-opacity="1.0" stop-color="#d57ba8" offset="100%"/></linearGradient><linearGradient x1="0%" xmlns:xlink="http://www.w3.org/1999/xlink" y1="0%" x2="0%" y2="100%" xlink:type="simple" xlink:actuate="onLoad" id="id6" xlink:show="other"><stop stop-opacity="1.0" stop-color="#fadcec" offset="0%"/><stop stop-opacity="1.0" stop-color="#d57ba8" offset="100%"/></linearGradient><linearGradient x1="0%" xmlns:xlink="http://www.w3.org/1999/xlink" y1="0%" x2="0%" y2="100%" xlink:type="simple" xlink:actuate="onLoad" id="id8" xlink:show="other"><stop stop-opacity="1.0" stop-color="#fadcec" offset="0%"/><stop stop-opacity="1.0" stop-color="#d57ba8" offset="100%"/></linearGradient><linearGradient x1="0%" xmlns:xlink="http://www.w3.org/1999/xlink" y1="0%" x2="0%" y2="100%" xlink:type="simple" xlink:actuate="onLoad" id="id10" xlink:show="other"><stop stop-opacity="1.0" stop-color="#fadcec" offset="0%"/><stop stop-opacity="1.0" stop-color="#d57ba8" offset="100%"/></linearGradient><linearGradient x1="0%" xmlns:xlink="http://www.w3.org/1999/xlink" y1="0%" x2="0%" y2="100%" xlink:type="simple" xlink:actuate="onLoad" id="id12" xlink:show="other"><stop stop-opacity="1.0" stop-color="#fadcec" offset="0%"/><stop stop-opacity="1.0" stop-color="#d57ba8" offset="100%"/></linearGradient><linearGradient x1="0%" xmlns:xlink="http://www.w3.org/1999/xlink" y1="0%" x2="0%" y2="100%" xlink:type="simple" xlink:actuate="onLoad" id="id14" xlink:show="other"><stop stop-opacity="1.0" stop-color="#fadcec" offset="0%"/><stop stop-opacity="1.0" stop-color="#d57ba8" offset="100%"/></linearGradient><marker refX="14.0" refY="7.0" markerUnits="userSpaceOnUse" orient="auto" id="id16" markerHeight="14.0" viewBox="0 0 14.0 14.0" preserveAspectRatio="xMidYMid meet" markerWidth="14.0" overflow="visible"><path fill="none" d="M0 0 L14.0 7.0 L0 14.0" stroke-width="2.0" stroke-linejoin="round" stroke-linecap="round" stroke="#000000"/></marker><marker refX="14.0" refY="7.0" markerUnits="userSpaceOnUse" orient="auto" id="id17" markerHeight="14.0" viewBox="0 0 14.0 14.0" preserveAspectRatio="xMidYMid meet" markerWidth="14.0" overflow="visible"><path fill="none" d="M0 0 L14.0 7.0 L0 14.0" stroke-width="2.0" stroke-linejoin="round" stroke-linecap="round" stroke="#000000"/></marker><marker refX="14.0" refY="7.0" markerUnits="userSpaceOnUse" orient="auto" id="id18" markerHeight="14.0" viewBox="0 0 14.0 14.0" preserveAspectRatio="xMidYMid meet" markerWidth="14.0" overflow="visible"><path fill="none" d="M0 0 L14.0 7.0 L0 14.0" stroke-width="2.0" stroke-linejoin="round" stroke-linecap="round" stroke="#000000"/></marker><marker refX="14.0" refY="7.0" markerUnits="userSpaceOnUse" orient="auto" id="id22" markerHeight="14.0" viewBox="0 0 14.0 14.0" preserveAspectRatio="xMidYMid meet" markerWidth="14.0" overflow="visible"><path fill="none" d="M0 0 L14.0 7.0 L0 14.0" stroke-width="2.0" stroke-linejoin="round" stroke-linecap="round" stroke="#000000"/></marker><marker refX="14.0" refY="7.0" markerUnits="userSpaceOnUse" orient="auto" id="id23" markerHeight="14.0" viewBox="0 0 14.0 14.0" preserveAspectRatio="xMidYMid meet" markerWidth="14.0" overflow="visible"><path fill="none" d="M0 0 L14.0 7.0 L0 14.0" stroke-width="2.0" stroke-linejoin="round" stroke-linecap="round" stroke="#000000"/></marker><marker refX="14.0" refY="7.0" markerUnits="userSpaceOnUse" orient="auto" id="id24" markerHeight="14.0" viewBox="0 0 14.0 14.0" preserveAspectRatio="xMidYMid meet" markerWidth="14.0" overflow="visible"><path fill="none" d="M0 0 L14.0 7.0 L0 14.0" stroke-width="2.0" stroke-linejoin="round" stroke-linecap="round" stroke="#000000"/></marker></defs><g><g transform="translate(340.0 192.0)"><path fill="url(#id0)" d="M110.0 43.0 Q110.0 50.0 103.0 50.0 L7.0 50.0 Q0.0 50.0 0.0 43.0 L0.0 7.0 Q0.0 0.0 7.0 0.0 L103.0 0.0 Q110.0 0.0 110.0 7.0 L110.0 43.0 L110.0 43.0z" stroke-width="1.0" stroke-linejoin="round" stroke="#cc6699"/><g transform="translate(5.0 5.0)"><defs><clipPath id="id1"><path d="M0 0 L100.0 0 L100.0 40.0 L0 40.0z"/></clipPath></defs><text font-size="14" clip-path="url(#id1)" text-decoration="none" fill="#000000" font-family="Arial,Arial" font-style="normal" font-weight="normal"><tspan x="17.0" xml:space="preserve" y="25.0" textLength="66.0">Requester</tspan></text></g></g><g transform="translate(340.0 44.950000000000045)"><path fill="url(#id2)" d="M110.0 50.0 L0.0 50.0 L0.0 0.0 L110.0 0.0 L110.0 50.0 L110.0 50.0z" stroke-width="1.0" stroke-linejoin="round" stroke="#3b9684"/><g transform="translate(5.0 5.0)"><defs><clipPath id="id3"><path d="M0 0 L100.0 0 L100.0 40.0 L0 40.0z"/></clipPath></defs><text font-size="14" clip-path="url(#id3)" text-decoration="none" fill="#000000" font-family="Arial,Arial" font-style="normal" font-weight="normal"><tspan x="13.0" xml:space="preserve" y="25.0" textLength="74.0">DNS Server</tspan></text></g></g><g transform="translate(120.0 314.54999999999995)"><path fill="url(#id4)" d="M110.0 43.0 Q110.0 50.0 103.0 50.0 L7.0 50.0 Q0.0 50.0 0.0 43.0 L0.0 7.0 Q0.0 0.0 7.0 0.0 L103.0 0.0 Q110.0 0.0 110.0 7.0 L110.0 43.0 L110.0 43.0z" stroke-width="1.0" stroke-linejoin="round" stroke="#cc6699"/><g transform="translate(5.0 5.0)"><defs><clipPath id="id5"><path d="M0 0 L100.0 0 L100.0 40.0 L0 40.0z"/></clipPath></defs><text font-size="14" clip-path="url(#id5)" text-decoration="none" fill="#000000" font-family="Arial,Arial" font-style="normal" font-weight="normal"><tspan x="25.0" xml:space="preserve" y="25.0" textLength="50.0">Server1</tspan></text></g></g><g transform="translate(270.0 314.54999999999995)"><path fill="url(#id6)" d="M110.0 43.0 Q110.0 50.0 103.0 50.0 L7.0 50.0 Q0.0 50.0 0.0 43.0 L0.0 7.0 Q0.0 0.0 7.0 0.0 L103.0 0.0 Q110.0 0.0 110.0 7.0 L110.0 43.0 L110.0 43.0z" stroke-width="1.0" stroke-linejoin="round" stroke="#cc6699"/><g transform="translate(5.0 5.0)"><defs><clipPath id="id7"><path d="M0 0 L100.0 0 L100.0 40.0 L0 40.0z"/></clipPath></defs><text font-size="14" clip-path="url(#id7)" text-decoration="none" fill="#000000" font-family="Arial,Arial" font-style="normal" font-weight="normal"><tspan x="25.0" xml:space="preserve" y="25.0" textLength="50.0">Server2</tspan></text></g></g><g transform="translate(421.0 314.54999999999995)"><path fill="url(#id8)" d="M110.0 43.0 Q110.0 50.0 103.0 50.0 L7.0 50.0 Q0.0 50.0 0.0 43.0 L0.0 7.0 Q0.0 0.0 7.0 0.0 L103.0 0.0 Q110.0 0.0 110.0 7.0 L110.0 43.0 L110.0 43.0z" stroke-width="1.0" stroke-linejoin="round" stroke="#cc6699"/><g transform="translate(5.0 5.0)"><defs><clipPath id="id9"><path d="M0 0 L100.0 0 L100.0 40.0 L0 40.0z"/></clipPath></defs><text font-size="14" clip-path="url(#id9)" text-decoration="none" fill="#000000" font-family="Arial,Arial" font-style="normal" font-weight="normal"><tspan x="25.0" xml:space="preserve" y="25.0" textLength="50.0">Server3</tspan></text></g></g><g transform="translate(569.0 314.54999999999995)"><path fill="url(#id10)" d="M110.0 43.0 Q110.0 50.0 103.0 50.0 L7.0 50.0 Q0.0 50.0 0.0 43.0 L0.0 7.0 Q0.0 0.0 7.0 0.0 L103.0 0.0 Q110.0 0.0 110.0 7.0 L110.0 43.0 L110.0 43.0z" stroke-width="1.0" stroke-linejoin="round" stroke="#cc6699"/><g transform="translate(5.0 5.0)"><defs><clipPath id="id11"><path d="M0 0 L100.0 0 L100.0 40.0 L0 40.0z"/></clipPath></defs><text font-size="14" clip-path="url(#id11)" text-decoration="none" fill="#000000" font-family="Arial,Arial" font-style="normal" font-weight="normal"><tspan x="25.0" xml:space="preserve" y="25.0" textLength="50.0">Server4</tspan></text></g></g><g transform="translate(185.0 192.0)"><path fill="url(#id12)" d="M110.0 43.0 Q110.0 50.0 103.0 50.0 L7.0 50.0 Q0.0 50.0 0.0 43.0 L0.0 7.0 Q0.0 0.0 7.0 0.0 L103.0 0.0 Q110.0 0.0 110.0 7.0 L110.0 43.0 L110.0 43.0z" stroke-width="1.0" stroke-linejoin="round" stroke="#cc6699"/><g transform="translate(5.0 5.0)"><defs><clipPath id="id13"><path d="M0 0 L100.0 0 L100.0 40.0 L0 40.0z"/></clipPath></defs><text font-size="14" clip-path="url(#id13)" text-decoration="none" fill="#000000" font-family="Arial,Arial" font-style="normal" font-weight="normal"><tspan x="17.0" xml:space="preserve" y="25.0" textLength="66.0">Requester</tspan></text></g></g><g transform="translate(501.5 192.0)"><path fill="url(#id14)" d="M110.0 43.0 Q110.0 50.0 103.0 50.0 L7.0 50.0 Q0.0 50.0 0.0 43.0 L0.0 7.0 Q0.0 0.0 7.0 0.0 L103.0 0.0 Q110.0 0.0 110.0 7.0 L110.0 43.0 L110.0 43.0z" stroke-width="1.0" stroke-linejoin="round" stroke="#cc6699"/><g transform="translate(5.0 5.0)"><defs><clipPath id="id15"><path d="M0 0 L100.0 0 L100.0 40.0 L0 40.0z"/></clipPath></defs><text font-size="14" clip-path="url(#id15)" text-decoration="none" fill="#000000" font-family="Arial,Arial" font-style="normal" font-weight="normal"><tspan x="17.0" xml:space="preserve" y="25.0" textLength="66.0">Requester</tspan></text></g></g><path fill="none" marker-end="url(#id16)" d="M240.0 192.0 L367.5 94.95000000000005" stroke-width="2.0" stroke-linejoin="round" stroke="#000000"/><path fill="none" marker-end="url(#id17)" d="M395.0 192.0 L395.0 94.95000000000005" stroke-width="2.0" stroke-linejoin="round" stroke="#000000"/><path fill="none" marker-end="url(#id18)" d="M556.5 192.0 L422.5 94.95000000000005" stroke-width="2.0" stroke-linejoin="round" stroke="#000000"/><g transform="translate(496.5 112.0)"><defs><clipPath id="id19"><path d="M0 0 L69.0 0 L69.0 40.5 L0 40.5z"/></clipPath></defs><text font-size="12" clip-path="url(#id19)" text-decoration="none" fill="#000000" font-family="Arial,Arial" font-style="normal" font-weight="normal"><tspan x="2.0" xml:space="preserve" y="14.0" textLength="30.0">go to:</tspan><tspan x="2.0" xml:space="preserve" y="29.0" textLength="42.0">Server4</tspan></text></g><g transform="translate(395.0 145.0)"><defs><clipPath id="id20"><path d="M0 0 L69.0 0 L69.0 39.0 L0 39.0z"/></clipPath></defs><text font-size="12" clip-path="url(#id20)" text-decoration="none" fill="#000000" font-family="Arial,Arial" font-style="normal" font-weight="normal"><tspan x="2.0" xml:space="preserve" y="14.0" textLength="30.0">go to:</tspan><tspan x="2.0" xml:space="preserve" y="29.0" textLength="42.0">Server3</tspan></text></g><g transform="translate(290.5 152.5)"><defs><clipPath id="id21"><path d="M0 0 L69.0 0 L69.0 39.5 L0 39.5z"/></clipPath></defs><text font-size="12" clip-path="url(#id21)" text-decoration="none" fill="#000000" font-family="Arial,Arial" font-style="normal" font-weight="normal"><tspan x="2.0" xml:space="preserve" y="14.0" textLength="30.0">go to:</tspan><tspan x="2.0" xml:space="preserve" y="29.0" textLength="42.0">Server2</tspan></text></g><path fill="none" marker-end="url(#id22)" d="M267.5 242.0 L325.0 314.54999999999995" stroke-width="2.0" stroke-linejoin="round" stroke="#000000"/><path fill="none" marker-end="url(#id23)" d="M422.5 242.0 L476.0 314.54999999999995" stroke-width="2.0" stroke-linejoin="round" stroke="#000000"/><path fill="none" marker-end="url(#id24)" d="M556.5 242.0 L624.0 314.54999999999995" stroke-width="2.0" stroke-linejoin="round" stroke="#000000"/></g></svg>