<?xml version="1.0" encoding="utf-8"?>
<svg contentScriptType="text/ecmascript" xmlns:xlink="http://www.w3.org/1999/xlink" zoomAndPan="magnify" contentStyleType="text/css" viewBox="456.5 89.0 583.0 326.54999999999995" xmlns:cacoo="http://cacoo.com/" preserveAspectRatio="xMidYMin meet" xmlns="http://www.w3.org/2000/svg" version="1.1"><defs><linearGradient x1="0%" xmlns:xlink="http://www.w3.org/1999/xlink" y1="0%" x2="0%" y2="100%" xlink:type="simple" xlink:actuate="onLoad" id="id0" xlink:show="other"><stop stop-opacity="1.0" stop-color="#fadcec" offset="0%"/><stop stop-opacity="1.0" stop-color="#d57ba8" offset="100%"/></linearGradient><linearGradient x1="0%" xmlns:xlink="http://www.w3.org/1999/xlink" y1="0%" x2="0%" y2="100%" xlink:type="simple" xlink:actuate="onLoad" id="id2" xlink:show="other"><stop stop-opacity="1.0" stop-color="#b6e3dd" offset="0%"/><stop stop-opacity="1.0" stop-color="#50ab9c" offset="100%"/></linearGradient><linearGradient x1="0%" xmlns:xlink="http://www.w3.org/1999/xlink" y1="0%" x2="0%" y2="100%" xlink:type="simple" xlink:actuate="onLoad" id="id4" xlink:show="other"><stop stop-opacity="1.0" stop-color="#fadcec" offset="0%"/><stop stop-opacity="1.0" stop-color="#d57ba8" offset="100%"/></linearGradient><linearGradient x1="0%" xmlns:xlink="http://www.w3.org/1999/xlink" y1="0%" x2="0%" y2="100%" xlink:type="simple" xlink:actuate="onLoad" id="id6" xlink:show="other"><stop stop-opacity="1.0" stop-color="#fadcec" offset="0%"/><stop stop-opacity="1.0" stop-color="#d57ba8" offset="100%"/></linearGradient><linearGradient x1="0%" xmlns:xlink="http://www.w3.org/1999/xlink" y1="0%" x2="0%" y2="100%" xlink:type="simple" xlink:actuate="onLoad" id="id8" xlink:show="other"><stop stop-opacity="1.0" stop-color="#fadcec" offset="0%"/><stop stop-opacity="1.0" stop-color="#d57ba8" offset="100%"/></linearGradient><linearGradient x1="0%" xmlns:xlink="http://www.w3.org/1999/xlink" y1="0%" x2="0%" y2="100%" xlink:type="simple" xlink:actuate="onLoad" id="id10" xlink:show="other"><stop stop-opacity="1.0" stop-color="#fadcec" offset="0%"/><stop stop-opacity="1.0" stop-color="#d57ba8" offset="100%"/></linearGradient><marker refX="14.0" refY="7.0" markerUnits="userSpaceOnUse" orient="auto" id="id12" markerHeight="14.0" viewBox="0 0 14.0 14.0" preserveAspectRatio="xMidYMid meet" markerWidth="14.0" overflow="visible"><path fill="none" d="M0 0 L14.0 7.0 L0 14.0" stroke-width="2.0" stroke-linejoin="round" stroke-linecap="round" stroke="#000000"/></marker><marker refX="14.0" refY="7.0" markerUnits="userSpaceOnUse" orient="auto" id="id13" markerHeight="14.0" viewBox="0 0 14.0 14.0" preserveAspectRatio="xMidYMid meet" markerWidth="14.0" overflow="visible"><path fill="none" d="M0 0 L14.0 7.0 L0 14.0" stroke-width="2.0" stroke-linejoin="round" stroke-linecap="round" stroke="#000000"/></marker><marker refX="14.0" refY="7.0" markerUnits="userSpaceOnUse" orient="auto" id="id14" markerHeight="14.0" viewBox="0 0 14.0 14.0" preserveAspectRatio="xMidYMid meet" markerWidth="14.0" overflow="visible"><path fill="none" d="M0 0 L14.0 7.0 L0 14.0" stroke-width="2.0" stroke-linejoin="round" stroke-linecap="round" stroke="#000000"/></marker><marker refX="14.0" refY="7.0" markerUnits="userSpaceOnUse" orient="auto" id="id15" markerHeight="14.0" viewBox="0 0 14.0 14.0" preserveAspectRatio="xMidYMid meet" markerWidth="14.0" overflow="visible"><path fill="none" d="M0 0 L14.0 7.0 L0 14.0" stroke-width="2.0" stroke-linejoin="round" stroke-linecap="round" stroke="#000000"/></marker><marker refX="14.0" refY="7.0" markerUnits="userSpaceOnUse" orient="auto" id="id16" markerHeight="14.0" viewBox="0 0 14.0 14.0" preserveAspectRatio="xMidYMid meet" markerWidth="14.0" overflow="visible"><path fill="none" d="M0 0 L14.0 7.0 L0 14.0" stroke-width="2.0" stroke-linejoin="round" stroke-linecap="round" stroke="#000000"/></marker></defs><g><g transform="translate(690.0 104.0)"><path fill="url(#id0)" d="M110.0 43.0 Q110.0 50.0 103.0 50.0 L7.0 50.0 Q0.0 50.0 0.0 43.0 L0.0 7.0 Q0.0 0.0 7.0 0.0 L103.0 0.0 Q110.0 0.0 110.0 7.0 L110.0 43.0 L110.0 43.0z" stroke-width="1.0" stroke-linejoin="round" stroke="#cc6699"/><g transform="translate(5.0 5.0)"><defs><clipPath id="id1"><path d="M0 0 L100.0 0 L100.0 40.0 L0 40.0z"/></clipPath></defs><text font-size="14" clip-path="url(#id1)" text-decoration="none" fill="#000000" font-family="Arial,Arial" font-style="normal" font-weight="normal"><tspan x="17.0" xml:space="preserve" y="25.0" textLength="66.0">Requester</tspan></text></g></g><g transform="translate(690.0 217.95000000000002)"><path fill="url(#id2)" d="M110.0 50.0 L0.0 50.0 L0.0 0.0 L110.0 0.0 L110.0 50.0 L110.0 50.0z" stroke-width="1.0" stroke-linejoin="round" stroke="#3b9684"/><g transform="translate(5.0 5.0)"><defs><clipPath id="id3"><path d="M0 0 L100.0 0 L100.0 40.00000000000003 L0 40.00000000000003z"/></clipPath></defs><text font-size="14" clip-path="url(#id3)" text-decoration="none" fill="#000000" font-family="Arial,Arial" font-style="normal" font-weight="normal"><tspan x="11.0" xml:space="preserve" y="25.000000000000014" textLength="78.0">Intermediary</tspan></text></g></g><g transform="translate(471.5 350.54999999999995)"><path fill="url(#id4)" d="M110.0 43.0 Q110.0 50.0 103.0 50.0 L7.0 50.0 Q0.0 50.0 0.0 43.0 L0.0 7.0 Q0.0 0.0 7.0 0.0 L103.0 0.0 Q110.0 0.0 110.0 7.0 L110.0 43.0 L110.0 43.0z" stroke-width="1.0" stroke-linejoin="round" stroke="#cc6699"/><g transform="translate(5.0 5.0)"><defs><clipPath id="id5"><path d="M0 0 L100.0 0 L100.0 40.0 L0 40.0z"/></clipPath></defs><text font-size="14" clip-path="url(#id5)" text-decoration="none" fill="#000000" font-family="Arial,Arial" font-style="normal" font-weight="normal"><tspan x="29.0" xml:space="preserve" y="25.0" textLength="42.0">Server</tspan></text></g></g><g transform="translate(621.5 350.54999999999995)"><path fill="url(#id6)" d="M110.0 43.0 Q110.0 50.0 103.0 50.0 L7.0 50.0 Q0.0 50.0 0.0 43.0 L0.0 7.0 Q0.0 0.0 7.0 0.0 L103.0 0.0 Q110.0 0.0 110.0 7.0 L110.0 43.0 L110.0 43.0z" stroke-width="1.0" stroke-linejoin="round" stroke="#cc6699"/><g transform="translate(5.0 5.0)"><defs><clipPath id="id7"><path d="M0 0 L100.0 0 L100.0 40.0 L0 40.0z"/></clipPath></defs><text font-size="14" clip-path="url(#id7)" text-decoration="none" fill="#000000" font-family="Arial,Arial" font-style="normal" font-weight="normal"><tspan x="29.0" xml:space="preserve" y="25.0" textLength="42.0">Server</tspan></text></g></g><g transform="translate(765.5 350.54999999999995)"><path fill="url(#id8)" d="M110.0 43.0 Q110.0 50.0 103.0 50.0 L7.0 50.0 Q0.0 50.0 0.0 43.0 L0.0 7.0 Q0.0 0.0 7.0 0.0 L103.0 0.0 Q110.0 0.0 110.0 7.0 L110.0 43.0 L110.0 43.0z" stroke-width="1.0" stroke-linejoin="round" stroke="#cc6699"/><g transform="translate(5.0 5.0)"><defs><clipPath id="id9"><path d="M0 0 L100.0 0 L100.0 40.0 L0 40.0z"/></clipPath></defs><text font-size="14" clip-path="url(#id9)" text-decoration="none" fill="#000000" font-family="Arial,Arial" font-style="normal" font-weight="normal"><tspan x="29.0" xml:space="preserve" y="25.0" textLength="42.0">Server</tspan></text></g></g><g transform="translate(914.5 350.54999999999995)"><path fill="url(#id10)" d="M110.0 43.0 Q110.0 50.0 103.0 50.0 L7.0 50.0 Q0.0 50.0 0.0 43.0 L0.0 7.0 Q0.0 0.0 7.0 0.0 L103.0 0.0 Q110.0 0.0 110.0 7.0 L110.0 43.0 L110.0 43.0z" stroke-width="1.0" stroke-linejoin="round" stroke="#cc6699"/><g transform="translate(5.0 5.0)"><defs><clipPath id="id11"><path d="M0 0 L100.0 0 L100.0 40.0 L0 40.0z"/></clipPath></defs><text font-size="14" clip-path="url(#id11)" text-decoration="none" fill="#000000" font-family="Arial,Arial" font-style="normal" font-weight="normal"><tspan x="29.0" xml:space="preserve" y="25.0" textLength="42.0">Server</tspan></text></g></g><path fill="none" marker-end="url(#id12)" d="M745.0 154.0 L745.0 217.95000000000002" stroke-width="2.0" stroke-linejoin="round" stroke="#000000"/><path fill="none" marker-end="url(#id13)" d="M772.5 267.95000000000005 L969.5 350.54999999999995" stroke-width="2.0" stroke-linejoin="round" stroke="#000000"/><path fill="none" marker-end="url(#id14)" d="M745.0 267.95000000000005 L820.5 350.54999999999995" stroke-width="2.0" stroke-linejoin="round" stroke="#000000"/><path fill="none" marker-end="url(#id15)" d="M745.0 267.95000000000005 L676.5 350.54999999999995" stroke-width="2.0" stroke-linejoin="round" stroke="#000000"/><path fill="none" marker-end="url(#id16)" d="M717.5 267.95000000000005 L526.5 350.54999999999995" stroke-width="2.0" stroke-linejoin="round" stroke="#000000"/><g transform="translate(846.0 281.0)"><defs><clipPath id="id17"><path d="M0 0 L68.5 0 L68.5 20.0 L0 20.0z"/></clipPath></defs><text font-size="12" clip-path="url(#id17)" text-decoration="none" fill="#000000" font-family="Arial,Arial" font-style="normal" font-weight="normal"><tspan x="2.0" xml:space="preserve" y="14.0" textLength="57.0">Request 1</tspan></text></g><g transform="translate(800.0 313.0)"><defs><clipPath id="id18"><path d="M0 0 L68.5 0 L68.5 20.0 L0 20.0z"/></clipPath></defs><text font-size="12" clip-path="url(#id18)" text-decoration="none" fill="#000000" font-family="Arial,Arial" font-style="normal" font-weight="normal"><tspan x="2.0" xml:space="preserve" y="14.0" textLength="57.0">Request 2</tspan></text></g><g transform="translate(697.25 323.0)"><defs><clipPath id="id19"><path d="M0 0 L68.5 0 L68.5 20.0 L0 20.0z"/></clipPath></defs><text font-size="12" clip-path="url(#id19)" text-decoration="none" fill="#000000" font-family="Arial,Arial" font-style="normal" font-weight="normal"><tspan x="2.0" xml:space="preserve" y="14.0" textLength="57.0">Request 3</tspan></text></g><g transform="translate(547.25 293.0)"><defs><clipPath id="id20"><path d="M0 0 L68.5 0 L68.5 20.0 L0 20.0z"/></clipPath></defs><text font-size="12" clip-path="url(#id20)" text-decoration="none" fill="#000000" font-family="Arial,Arial" font-style="normal" font-weight="normal"><tspan x="2.0" xml:space="preserve" y="14.0" textLength="57.0">Request 4</tspan></text></g><g transform="translate(914.5 313.0)"><defs><clipPath id="id21"><path d="M0 0 L68.5 0 L68.5 20.0 L0 20.0z"/></clipPath></defs><text font-size="12" clip-path="url(#id21)" text-decoration="none" fill="#000000" font-family="Arial,Arial" font-style="normal" font-weight="normal"><tspan x="2.0" xml:space="preserve" y="14.0" textLength="57.0">Request 5</tspan></text></g></g></svg>