<?xml version="1.0" encoding="utf-8"?>
<svg contentScriptType="text/ecmascript" xmlns:xlink="http://www.w3.org/1999/xlink" zoomAndPan="magnify" contentStyleType="text/css" viewBox="348.0 135.0 877.0000000000009 122.0" xmlns:cacoo="http://cacoo.com/" preserveAspectRatio="xMidYMin meet" xmlns="http://www.w3.org/2000/svg" version="1.1"><g><g transform="translate(363.0 150.0)"><path fill="#286bcc" fill-opacity="1.0" d="M847.000000000001 29.00000000000003 Q847.000000000001 34.00000000000003 842.000000000001 34.00000000000003 L5.0 34.00000000000003 Q0.0 34.00000000000003 0.0 29.00000000000003 L0.0 5.0 Q0.0 0.0 5.0 0.0 L842.000000000001 0.0 Q847.000000000001 0.0 847.000000000001 5.0 L847.000000000001 29.00000000000003 L847.000000000001 29.00000000000003z" stroke-width="1.0" stroke-linejoin="round" stroke="#000000"/><g transform="translate(1.0 1.0)"><defs><clipPath id="id0"><path d="M0 0 L845.0 0 L845.0 32.0 L0 32.0z"/></clipPath></defs><text font-size="12" clip-path="url(#id0)" text-decoration="none" fill="#000000" font-family="Arial,Arial" font-style="normal" font-weight="normal"/></g></g><g transform="translate(489.0 150.0)"><path fill="#83165c" fill-opacity="1.0" d="M720.9999999999993 29.00000000000003 Q720.9999999999993 34.00000000000003 715.9999999999993 34.00000000000003 L5.0 34.00000000000003 Q0.0 34.00000000000003 0.0 29.00000000000003 L0.0 5.0 Q0.0 0.0 5.0 0.0 L715.9999999999993 0.0 Q720.9999999999993 0.0 720.9999999999993 5.0 L720.9999999999993 29.00000000000003 L720.9999999999993 29.00000000000003z" stroke-width="1.0" stroke-linejoin="round" stroke="#000000"/><g transform="translate(1.0 1.0)"><defs><clipPath id="id1"><path d="M0 0 L719.0 0 L719.0 32.0 L0 32.0z"/></clipPath></defs><text font-size="12" clip-path="url(#id1)" text-decoration="none" fill="#000000" font-family="Arial,Arial" font-style="normal" font-weight="normal"/></g></g><g transform="translate(755.0 150.0)"><path fill="#9c457d" fill-opacity="1.0" d="M454.9999999999993 29.00000000000003 Q454.9999999999993 34.00000000000003 449.9999999999993 34.00000000000003 L5.0 34.00000000000003 Q0.0 34.00000000000003 0.0 29.00000000000003 L0.0 5.0 Q0.0 0.0 5.0 0.0 L449.9999999999993 0.0 Q454.9999999999993 0.0 454.9999999999993 5.0 L454.9999999999993 29.00000000000003 L454.9999999999993 29.00000000000003z" stroke-width="1.0" stroke-linejoin="round" stroke="#000000"/><g transform="translate(1.0 1.0)"><defs><clipPath id="id2"><path d="M0 0 L453.0 0 L453.0 32.0 L0 32.0z"/></clipPath></defs><text font-size="12" clip-path="url(#id2)" text-decoration="none" fill="#000000" font-family="Arial,Arial" font-style="normal" font-weight="normal"/></g></g><g transform="translate(364.0 155.0)"><defs><clipPath id="id3"><path d="M0 0 L122.0 0 L122.0 25.0 L0 25.0z"/></clipPath></defs><text font-size="21" clip-path="url(#id3)" text-decoration="none" fill="#ffffff" font-family="Arial,Arial" font-style="normal" font-weight="normal"><tspan x="2.0" xml:space="preserve" y="21.0" textLength="70.0">Item #1</tspan></text></g><g transform="translate(489.0 155.0)"><defs><clipPath id="id4"><path d="M0 0 L122.0 0 L122.0 25.0 L0 25.0z"/></clipPath></defs><text font-size="21" clip-path="url(#id4)" text-decoration="none" fill="#ffffff" font-family="Arial,Arial" font-style="normal" font-weight="normal"><tspan x="2.0" xml:space="preserve" y="21.0" textLength="70.0">Item #2</tspan></text></g><g transform="translate(755.0 154.5)"><defs><clipPath id="id5"><path d="M0 0 L122.0 0 L122.0 25.0 L0 25.0z"/></clipPath></defs><text font-size="21" clip-path="url(#id5)" text-decoration="none" fill="#ffffff" font-family="Arial,Arial" font-style="normal" font-weight="normal"><tspan x="2.0" xml:space="preserve" y="21.0" textLength="70.0">Item #3</tspan></text></g><g transform="translate(776.5 -223.0000000000001) rotate(270.0 10.0 423.0000000000001)"><path fill="none" d="M20.0 0.0 L20.0 0.0 Q10.0 0.0 10.0 10.0 L10.0 413.00000000000017 Q10.0 423.00000000000017 0.0 423.00000000000017" stroke-width="1.0" stroke-linejoin="round" stroke="#000000"/><path fill="none" d="M0.0 423.00000000000017 Q10.0 423.00000000000017 10.0 433.00000000000017 L10.0 836.0000000000003 Q10.0 846.0000000000003 20.0 846.0000000000003 L20.0 846.0000000000003" stroke-width="1.0" stroke-linejoin="round" stroke="#000000"/></g><g transform="translate(695.5 218.0)"><defs><clipPath id="id6"><path d="M0 0 L182.0 0 L182.0 24.0 L0 24.0z"/></clipPath></defs><text font-size="20" clip-path="url(#id6)" text-decoration="none" fill="#000000" font-family="Arial,Arial" font-style="normal" font-weight="normal"><tspan x="2.0" xml:space="preserve" y="21.0" textLength="175.0">time = #1 + #2 + #3</tspan></text></g></g></svg>