<?xml version="1.0" encoding="utf-8"?>
<svg contentScriptType="text/ecmascript" xmlns:xlink="http://www.w3.org/1999/xlink" zoomAndPan="magnify" contentStyleType="text/css" viewBox="77.0 39.000000000000114 877.000000000001 199.5" xmlns:cacoo="http://cacoo.com/" preserveAspectRatio="xMidYMin meet" xmlns="http://www.w3.org/2000/svg" version="1.1"><g><g transform="translate(92.0 54.000000000000114)"><path fill="#286bcc" fill-opacity="1.0" d="M847.000000000001 29.00000000000003 Q847.000000000001 34.00000000000003 842.000000000001 34.00000000000003 L5.0 34.00000000000003 Q0.0 34.00000000000003 0.0 29.00000000000003 L0.0 5.0 Q0.0 0.0 5.0 0.0 L842.000000000001 0.0 Q847.000000000001 0.0 847.000000000001 5.0 L847.000000000001 29.00000000000003 L847.000000000001 29.00000000000003z" stroke-width="1.0" stroke-linejoin="round" stroke="#000000"/><g transform="translate(1.0 1.0)"><defs><clipPath id="id0"><path d="M0 0 L845.0 0 L845.0 32.0 L0 32.0z"/></clipPath></defs><text font-size="12" clip-path="url(#id0)" text-decoration="none" fill="#000000" font-family="Arial,Arial" font-style="normal" font-weight="normal"/></g></g><g transform="translate(218.0 54.000000000000114)"><path fill="#83165c" fill-opacity="1.0" d="M720.9999999999993 29.00000000000003 Q720.9999999999993 34.00000000000003 715.9999999999993 34.00000000000003 L5.0 34.00000000000003 Q0.0 34.00000000000003 0.0 29.00000000000003 L0.0 5.0 Q0.0 0.0 5.0 0.0 L715.9999999999993 0.0 Q720.9999999999993 0.0 720.9999999999993 5.0 L720.9999999999993 29.00000000000003 L720.9999999999993 29.00000000000003z" stroke-width="1.0" stroke-linejoin="round" stroke="#000000"/><g transform="translate(1.0 1.0)"><defs><clipPath id="id1"><path d="M0 0 L719.0 0 L719.0 32.0 L0 32.0z"/></clipPath></defs><text font-size="12" clip-path="url(#id1)" text-decoration="none" fill="#000000" font-family="Arial,Arial" font-style="normal" font-weight="normal"/></g></g><g transform="translate(484.0 54.000000000000114)"><path fill="#9c457d" fill-opacity="1.0" d="M454.9999999999993 29.00000000000003 Q454.9999999999993 34.00000000000003 449.9999999999993 34.00000000000003 L5.0 34.00000000000003 Q0.0 34.00000000000003 0.0 29.00000000000003 L0.0 5.0 Q0.0 0.0 5.0 0.0 L449.9999999999993 0.0 Q454.9999999999993 0.0 454.9999999999993 5.0 L454.9999999999993 29.00000000000003 L454.9999999999993 29.00000000000003z" stroke-width="1.0" stroke-linejoin="round" stroke="#000000"/><g transform="translate(1.0 1.0)"><defs><clipPath id="id2"><path d="M0 0 L453.0 0 L453.0 32.0 L0 32.0z"/></clipPath></defs><text font-size="12" clip-path="url(#id2)" text-decoration="none" fill="#000000" font-family="Arial,Arial" font-style="normal" font-weight="normal"/></g></g><g transform="translate(93.0 59.000000000000114)"><defs><clipPath id="id3"><path d="M0 0 L122.0 0 L122.0 25.0 L0 25.0z"/></clipPath></defs><text font-size="21" clip-path="url(#id3)" text-decoration="none" fill="#ffffff" font-family="Arial,Arial" font-style="normal" font-weight="normal"><tspan x="2.0" xml:space="preserve" y="21.0" textLength="70.0">Item #1</tspan></text></g><g transform="translate(218.0 59.000000000000114)"><defs><clipPath id="id4"><path d="M0 0 L122.0 0 L122.0 25.0 L0 25.0z"/></clipPath></defs><text font-size="21" clip-path="url(#id4)" text-decoration="none" fill="#ffffff" font-family="Arial,Arial" font-style="normal" font-weight="normal"><tspan x="2.0" xml:space="preserve" y="21.0" textLength="70.0">Item #2</tspan></text></g><g transform="translate(484.0 58.500000000000114)"><defs><clipPath id="id5"><path d="M0 0 L122.0 0 L122.0 25.0 L0 25.0z"/></clipPath></defs><text font-size="21" clip-path="url(#id5)" text-decoration="none" fill="#ffffff" font-family="Arial,Arial" font-style="normal" font-weight="normal"><tspan x="2.0" xml:space="preserve" y="21.0" textLength="70.0">Item #3</tspan></text></g><g transform="translate(505.5 -241.5) rotate(270.0 10.0 423.0000000000001)"><path fill="none" d="M20.0 0.0 L20.0 0.0 Q10.0 0.0 10.0 10.0 L10.0 413.00000000000017 Q10.0 423.00000000000017 0.0 423.00000000000017" stroke-width="1.0" stroke-linejoin="round" stroke="#000000"/><path fill="none" d="M0.0 423.00000000000017 Q10.0 423.00000000000017 10.0 433.00000000000017 L10.0 836.0000000000003 Q10.0 846.0000000000003 20.0 846.0000000000003 L20.0 846.0000000000003" stroke-width="1.0" stroke-linejoin="round" stroke="#000000"/></g><g transform="translate(424.5 199.5000000000001)"><defs><clipPath id="id6"><path d="M0 0 L182.0 0 L182.0 24.0 L0 24.0z"/></clipPath></defs><text font-size="20" clip-path="url(#id6)" text-decoration="none" fill="#000000" font-family="Arial,Arial" font-style="normal" font-weight="normal"><tspan x="2.0" xml:space="preserve" y="21.0" textLength="175.0">time = #1 + #2 + #3</tspan></text></g><g transform="translate(92.0 88.0)"><path fill="#7ea6e0" fill-opacity="1.0" d="M454.9999999999993 29.00000000000003 Q454.9999999999993 34.00000000000003 449.9999999999993 34.00000000000003 L5.0 34.00000000000003 Q0.0 34.00000000000003 0.0 29.00000000000003 L0.0 5.0 Q0.0 0.0 5.0 0.0 L449.9999999999993 0.0 Q454.9999999999993 0.0 454.9999999999993 5.0 L454.9999999999993 29.00000000000003 L454.9999999999993 29.00000000000003z" stroke-width="1.0" stroke-linejoin="round" stroke="#000000"/><g transform="translate(1.0 1.0)"><defs><clipPath id="id7"><path d="M0 0 L453.0 0 L453.0 32.0 L0 32.0z"/></clipPath></defs><text font-size="12" clip-path="url(#id7)" text-decoration="none" fill="#000000" font-family="Arial,Arial" font-style="normal" font-weight="normal"/></g></g><g transform="translate(92.0 92.0)"><defs><clipPath id="id8"><path d="M0 0 L122.0 0 L122.0 25.0 L0 25.0z"/></clipPath></defs><text font-size="21" clip-path="url(#id8)" text-decoration="none" fill="#ffffff" font-family="Arial,Arial" font-style="normal" font-weight="normal"><tspan x="2.0" xml:space="preserve" y="21.0" textLength="70.0">Item #4</tspan></text></g><g transform="translate(92.0 122.0)"><path fill="#02735f" fill-opacity="1.0" d="M605.9999999999992 29.00000000000003 Q605.9999999999992 34.00000000000003 600.9999999999992 34.00000000000003 L5.0 34.00000000000003 Q0.0 34.00000000000003 0.0 29.00000000000003 L0.0 5.0 Q0.0 0.0 5.0 0.0 L600.9999999999992 0.0 Q605.9999999999992 0.0 605.9999999999992 5.0 L605.9999999999992 29.00000000000003 L605.9999999999992 29.00000000000003z" stroke-width="1.0" stroke-linejoin="round" stroke="#000000"/><g transform="translate(1.0 1.0)"><defs><clipPath id="id9"><path d="M0 0 L604.0 0 L604.0 32.0 L0 32.0z"/></clipPath></defs><text font-size="12" clip-path="url(#id9)" text-decoration="none" fill="#000000" font-family="Arial,Arial" font-style="normal" font-weight="normal"/></g></g><g transform="translate(92.0 126.5)"><defs><clipPath id="id10"><path d="M0 0 L122.0 0 L122.0 25.0 L0 25.0z"/></clipPath></defs><text font-size="21" clip-path="url(#id10)" text-decoration="none" fill="#ffffff" font-family="Arial,Arial" font-style="normal" font-weight="normal"><tspan x="2.0" xml:space="preserve" y="21.0" textLength="70.0">Item #5</tspan></text></g></g></svg>