<?xml version="1.0" encoding="utf-8"?>
<svg contentScriptType="text/ecmascript" xmlns:xlink="http://www.w3.org/1999/xlink" zoomAndPan="magnify" contentStyleType="text/css" viewBox="136.91249999999997 59.0 732.0875000000001 326.0" xmlns:cacoo="http://cacoo.com/" preserveAspectRatio="xMidYMin meet" xmlns="http://www.w3.org/2000/svg" version="1.1"><defs><linearGradient xlink:actuate="onLoad" xlink:type="simple" id="id2" xlink:show="other" xmlns:xlink="http://www.w3.org/1999/xlink"><stop stop-opacity="1.0" stop-color="#ff0000" offset="0%"/><stop stop-opacity="1.0" stop-color="#00ff00" offset="100%"/></linearGradient><linearGradient xlink:actuate="onLoad" xlink:type="simple" id="id4" xlink:show="other" xmlns:xlink="http://www.w3.org/1999/xlink"><stop stop-opacity="1.0" stop-color="#ff0000" offset="0%"/><stop stop-opacity="1.0" stop-color="#00ff00" offset="100%"/></linearGradient></defs><g><g transform="translate(256.45 128.9)"><path fill="#000000" fill-opacity="1.0" d="M445.24999999999994 45.0 Q445.24999999999994 50.0 440.24999999999994 50.0 L5.0 50.0 Q0.0 50.0 0.0 45.0 L0.0 5.0 Q0.0 0.0 5.0 0.0 L440.24999999999994 0.0 Q445.24999999999994 0.0 445.24999999999994 5.0 L445.24999999999994 45.0 L445.24999999999994 45.0z" stroke-width="1.0" stroke-linejoin="round" stroke="#000000"/><g transform="translate(1.0 1.0)"><defs><clipPath id="id0"><path d="M0 0 L443.25000000000006 0 L443.25000000000006 48.0 L0 48.0z"/></clipPath></defs><text font-size="12" clip-path="url(#id0)" text-decoration="none" fill="#000000" font-family="Arial,Arial" font-style="normal" font-weight="normal"/></g></g><g transform="translate(256.45000000000005 192.0)"><path fill="#000000" fill-opacity="1.0" d="M445.24999999999994 45.0 Q445.24999999999994 50.0 440.24999999999994 50.0 L5.0 50.0 Q0.0 50.0 0.0 45.0 L0.0 5.0 Q0.0 0.0 5.0 0.0 L440.24999999999994 0.0 Q445.24999999999994 0.0 445.24999999999994 5.0 L445.24999999999994 45.0 L445.24999999999994 45.0z" stroke-width="1.0" stroke-linejoin="round" stroke="#000000"/><g transform="translate(1.0 1.0)"><defs><clipPath id="id1"><path d="M0 0 L443.25 0 L443.25 48.0 L0 48.0z"/></clipPath></defs><text font-size="12" clip-path="url(#id1)" text-decoration="none" fill="#000000" font-family="Arial,Arial" font-style="normal" font-weight="normal"/></g></g><g transform="translate(256.45 138.9)"><path fill="url(#id2)" d="M415.54999999999984 15.0 L405.54999999999984 0.0 L0.0 0.0 L0.0 30.0 L405.54999999999984 30.0 L415.54999999999984 15.0z" stroke-width="1.0" stroke-linejoin="round" stroke="#000000"/><g transform="translate(1.0 1.0)"><defs><clipPath id="id3"><path d="M0 0 L404.55 0 L404.55 28.0 L0 28.0z"/></clipPath></defs><text font-size="12" clip-path="url(#id3)" text-decoration="none" fill="#000000" font-family="Arial,Arial" font-style="normal" font-weight="normal"/></g></g><g transform="translate(286.1499999999999 202.0) rotate(180.0 207.775 15.0)"><path fill="url(#id4)" d="M415.54999999999984 15.0 L405.54999999999984 0.0 L0.0 0.0 L0.0 30.0 L405.54999999999984 30.0 L415.54999999999984 15.0z" stroke-width="1.0" stroke-linejoin="round" stroke="#000000"/><g transform="translate(1.0 1.0)"><defs><clipPath id="id5"><path d="M0 0 L404.55 0 L404.55 28.0 L0 28.0z"/></clipPath></defs><text font-size="12" clip-path="url(#id5)" text-decoration="none" fill="#000000" font-family="Arial,Arial" font-style="normal" font-weight="normal"/></g></g><g transform="translate(707.55 142.125)"><defs><clipPath id="id6"><path d="M0 0 L146.45000000000005 0 L146.45000000000005 23.55000000000001 L0 23.55000000000001z"/></clipPath></defs><text font-size="18" clip-path="url(#id6)" text-decoration="none" fill="#000000" font-family="Calibri" font-style="normal" font-weight="normal"><tspan x="2.0" xml:space="preserve" y="19.0" textLength="97.0">Finish Sooner</tspan></text></g><g transform="translate(707.55 206.0)"><defs><clipPath id="id7"><path d="M0 0 L146.45000000000005 0 L146.45000000000005 23.55000000000001 L0 23.55000000000001z"/></clipPath></defs><text font-size="18" clip-path="url(#id7)" text-decoration="none" fill="#000000" font-family="Calibri" font-style="normal" font-weight="normal"><tspan x="2.0" xml:space="preserve" y="19.0" textLength="76.0">Finish Less</tspan></text></g><g transform="translate(151.91249999999997 206.0)"><defs><clipPath id="id8"><path d="M0 0 L98.72500000000002 0 L98.72500000000002 23.55000000000001 L0 23.55000000000001z"/></clipPath></defs><text font-size="18" clip-path="url(#id8)" text-decoration="none" fill="#000000" font-family="Calibri" font-style="normal" font-weight="normal"><tspan x="2.0" xml:space="preserve" y="19.0" textLength="85.0">Finish More</tspan></text></g><g transform="translate(153.54999999999995 142.125)"><defs><clipPath id="id9"><path d="M0 0 L95.45000000000005 0 L95.45000000000005 23.55000000000001 L0 23.55000000000001z"/></clipPath></defs><text font-size="18" clip-path="url(#id9)" text-decoration="none" fill="#000000" font-family="Calibri" font-style="normal" font-weight="normal"><tspan x="2.0" xml:space="preserve" y="19.0" textLength="83.0">Finish Later</tspan></text></g><g transform="translate(153.54999999999995 74.0)"><defs><clipPath id="id10"><path d="M0 0 L656.0 0 L656.0 31.0 L0 31.0z"/></clipPath></defs><text font-size="18" clip-path="url(#id10)" text-decoration="none" fill="#000000" font-family="Calibri" font-style="normal" font-weight="normal"><tspan x="26.0" xml:space="preserve" y="19.0" textLength="603.0">The arrows go in the direction of what we frequently want, more done in less time.</tspan></text></g><g transform="translate(516.0 242.0)"><path fill="#0000ff" fill-opacity="1.0" d="M18.0 0.0 L36.0 22.0 L26.0 22.0 L26.0 50.0 L10.0 50.0 L10.0 22.0 L0.0 22.0 L18.0 0.0z" stroke-width="1.0" stroke-linejoin="round" stroke="#000000"/><g transform="translate(10.0 10.0)"><defs><clipPath id="id11"><path d="M0 0 L16.0 0 L16.0 40.0 L0 40.0z"/></clipPath></defs><text font-size="10" clip-path="url(#id11)" text-decoration="none" fill="#000000" font-family="Arial,Arial" font-style="normal" font-weight="normal"/></g></g><path fill="none" d="M534.0 242.0 L534.0 114.90161291345983" stroke-dasharray="12.0 4.0 4.0 4.0" stroke-width="4.0" stroke-linejoin="round" stroke="#0000ff"/><g transform="translate(481.54999999999995 292.0)"><defs><clipPath id="id12"><path d="M0 0 L288.0 0 L288.0 78.0 L0 78.0z"/></clipPath></defs><text font-size="18" clip-path="url(#id12)" text-decoration="none" fill="#000000" font-family="Calibri" font-style="normal" font-weight="normal"><tspan x="2.0" xml:space="preserve" y="19.0" textLength="287.0">A project ends up somewhere on these </tspan><tspan x="2.0" xml:space="preserve" y="41.0" textLength="164.0">balanced continuums. </tspan></text></g></g></svg>