<?xml version="1.0" encoding="utf-8"?>
<svg contentScriptType="text/ecmascript" xmlns:xlink="http://www.w3.org/1999/xlink" zoomAndPan="magnify" contentStyleType="text/css" viewBox="77.0 39.000000000000114 1516.9999999999995 228.9999999999999" xmlns:cacoo="http://cacoo.com/" preserveAspectRatio="xMidYMin meet" xmlns="http://www.w3.org/2000/svg" version="1.1"><g><g transform="translate(92.0 54.000000000000114)"><path fill="#286bcc" fill-opacity="1.0" d="M584.0000000000009 29.00000000000003 Q584.0000000000009 34.00000000000003 579.0000000000009 34.00000000000003 L5.0 34.00000000000003 Q0.0 34.00000000000003 0.0 29.00000000000003 L0.0 5.0 Q0.0 0.0 5.0 0.0 L579.0000000000009 0.0 Q584.0000000000009 0.0 584.0000000000009 5.0 L584.0000000000009 29.00000000000003 L584.0000000000009 29.00000000000003z" stroke-width="1.0" stroke-linejoin="round" stroke="#000000"/><g transform="translate(1.0 1.0)"><defs><clipPath id="id0"><path d="M0 0 L582.0 0 L582.0 32.0 L0 32.0z"/></clipPath></defs><text font-size="12" clip-path="url(#id0)" text-decoration="none" fill="#000000" font-family="Arial,Arial" font-style="normal" font-weight="normal"/></g></g><g transform="translate(218.0 54.000000000000114)"><path fill="#83165c" fill-opacity="1.0" d="M252.99999999999963 29.00000000000003 Q252.99999999999963 34.00000000000003 247.99999999999963 34.00000000000003 L5.0 34.00000000000003 Q0.0 34.00000000000003 0.0 29.00000000000003 L0.0 5.0 Q0.0 0.0 5.0 0.0 L247.99999999999963 0.0 Q252.99999999999963 0.0 252.99999999999963 5.0 L252.99999999999963 29.00000000000003 L252.99999999999963 29.00000000000003z" stroke-width="1.0" stroke-linejoin="round" stroke="#000000"/><g transform="translate(1.0 1.0)"><defs><clipPath id="id1"><path d="M0 0 L251.0 0 L251.0 32.0 L0 32.0z"/></clipPath></defs><text font-size="12" clip-path="url(#id1)" text-decoration="none" fill="#000000" font-family="Arial,Arial" font-style="normal" font-weight="normal"/></g></g><g transform="translate(738.0 54.000000000000114)"><path fill="#9c457d" fill-opacity="1.0" d="M573.9999999999992 29.00000000000003 Q573.9999999999992 34.00000000000003 568.9999999999992 34.00000000000003 L5.0 34.00000000000003 Q0.0 34.00000000000003 0.0 29.00000000000003 L0.0 5.0 Q0.0 0.0 5.0 0.0 L568.9999999999992 0.0 Q573.9999999999992 0.0 573.9999999999992 5.0 L573.9999999999992 29.00000000000003 L573.9999999999992 29.00000000000003z" stroke-width="1.0" stroke-linejoin="round" stroke="#000000"/><g transform="translate(1.0 1.0)"><defs><clipPath id="id2"><path d="M0 0 L572.0 0 L572.0 32.0 L0 32.0z"/></clipPath></defs><text font-size="12" clip-path="url(#id2)" text-decoration="none" fill="#000000" font-family="Arial,Arial" font-style="normal" font-weight="normal"/></g></g><g transform="translate(93.0 59.000000000000114)"><defs><clipPath id="id3"><path d="M0 0 L122.0 0 L122.0 25.0 L0 25.0z"/></clipPath></defs><text font-size="21" clip-path="url(#id3)" text-decoration="none" fill="#ffffff" font-family="Arial,Arial" font-style="normal" font-weight="normal"><tspan x="2.0" xml:space="preserve" y="21.0" textLength="70.0">Item #1</tspan></text></g><g transform="translate(218.0 59.000000000000114)"><defs><clipPath id="id4"><path d="M0 0 L122.0 0 L122.0 25.0 L0 25.0z"/></clipPath></defs><text font-size="21" clip-path="url(#id4)" text-decoration="none" fill="#ffffff" font-family="Arial,Arial" font-style="normal" font-weight="normal"><tspan x="2.0" xml:space="preserve" y="21.0" textLength="70.0">Item #2</tspan></text></g><g transform="translate(755.0 58.0)"><defs><clipPath id="id5"><path d="M0 0 L122.0 0 L122.0 25.0 L0 25.0z"/></clipPath></defs><text font-size="21" clip-path="url(#id5)" text-decoration="none" fill="#ffffff" font-family="Arial,Arial" font-style="normal" font-weight="normal"><tspan x="2.0" xml:space="preserve" y="21.0" textLength="70.0">Item #3</tspan></text></g><g transform="translate(825.5 -536.4999999999999) rotate(270.0 10.0 743.5)"><path fill="none" d="M20.0 0.0 L20.0 0.0 Q10.0 0.0 10.0 10.0 L10.0 733.4999999999991 Q10.0 743.4999999999991 0.0 743.4999999999991" stroke-width="1.0" stroke-linejoin="round" stroke="#000000"/><path fill="none" d="M0.0 743.4999999999991 Q10.0 743.4999999999991 10.0 753.4999999999991 L10.0 1476.9999999999982 Q10.0 1486.9999999999982 20.0 1486.9999999999982 L20.0 1486.9999999999982" stroke-width="1.0" stroke-linejoin="round" stroke="#000000"/></g><g transform="translate(629.0 229.0)"><defs><clipPath id="id6"><path d="M0 0 L294.0 0 L294.0 24.0 L0 24.0z"/></clipPath></defs><text font-size="20" clip-path="url(#id6)" text-decoration="none" fill="#000000" font-family="Arial,Arial" font-style="normal" font-weight="normal"><tspan x="2.0" xml:space="preserve" y="21.0" textLength="267.0">time = #1 + #2 + #3 + #6 + #8</tspan></text></g><g transform="translate(92.0 88.0)"><path fill="#7ea6e0" fill-opacity="1.0" d="M454.9999999999993 29.00000000000003 Q454.9999999999993 34.00000000000003 449.9999999999993 34.00000000000003 L5.0 34.00000000000003 Q0.0 34.00000000000003 0.0 29.00000000000003 L0.0 5.0 Q0.0 0.0 5.0 0.0 L449.9999999999993 0.0 Q454.9999999999993 0.0 454.9999999999993 5.0 L454.9999999999993 29.00000000000003 L454.9999999999993 29.00000000000003z" stroke-width="1.0" stroke-linejoin="round" stroke="#000000"/><g transform="translate(1.0 1.0)"><defs><clipPath id="id7"><path d="M0 0 L453.0 0 L453.0 32.0 L0 32.0z"/></clipPath></defs><text font-size="12" clip-path="url(#id7)" text-decoration="none" fill="#000000" font-family="Arial,Arial" font-style="normal" font-weight="normal"/></g></g><g transform="translate(92.0 92.0)"><defs><clipPath id="id8"><path d="M0 0 L122.0 0 L122.0 25.0 L0 25.0z"/></clipPath></defs><text font-size="21" clip-path="url(#id8)" text-decoration="none" fill="#ffffff" font-family="Arial,Arial" font-style="normal" font-weight="normal"><tspan x="2.0" xml:space="preserve" y="21.0" textLength="70.0">Item #4</tspan></text></g><g transform="translate(92.0 122.0)"><path fill="#02735f" fill-opacity="1.0" d="M605.9999999999992 29.00000000000003 Q605.9999999999992 34.00000000000003 600.9999999999992 34.00000000000003 L5.0 34.00000000000003 Q0.0 34.00000000000003 0.0 29.00000000000003 L0.0 5.0 Q0.0 0.0 5.0 0.0 L600.9999999999992 0.0 Q605.9999999999992 0.0 605.9999999999992 5.0 L605.9999999999992 29.00000000000003 L605.9999999999992 29.00000000000003z" stroke-width="1.0" stroke-linejoin="round" stroke="#000000"/><g transform="translate(1.0 1.0)"><defs><clipPath id="id9"><path d="M0 0 L604.0 0 L604.0 32.0 L0 32.0z"/></clipPath></defs><text font-size="12" clip-path="url(#id9)" text-decoration="none" fill="#000000" font-family="Arial,Arial" font-style="normal" font-weight="normal"/></g></g><g transform="translate(92.0 126.5)"><defs><clipPath id="id10"><path d="M0 0 L122.0 0 L122.0 25.0 L0 25.0z"/></clipPath></defs><text font-size="21" clip-path="url(#id10)" text-decoration="none" fill="#ffffff" font-family="Arial,Arial" font-style="normal" font-weight="normal"><tspan x="2.0" xml:space="preserve" y="21.0" textLength="70.0">Item #5</tspan></text></g><g transform="translate(471.0 54.000000000000114)"><path fill="#ffffff" fill-opacity="1.0" d="M266.9999999999996 29.00000000000003 Q266.9999999999996 34.00000000000003 261.9999999999996 34.00000000000003 L5.0 34.00000000000003 Q0.0 34.00000000000003 0.0 29.00000000000003 L0.0 5.0 Q0.0 0.0 5.0 0.0 L261.9999999999996 0.0 Q266.9999999999996 0.0 266.9999999999996 5.0 L266.9999999999996 29.00000000000003 L266.9999999999996 29.00000000000003z" stroke-width="1.0" stroke-linejoin="round" stroke="#000000"/><g transform="translate(1.0 1.0)"><defs><clipPath id="id11"><path d="M0 0 L265.0 0 L265.0 32.0 L0 32.0z"/></clipPath></defs><text font-size="12" clip-path="url(#id11)" text-decoration="none" fill="#000000" font-family="Arial,Arial" font-style="normal" font-weight="normal"/></g></g><g transform="translate(477.0 58.500000000000114)"><defs><clipPath id="id12"><path d="M0 0 L186.0 0 L186.0 25.0 L0 25.0z"/></clipPath></defs><text font-size="21" clip-path="url(#id12)" text-decoration="none" fill="#000000" font-family="Arial,Arial" font-style="normal" font-weight="normal"><tspan x="2.0" xml:space="preserve" y="21.0" textLength="173.0">Item #6 - Unknown</tspan></text></g><g transform="translate(92.0 156.0)"><path fill="#ffffff" fill-opacity="1.0" d="M605.9999999999992 29.00000000000003 Q605.9999999999992 34.00000000000003 600.9999999999992 34.00000000000003 L5.0 34.00000000000003 Q0.0 34.00000000000003 0.0 29.00000000000003 L0.0 5.0 Q0.0 0.0 5.0 0.0 L600.9999999999992 0.0 Q605.9999999999992 0.0 605.9999999999992 5.0 L605.9999999999992 29.00000000000003 L605.9999999999992 29.00000000000003z" stroke-width="1.0" stroke-linejoin="round" stroke="#000000"/><g transform="translate(1.0 1.0)"><defs><clipPath id="id13"><path d="M0 0 L604.0 0 L604.0 32.0 L0 32.0z"/></clipPath></defs><text font-size="12" clip-path="url(#id13)" text-decoration="none" fill="#000000" font-family="Arial,Arial" font-style="normal" font-weight="normal"/></g></g><g transform="translate(92.0 160.5)"><defs><clipPath id="id14"><path d="M0 0 L202.0 0 L202.0 25.0 L0 25.0z"/></clipPath></defs><text font-size="21" clip-path="url(#id14)" text-decoration="none" fill="#000000" font-family="Arial,Arial" font-style="normal" font-weight="normal"><tspan x="2.0" xml:space="preserve" y="21.0" textLength="173.0">Item #7 - Unknown</tspan></text></g><g transform="translate(1312.0 54.000000000000114)"><path fill="#ffffff" fill-opacity="1.0" d="M266.9999999999996 29.00000000000003 Q266.9999999999996 34.00000000000003 261.9999999999996 34.00000000000003 L5.0 34.00000000000003 Q0.0 34.00000000000003 0.0 29.00000000000003 L0.0 5.0 Q0.0 0.0 5.0 0.0 L261.9999999999996 0.0 Q266.9999999999996 0.0 266.9999999999996 5.0 L266.9999999999996 29.00000000000003 L266.9999999999996 29.00000000000003z" stroke-width="1.0" stroke-linejoin="round" stroke="#000000"/><g transform="translate(1.0 1.0)"><defs><clipPath id="id15"><path d="M0 0 L265.0 0 L265.0 32.0 L0 32.0z"/></clipPath></defs><text font-size="12" clip-path="url(#id15)" text-decoration="none" fill="#000000" font-family="Arial,Arial" font-style="normal" font-weight="normal"/></g></g><g transform="translate(1318.0 58.500000000000114)"><defs><clipPath id="id16"><path d="M0 0 L186.0 0 L186.0 25.0 L0 25.0z"/></clipPath></defs><text font-size="21" clip-path="url(#id16)" text-decoration="none" fill="#000000" font-family="Arial,Arial" font-style="normal" font-weight="normal"><tspan x="2.0" xml:space="preserve" y="21.0" textLength="173.0">Item #8 - Unknown</tspan></text></g><g transform="translate(1189.0 54.000000000000114)"><path fill="#ffffff" fill-opacity="1.0" d="M122.99999999999973 29.00000000000003 Q122.99999999999973 34.00000000000003 117.99999999999973 34.00000000000003 L5.0 34.00000000000003 Q0.0 34.00000000000003 0.0 29.00000000000003 L0.0 5.0 Q0.0 0.0 5.0 0.0 L117.99999999999973 0.0 Q122.99999999999973 0.0 122.99999999999973 5.0 L122.99999999999973 29.00000000000003 L122.99999999999973 29.00000000000003z" stroke-width="1.0" stroke-linejoin="round" stroke="#000000"/><g transform="translate(1.0 1.0)"><defs><clipPath id="id17"><path d="M0 0 L121.0 0 L121.0 32.0 L0 32.0z"/></clipPath></defs><text font-size="21" clip-path="url(#id17)" text-decoration="none" fill="#000000" font-family="Arial,Arial" font-style="normal" font-weight="normal"><tspan x="36.0" xml:space="preserve" y="23.0" textLength="49.0">Extra</tspan></text></g></g></g></svg>